<svg width="337" height="158" fill="none" xmlns="http://www.w3.org/2000/svg"><rect x="78" y="34" width="125" height="75" rx="3.223" fill="#9EA9B8" fill-opacity=".69"/><rect x="212" y="34" width="125" height="75" rx="3.223" fill="#8F99A6" fill-opacity=".16"/><rect width="259" height="41" rx="3.223" transform="matrix(1 0 0 -1 78 158)" fill="#8F99A6" fill-opacity=".16"/><g filter="url(#filter0_d)"><rect x="42" y="47" width="123" height="47.54" rx="10.432" fill="#fff"/><rect x="51.791" y="58.279" width="29.985" height="25.784" rx="3.223" fill="#8F99A6" fill-opacity=".16"/><rect x="88.507" y="58.279" width="29.985" height="25.784" rx="3.223" fill="#8F99A6" fill-opacity=".16"/><rect x="125.224" y="58.279" width="29.985" height="25.784" rx="3.223" fill="#8F99A6" fill-opacity=".16"/></g><path d="M118.952 97.625l1.278 2.324 4.916-.297.934-3.313.148-1.93-.148-1.087-.737-.544h-.639l-.443-.94-.295-.297h-.885l-.59-.692h-.59l-.589.494h-.738l-.688.347-.246 1.632-.836.346-.393.94.541 3.017z" fill="#fff" stroke="#000" stroke-width=".529"/><path fill-rule="evenodd" clip-rule="evenodd" d="M122.149 90.452c0 .028-.089.05-.197.05-.108 0-.197.022-.197.05 0 .026-.034.049-.075.049-.086 0-.416.315-.416.397 0 .092-.161.23-.185.159-.011-.034-.085-.062-.163-.062-.079 0-.144-.022-.144-.05 0-.026-.088-.049-.197-.049-.108 0-.196.023-.196.05 0 .027-.056.05-.124.05-.172 0-.663.493-.663.666 0 .069-.022.125-.049.125-.03 0-.049.247-.049.643v.643h-.148c-.081 0-.147.022-.147.049 0 .027-.078.05-.173.05-.14 0-.216.042-.394.22-.121.122-.22.256-.22.297 0 .042-.022.076-.049.076-.027 0-.049.067-.049.148 0 .082-.022.149-.049.149-.03 0-.049.263-.049.692 0 .429.019.693.049.693.027 0 .049.132.049.296 0 .165.022.297.049.297.027 0 .049.111.049.247s.023.248.05.248c.027 0 .049.089.049.197 0 .11.022.198.049.198.027 0 .049.067.049.149 0 .081.022.148.049.148.027 0 .049.067.049.148 0 .082.023.149.05.149.027 0 .049.044.049.099 0 .054.022.099.049.099.027 0 .049.066.049.148 0 .082.022.148.049.148.027 0 .049.045.049.1 0 .054.023.098.05.098.027 0 .049.062.049.138 0 .08.04.167.098.208a.27.27 0 01.098.21c0 .075.022.137.049.137.028 0 .05.04.05.088 0 .048.044.12.098.159.054.04.098.11.098.16 0 .048.022.087.049.087.027 0 .05.034.05.076 0 .041.099.175.22.297l.219.221h5.12l.121-.122c.066-.066.12-.155.12-.197 0-.043.023-.077.05-.077.027 0 .049-.067.049-.148 0-.082.022-.149.049-.149.027 0 .049-.066.049-.148 0-.082.022-.148.049-.148.027 0 .049-.067.049-.149 0-.081.023-.148.05-.148.027 0 .049-.09.049-.198 0-.109.022-.198.049-.198.027 0 .049-.089.049-.198 0-.108.022-.198.049-.198.027 0 .049-.089.049-.197 0-.11.023-.198.05-.198.027 0 .049-.111.049-.248 0-.136.022-.247.049-.247.028 0 .049-.148.049-.346 0-.198.021-.346.049-.346.03 0 .049-.198.049-.495 0-.296.02-.494.05-.494.031 0 .049-.363.049-.99 0-.626-.018-.989-.049-.989-.028 0-.05-.089-.05-.197 0-.11-.022-.198-.049-.198-.027 0-.049-.035-.049-.077 0-.099-.219-.319-.317-.319-.042 0-.076-.022-.076-.05 0-.027-.044-.049-.099-.049-.054 0-.098-.022-.098-.05 0-.027-.131-.049-.295-.049-.164 0-.295.022-.295.05 0 .073-.144.06-.225-.022-.044-.044-.07-.173-.07-.346 0-.151-.022-.275-.049-.275-.027 0-.049-.034-.049-.076 0-.127-.425-.518-.564-.518-.068 0-.124-.022-.124-.05 0-.026-.089-.049-.197-.049-.108 0-.197.022-.197.05 0 .027-.088.05-.196.05-.164 0-.197-.017-.197-.1 0-.054-.022-.099-.049-.099-.027 0-.049-.034-.049-.076 0-.098-.319-.418-.416-.418-.042 0-.076-.022-.076-.05 0-.027-.088-.05-.196-.05-.109 0-.197-.022-.197-.049a.05.05 0 00-.049-.05.05.05 0 00-.049.05zm.196.594c0 .027.035.05.077.05.117 0 .218.125.218.268 0 .07.022.127.049.127.032 0 .05.421.05 1.166 0 1.245.011 1.307.245 1.307.222 0 .246-.09.246-.912 0-.48.019-.77.049-.77.027 0 .049-.057.049-.127 0-.143.102-.268.218-.268.043 0 .077-.023.077-.05 0-.027.067-.05.148-.05.081 0 .147.023.147.05 0 .027.035.05.078.05.099 0 .217.119.217.219 0 .042.022.077.049.077.032 0 .05.412.05 1.138 0 1.088.004 1.138.094 1.138.052 0 .107.027.123.061.023.05.034.05.057 0 .016-.034.071-.061.123-.061.087 0 .094-.04.094-.495 0-.297.02-.495.049-.495.027 0 .05-.034.05-.076 0-.154.229-.32.441-.32.164 0 .233.033.371.172l.171.171v1.165c0 .742-.018 1.163-.049 1.163-.03 0-.05.182-.05.445 0 .264-.02.446-.049.446-.027 0-.049.11-.049.247 0 .136-.022.247-.049.247-.027 0-.049.111-.049.247s-.022.248-.049.248c-.027 0-.05.089-.05.198 0 .108-.022.197-.049.197-.027 0-.049.09-.049.198 0 .11-.022.198-.049.198-.027 0-.049.09-.049.198 0 .109-.022.198-.049.198-.027 0-.049.067-.049.148 0 .082-.023.149-.05.149-.027 0-.049.057-.049.127 0 .274.055.268-2.458.268-2.443 0-2.458-.001-2.458-.219 0-.043-.022-.078-.049-.078-.027 0-.049-.04-.049-.088 0-.048-.044-.12-.098-.159-.055-.039-.099-.11-.099-.16 0-.048-.022-.087-.049-.087-.027 0-.049-.045-.049-.099 0-.054-.022-.099-.049-.099-.027 0-.049-.044-.049-.099 0-.054-.023-.099-.05-.099-.027 0-.049-.067-.049-.148 0-.082-.022-.149-.049-.149-.027 0-.049-.044-.049-.098 0-.055-.022-.1-.049-.1-.027 0-.049-.066-.049-.148 0-.081-.022-.148-.05-.148-.027 0-.049-.045-.049-.099 0-.054-.022-.099-.049-.099-.027 0-.049-.067-.049-.148 0-.082-.022-.149-.049-.149-.027 0-.049-.089-.049-.198 0-.108-.022-.197-.049-.197-.027 0-.05-.09-.05-.198 0-.109-.022-.198-.049-.198-.027 0-.049-.132-.049-.297 0-.165-.022-.296-.049-.296-.031 0-.049-.28-.049-.742 0-.462.018-.742.049-.742.027 0 .049-.035.049-.078s.032-.11.07-.148a.25.25 0 01.148-.071c.042 0 .077-.022.077-.05 0-.027.066-.049.147-.049h.148v.818c0 .803.002.821.121.94.122.123.272.163.272.072 0-.027.044-.05.099-.05.096 0 .098-.032.098-1.806v-1.807l.17-.172c.13-.13.212-.171.344-.171.096 0 .174.022.174.05 0 .026.035.049.077.049.116 0 .218.125.218.268 0 .07.022.128.049.128.03 0 .049.24.049.621 0 .473.017.639.071.693.08.08.224.094.224.02 0-.026.045-.049.099-.049.095 0 .098-.033.098-.989 0-.626.018-.989.049-.989.027 0 .049-.035.049-.078a.247.247 0 01.218-.219c.043 0 .077-.022.077-.05 0-.026.067-.049.148-.049.081 0 .147.023.147.05z" fill="#3F4B5B"/><defs><filter id="filter0_d" x=".273" y=".057" width="206.454" height="130.994" filterUnits="userSpaceOnUse" color-interpolation-filters="sRGB"><feFlood flood-opacity="0" result="BackgroundImageFix"/><feColorMatrix in="SourceAlpha" values="0 0 0 0 0 0 0 0 0 0 0 0 0 0 0 0 0 0 127 0"/><feOffset dy="-5.216"/><feGaussianBlur stdDeviation="20.863"/><feColorMatrix values="0 0 0 0 0.164706 0 0 0 0 0.223529 0 0 0 0 0.294118 0 0 0 0.21 0"/><feBlend in2="BackgroundImageFix" result="effect1_dropShadow"/><feBlend in="SourceGraphic" in2="effect1_dropShadow" result="shape"/></filter></defs></svg>