<svg aria-hidden="true" style="position: absolute; width: 0; height: 0; overflow: hidden;" version="1.1" xmlns="http://www.w3.org/2000/svg" xmlns:xlink="http://www.w3.org/1999/xlink">
<defs>
<symbol id="frm_views_calendar_icon" viewBox="0 0 14 16" fill="none">
    <title>calendar</title>
    <path d="M.375 6h13.25c.206 0 .375.169.375.375V14.5a1.5 1.5 0 01-1.5 1.5h-11A1.5 1.5 0 010 14.5V6.375C0 6.169.169 6 .375 6zM14 4.625V3.5A1.5 1.5 0 0012.5 2H11V.375A.376.376 0 0010.625 0h-1.25A.376.376 0 009 .375V2H5V.375A.376.376 0 004.625 0h-1.25A.376.376 0 003 .375V2H1.5A1.5 1.5 0 000 3.5v1.125C0 4.831.169 5 .375 5h13.25A.376.376 0 0014 4.625z" fill="#fff"/>
</symbol>
<symbol id="frm_views_filter_icon" viewBox="0 0 20 20" fill="none">
    <title>filter</title>
    <path d="M18.333 2.5H1.666l6.667 7.883v5.45l3.333 1.667v-7.117L18.333 2.5z" stroke="#4199FD" stroke-width="1.5" stroke-linecap="round" stroke-linejoin="round"/>
</symbol>
<symbol id="frm_views_sort_icon" viewBox="0 0 20 20" fill="none">
    <title>filter</title>
    <path d="M16.667 10H8.334M16.667 5H3.334M16.667 15h-3.333" stroke="#4199FD" stroke-width="1.5" stroke-linecap="round" stroke-linejoin="round"/>
</symbol>
<symbol id="frm_views_checkmark_icon" viewBox="0 0 16 12" fill="none">
    <title>checkmark</title>
    <path d="M5.434 11.732l-5.2-5.2a.8.8 0 010-1.132L1.366 4.27a.8.8 0 011.131 0L6 7.772 13.503.269a.8.8 0 011.131 0L15.766 1.4a.8.8 0 010 1.131l-9.2 9.2a.8.8 0 01-1.132 0z" fill="#0DA63C"/>
</symbol>
<symbol id="frm_views_circle_more_icon" viewBox="0 0 36 36" fill="none">
    <title>circle-more</title>
    <path d="M18 33c8.284 0 15-6.716 15-15 0-8.284-6.716-15-15-15C9.716 3 3 9.716 3 18c0 8.284 6.716 15 15 15z" stroke="#fff" stroke-width="2" stroke-linecap="round" stroke-linejoin="round"/><path d="M18.46 19.139a1 1 0 100-2 1 1 0 000 2zM25.46 19.139a1 1 0 100-2 1 1 0 000 2zM11.46 19.139a1 1 0 100-2 1 1 0 000 2z" stroke="#fff" stroke-width="2" stroke-linecap="round" stroke-linejoin="round"/>
</symbol>
<symbol id="frm_views_circle_plus_icon" viewBox="0 0 36 36" fill="none">
    <title>circle-plus</title>
    <path d="M18 33c8.284 0 15-6.716 15-15 0-8.284-6.716-15-15-15C9.716 3 3 9.716 3 18c0 8.284 6.716 15 15 15zM18 12v12M12 18h12" stroke="#fff" stroke-width="2" stroke-linecap="round" stroke-linejoin="round"/>
</symbol>
<symbol id="frm_views_drag_icon" viewBox="0 0 16 9" fill="none">
    <title>drag-icon</title>
    <path d="M9.777 2.707V.849C9.777.38 9.417 0 8.975 0h-1.95c-.444 0-.803.38-.803.849v1.858c0 .469.36.849.803.849h1.95c.443 0 .802-.38.802-.85zM15.996 2.707V.849c0-.469-.36-.849-.803-.849h-1.95c-.443 0-.803.38-.803.849v1.858c0 .469.36.849.803.849h1.95c.444 0 .803-.38.803-.85zM3.556 2.707V.849C3.556.38 3.196 0 2.753 0H.803C.36 0 0 .38 0 .849v1.858c0 .469.36.849.803.849h1.95c.443 0 .803-.38.803-.85zM9.777 8.04V6.182c0-.468-.36-.849-.802-.849h-1.95c-.444 0-.803.38-.803.85V8.04c0 .469.36.85.803.85l1.95-.001c.443 0 .802-.38.802-.849zM15.996 8.04V6.182c0-.468-.36-.849-.803-.849h-1.95c-.443 0-.803.38-.803.85V8.04c0 .469.36.85.803.85l1.95-.001c.444 0 .803-.38.803-.849zM3.556 8.04V6.182c0-.468-.36-.849-.803-.849H.803c-.443 0-.803.38-.803.85V8.04c0 .469.36.85.803.85l1.95-.001c.443 0 .803-.38.803-.849z" fill="#fff"/>
</symbol>
<symbol id="frm_views_droplet_icon" viewBox="0 0 20 20" fill="none">
    <title>droplet</title>
    <path d="M10 2.242l4.717 4.717a6.667 6.667 0 11-9.425 0L10 2.242z" stroke="#fff" stroke-width="1.5" stroke-linecap="round" stroke-linejoin="round"/>
</symbol>
<symbol id="frm_views_edit_icon" viewBox="0 0 20 20" fill="none">
    <title>edit</title>
    <path d="M14.167 2.5A2.357 2.357 0 0117.5 5.835L6.25 17.084l-4.583 1.25 1.25-4.583L14.167 2.5z" stroke="#fff" stroke-width="1.5" stroke-linecap="round" stroke-linejoin="round"/>
</symbol>
<symbol id="frm_views_layout_builder_icon" viewBox="0 0 20 20" fill="none">
    <title>layout-builder</title>
    <rect x="1" y="2" width="4.667" height="8" rx="1" fill="#fff"/><rect x="7.666" y="2" width="4.667" height="8" rx="1" fill="#fff"/><rect x="14.334" y="2" width="4.667" height="8" rx="1" fill="#fff"/><rect x="1" y="12" width="18" height="7" rx="1" fill="#fff"/>
</symbol>
<symbol id="frm_views_plus_circle_icon" viewBox="0 0 24 24" fill="none">
    <title>plus-circle</title>
    <g opacity=".5" stroke="#282F36" stroke-width="2" stroke-linecap="round" stroke-linejoin="round"><path d="M12 22c5.523 0 10-4.477 10-10S17.523 2 12 2 2 6.477 2 12s4.477 10 10 10zM12 8v8M8 12h8"/></g>
</symbol>
<symbol id="frm_views_trash_can_icon" viewBox="0 0 42 42" fill="none">
    <title>trash-can</title>
    <rect width="42" height="42" rx="21" fill="#282F36" fill-opacity=".2"/><g ><path d="M27.5 14h-3.75l-.294-.584a.75.75 0 00-.672-.416h-3.572a.742.742 0 00-.668.416L18.25 14H14.5a.5.5 0 00-.5.5v1a.5.5 0 00.5.5h13a.5.5 0 00.5-.5v-1a.5.5 0 00-.5-.5zM15.662 27.594A1.5 1.5 0 0017.16 29h7.682a1.5 1.5 0 001.496-1.406L27 17H15l.662 10.594z" fill="#fff"/></g><defs><clipPath id="clip0"><path fill="#fff" transform="translate(14 13)" d="M0 0h14v16H0z"/></clipPath></defs>
</symbol>
<symbol id="frm_views_trash_icon" viewBox="0 0 14 16" fill="none">
    <title>trash</title>
    <path d="M13.5 1H9.75L9.456.416A.75.75 0 008.784 0H5.212a.741.741 0 00-.668.416L4.25 1H.5a.5.5 0 00-.5.5v1a.5.5 0 00.5.5h13a.5.5 0 00.5-.5v-1a.5.5 0 00-.5-.5zM1.662 14.594A1.5 1.5 0 003.16 16h7.682a1.5 1.5 0 001.497-1.406L13 4H1l.663 10.594z" fill="#fff"/>
</symbol>
<symbol id="frm_views_coming_soon_calendar" viewBox="0 0 37 37" fill="none">
    <title>calendar</title>
    <path d="M27.125 8.875H3.875A3.879 3.879 0 000 12.75v19.375A3.879 3.879 0 003.875 36h23.25A3.879 3.879 0 0031 32.125V12.75a3.879 3.879 0 00-3.875-3.875zm1.292 23.25c0 .713-.58 1.292-1.292 1.292H3.875c-.713 0-1.292-.58-1.292-1.292V17.968h25.832v14.157h.002z" fill="#7389A6"/><path d="M7.751 5H6.46c-.713 0-1.292.578-1.292 1.292v5.168c0 .712.577 1.292 1.292 1.292H7.75c.713 0 1.292-.578 1.292-1.292V6.292C9.043 5.578 8.463 5 7.751 5zM24.542 5h-1.293c-.712 0-1.292.578-1.292 1.292v5.168c0 .712.58 1.29 1.292 1.29h1.293c.712 0 1.292-.578 1.292-1.292V6.292A1.293 1.293 0 0024.542 5z" fill="#B3C3DA"/><path d="M16.2 36.854l.581 1.16.581-1.16 1.833-3.659 3.659-1.833 1.16-.58-1.16-.582-3.659-1.833-1.833-3.658-.58-1.16-.582 1.16-1.833 3.658L10.71 30.2l-1.16.581 1.16.581 3.658 1.833 1.833 3.659zm14.413-1.063l1.059-2.119 2.119-1.06 1.162-.58-1.162-.582-2.119-1.06-1.06-2.118-.58-1.163-.582 1.163-1.06 2.119-2.118 1.059-1.163.581 1.163.582 2.119 1.059 1.059 2.119.581 1.162.582-1.162z" fill="#FFB72D" stroke="#fff" stroke-width="1.3"/>
</symbol>
<symbol id="frm_views_grid_icon" viewBox="0 0 10 10" fill="none">
    <title>grid</title>
    <path d="M5.765 1.155h3.214c.222 0 .402.18.402.402v2.678c0 .222-.18.402-.402.402H5.765a.402.402 0 01-.402-.402V1.557c0-.222.18-.402.402-.402zm-1.34 0H1.212a.402.402 0 00-.401.402v2.678c0 .222.18.402.401.402h3.215c.222 0 .401-.18.401-.402V1.557a.402.402 0 00-.401-.402zM.81 5.575v2.678c0 .222.18.402.401.402h3.215c.222 0 .401-.18.401-.402V5.574a.402.402 0 00-.401-.401H1.21a.402.402 0 00-.401.401zm4.955 3.08h3.214c.222 0 .402-.18.402-.402V5.574a.402.402 0 00-.402-.401H5.765a.402.402 0 00-.402.401v2.679c0 .222.18.402.402.402z" fill="#fff"/>
</symbol>
<symbol id="frm_views_table_icon" viewBox="0 0 10 10" fill="none">
    <title>table</title>
    <path d="M8.578 1.25H1.613a.804.804 0 00-.803.804v5.892c0 .444.36.804.803.804h6.965c.443 0 .803-.36.803-.804V2.054a.804.804 0 00-.803-.804zM4.56 7.679H1.88V6.07H4.56V7.68zM4.56 5H1.88V3.393H4.56V5zm3.75 2.679H5.63V6.07H8.31V7.68zM8.31 5H5.63V3.393H8.31V5z" fill="#fff"/>
</symbol>
<symbol id="frm_toggle_border_radius_options_icon" viewBox="0 0 22 22" fill="none">
    <title>border radius options</title>
   <path d="M7.25 1H4a3 3 0 00-3 3v3.25M21 7.25V4a3 3 0 00-3-3h-3.25M1 14.75V18a3 3 0 003 3h3.25M14.75 21H18a3 3 0 003-3v-3.25" stroke="#545F6E" stroke-linecap="round" stroke-linejoin="round"/>
</symbol>
<symbol id="frm_border_radius_corner_icon" viewBox="0 0 8 8" fill="none">
    <title>border radius corner</title>
    <path d="M.75 7H4a3 3 0 003-3V.75" stroke="#545F6E" stroke-linecap="round" stroke-linejoin="round"/>
</symbol>
<symbol id="frm_switch_to_classic_mode_icon" viewBox="0 0 20 20" fill="none">
    <title>classic view</title>
    <path d="M13.334 15l5-5-5-5M6.667 5l-5 5 5 5" stroke="#4199FD" stroke-width="1.5" stroke-linecap="round" stroke-linejoin="round"/>
</symbol>
<symbol id="frm_classic_view_icon" viewBox="0 0 16 16" fill="none">
    <title>classic view</title>
    <path d="M10.667 12l4-4-4-4M5.333 4l-4 4 4 4" stroke="#fff" stroke-width="2" stroke-linecap="round" stroke-linejoin="round"/>
</symbol>
<symbol id="frm_table_header_gear" viewBox="0 0 16 16" fill="none">
    <title>table settings</title>
    <path d="M15.23 9.867l-1.33-.769a6.018 6.018 0 000-2.194l1.33-.768a.378.378 0 00.172-.438 7.783 7.783 0 00-1.709-2.956.376.376 0 00-.462-.072l-1.332.769A5.898 5.898 0 0010 2.342V.808a.374.374 0 00-.293-.366 7.856 7.856 0 00-3.413 0A.374.374 0 006 .808v1.537a6.084 6.084 0 00-1.9 1.097l-1.328-.769a.371.371 0 00-.462.072 7.736 7.736 0 00-1.71 2.956.374.374 0 00.172.438l1.332.769a6.02 6.02 0 000 2.193l-1.332.77a.378.378 0 00-.172.437 7.783 7.783 0 001.71 2.956c.119.128.312.16.462.072l1.332-.769a5.9 5.9 0 001.9 1.097V15.2c0 .175.121.329.293.366a7.858 7.858 0 003.413 0 .374.374 0 00.293-.366v-1.537a6.084 6.084 0 001.9-1.097l1.332.769c.153.087.344.06.462-.072a7.737 7.737 0 001.71-2.956.386.386 0 00-.175-.441zM8 10.501a2.503 2.503 0 01-2.5-2.5c0-1.378 1.121-2.5 2.5-2.5 1.378 0 2.5 1.122 2.5 2.5s-1.122 2.5-2.5 2.5z" fill="#545F6E" fill-opacity=".5"/>
</symbol>
<symbol id="frm_views_vertical_drag_icon" viewBox="0 0 10 18" fill="none">
    <title>vertical-drag-icon</title>
    <path d="M3.045 7H.955C.428 7 0 7.404 0 7.903v2.194c0 .499.428.903.955.903h2.09c.527 0 .955-.404.955-.903V7.903C4 7.404 3.572 7 3.045 7zM3.045.004H.955C.428.004 0 .41 0 .907v2.194c0 .499.428.903.955.903h2.09c.527 0 .955-.404.955-.903V.907C4 .41 3.572.004 3.045.004zM3.045 14H.955c-.527 0-.955.404-.955.903v2.194c0 .499.428.903.955.903h2.09c.527 0 .955-.404.955-.903v-2.194c0-.499-.428-.903-.955-.903zM9.045 7h-2.09C6.428 7 6 7.404 6 7.903v2.194c0 .499.428.903.955.903h2.09c.527 0 .955-.404.955-.903V7.903C10 7.404 9.572 7 9.045 7zM9.045.004h-2.09C6.428.004 6 .41 6 .907v2.194c0 .499.428.903.955.903h2.09c.527 0 .955-.404.955-.903V.907c0-.498-.428-.903-.955-.903zM9.045 14h-2.09c-.527 0-.955.404-.955.903v2.194c0 .499.428.903.955.903h2.09c.527 0 .955-.404.955-.903v-2.194c0-.499-.428-.903-.955-.903z" fill="#545F6E" fill-opacity=".5"/>
</symbol>
<symbol id="frm_views_plus_icon" viewBox="0 0 24 24" fill="none">
    <title>plus icon</title>
    <path d="M12 5v14M5 12h14" stroke="#282F36" stroke-width="2" stroke-linecap="round" stroke-linejoin="round"/>
</symbol>
<symbol id="frm_views_duplicate_column_icon" viewBox="0 0 20 20" fill="none">
    <title>duplicate column icon</title>
    <path d="M16.667 7.5h-7.5c-.92 0-1.667.746-1.667 1.667v7.5c0 .92.746 1.666 1.667 1.666h7.5c.92 0 1.666-.746 1.666-1.666v-7.5c0-.92-.746-1.667-1.666-1.667z" stroke="#484E54" stroke-linecap="round" stroke-linejoin="round"/><path d="M4.166 12.5h-.833a1.667 1.667 0 01-1.667-1.667v-7.5a1.667 1.667 0 011.667-1.666h7.5a1.667 1.667 0 011.666 1.666v.834" stroke="#484E54" stroke-linecap="round" stroke-linejoin="round"/>
</symbol>
<symbol id="frm_views_trash_column_icon" viewBox="0 0 20 20" fill="none">
    <title>delete column icon</title>
    <path d="M2.5 5H4.16667H17.5" stroke="#484E54" stroke-linecap="round" stroke-linejoin="round"/>
    <path d="M6.66602 4.99999V3.33332C6.66602 2.8913 6.84161 2.46737 7.15417 2.15481C7.46673 1.84225 7.89066 1.66666 8.33268 1.66666H11.666C12.108 1.66666 12.532 1.84225 12.8445 2.15481C13.1571 2.46737 13.3327 2.8913 13.3327 3.33332V4.99999M15.8327 4.99999V16.6667C15.8327 17.1087 15.6571 17.5326 15.3445 17.8452C15.032 18.1577 14.608 18.3333 14.166 18.3333H5.83268C5.39065 18.3333 4.96673 18.1577 4.65417 17.8452C4.34161 17.5326 4.16602 17.1087 4.16602 16.6667V4.99999H15.8327Z" stroke="#484E54" stroke-linecap="round" stroke-linejoin="round"/>
</symbol>
</defs>
</svg>