<svg width="243" height="165" fill="none" xmlns="http://www.w3.org/2000/svg"><rect x="15.5" y=".5" width="215.278" height="42.196" rx="2.892" fill="#fff" stroke="#4199FD"/><rect x="59" y="6" width="133" height="9" rx="3.052" fill="#282F36" fill-opacity=".5"/><rect x="59" y="21" width="77" height="6" rx="3" fill="#282F36" fill-opacity=".5"/><rect x="59" y="31" width="77" height="6" rx="3" fill="#282F36" fill-opacity=".5"/><rect x="21" y="6" width="31" height="31" rx="3.052" fill="#282F36" fill-opacity=".5"/><g opacity=".5"><rect x="16" y="49" width="214.278" height="41.196" rx="2.392" fill="#fff"/><rect x="15.619" y="48.619" width="215.041" height="41.959" rx="2.774" stroke="#282F36" stroke-opacity=".2" stroke-width=".763"/><rect x="59" y="54" width="133" height="9" rx="3.052" fill="#C4C4C4"/><rect x="59" y="69" width="77" height="6" rx="3" fill="#C4C4C4"/><rect x="59" y="79" width="77" height="6" rx="3" fill="#C4C4C4"/><rect x="21" y="54" width="31" height="31" rx="3.052" fill="#C4C4C4"/></g><g opacity=".5"><rect x="16" y="97" width="214.278" height="41.196" rx="2.392" fill="#fff"/><rect x="15.619" y="96.619" width="215.041" height="41.959" rx="2.774" stroke="#282F36" stroke-opacity=".2" stroke-width=".763"/><rect x="59" y="102" width="133" height="9" rx="3.052" fill="#C4C4C4"/><rect x="59" y="117" width="77" height="6" rx="3" fill="#C4C4C4"/><rect x="59" y="127" width="77" height="6" rx="3" fill="#C4C4C4"/><rect x="21" y="102" width="31" height="31" rx="3.052" fill="#C4C4C4"/></g><path fill="url(#paint0_linear)" d="M0 85h242.598v79.34H0z"/><defs><linearGradient id="paint0_linear" x1="121.299" y1="85" x2="121.299" y2="141.072" gradientUnits="userSpaceOnUse"><stop stop-color="#fff" stop-opacity="0"/><stop offset="1" stop-color="#fff"/></linearGradient></defs></svg>