<svg width="592" height="243" fill="none" xmlns="http://www.w3.org/2000/svg"><g clip-path="url(#clip0)"><g filter="url(#filter0_d)"><g clip-path="url(#clip1)"><path d="M35 44.438A7.438 7.438 0 0142.438 37h507.124A7.438 7.438 0 01557 44.438V243H35V44.438z" fill="#fff"/><path fill="#fff" stroke="#9EA1A5" stroke-width=".486" stroke-dasharray="2.43 2.43" d="M66.35 114.204h459.302v31.106H66.35z"/><path fill="#fff" stroke="#9EA1A5" stroke-width=".486" stroke-dasharray="2.43 2.43" d="M71.21 119.064h100.609v21.386H71.21z"/><g opacity=".5" stroke="#282F36" stroke-width=".972" stroke-linecap="round" stroke-linejoin="round"><path d="M82.63 135.347a4.86 4.86 0 100-9.721 4.86 4.86 0 000 9.721zM82.631 128.542v3.888M80.686 130.486h3.889"/></g><path fill="#fff" stroke="#9EA1A5" stroke-width=".486" stroke-dasharray="2.43 2.43" d="M177.651 119.064h341.682v21.386H177.651z"/><g opacity=".5" clip-path="url(#clip2)" stroke="#282F36" stroke-width=".972" stroke-linecap="round" stroke-linejoin="round"><path d="M188.101 135.347a4.86 4.86 0 100-9.72 4.86 4.86 0 000 9.72zM188.101 128.542v3.888M186.157 130.486h3.888"/></g><path d="M525.408 113.961h13.123c.805 0 1.458.653 1.458 1.458v15.553c0 .805-.653 1.458-1.458 1.458h-13.123v-18.469z" fill="#4199FD"/><g clip-path="url(#clip3)" fill="#fff"><rect x="528.325" y="119.307" width="2.268" height="3.888" rx=".486"/><rect x="531.565" y="119.307" width="2.268" height="3.888" rx=".486"/><rect x="534.805" y="119.307" width="2.268" height="3.888" rx=".486"/><rect x="528.325" y="124.168" width="8.749" height="3.402" rx=".486"/></g><path fill="#fff" d="M66.106 148.47h459.788v31.592H66.106z"/><path fill="#F6F7FB" d="M70.967 153.329h101.095v21.872H70.967zM177.408 153.329h342.168v21.872H177.408z"/><path fill="#fff" d="M66.106 180.062h459.788v31.592H66.106z"/><path fill="#F6F7FB" d="M70.967 184.921h101.095v21.872H70.967zM177.408 184.921h342.168v21.872H177.408z"/><path fill="#fff" d="M66.106 211.654h459.788v31.592H66.106z"/><path fill="#F6F7FB" d="M70.967 216.516h101.095v21.872H70.967zM177.408 216.516h342.168v21.872H177.408z"/><path fill="#fff" stroke="#9EA1A5" stroke-width=".486" stroke-dasharray="2.43 2.43" d="M66.35 81.639h459.302v27.704H66.35z"/><g opacity=".5" clip-path="url(#clip4)" stroke="#282F36" stroke-width=".972" stroke-linecap="round" stroke-linejoin="round"><path d="M85.547 99.866a4.86 4.86 0 100-9.72 4.86 4.86 0 000 9.72zM85.548 93.061v3.889M83.603 95.006h3.888"/></g><path opacity=".5" d="M96.514 96.63l-.518-1.323h-1.67l-.512 1.324h-.49l1.646-4.18h.407l1.638 4.18h-.501zm-.67-1.76l-.484-1.29a6.918 6.918 0 01-.193-.6 5.407 5.407 0 01-.18.6l-.49 1.29h1.348zm3.797 1.342h-.026c-.218.317-.545.476-.98.476-.408 0-.726-.14-.954-.419-.225-.279-.338-.676-.338-1.19 0-.515.114-.914.341-1.2.228-.284.545-.426.951-.426.424 0 .748.153.974.461h.038l-.02-.225-.012-.22V92.2h.473v4.432h-.385l-.062-.419zm-.946.08c.323 0 .556-.087.7-.262.147-.177.22-.46.22-.852v-.1c0-.442-.074-.757-.222-.945-.146-.19-.38-.284-.703-.284a.726.726 0 00-.638.324c-.147.215-.22.519-.22.912 0 .398.074.7.22.902.146.203.36.305.643.305zm4.523-.08h-.026c-.218.317-.545.476-.98.476-.408 0-.726-.14-.954-.419-.226-.279-.339-.676-.339-1.19 0-.515.114-.914.342-1.2.228-.284.545-.426.951-.426.424 0 .748.153.974.461h.037l-.02-.225-.011-.22V92.2h.473v4.432h-.385l-.062-.419zm-.946.08c.323 0 .556-.087.701-.262.146-.177.219-.46.219-.852v-.1c0-.442-.074-.757-.222-.945-.146-.19-.381-.284-.704-.284a.725.725 0 00-.637.324c-.147.215-.22.519-.22.912 0 .398.073.7.22.902.146.203.36.305.643.305zm3.984-3.825h1.176c.553 0 .953.083 1.199.248.247.165.371.426.371.783a.91.91 0 01-.208.612c-.137.16-.337.264-.601.31v.03c.632.108.948.44.948.996 0 .372-.126.663-.379.872-.25.208-.601.313-1.053.313h-1.453v-4.164zm.484 1.783h.798c.342 0 .587-.053.737-.16.15-.108.225-.289.225-.543 0-.234-.083-.402-.25-.504-.167-.105-.433-.157-.798-.157h-.712v1.364zm0 .41v1.558h.869c.336 0 .589-.065.758-.194.17-.13.256-.335.256-.612 0-.258-.087-.448-.262-.57-.173-.121-.437-.182-.792-.182h-.829zm4.546 2.028c-.462 0-.826-.14-1.094-.422-.266-.28-.399-.67-.399-1.17 0-.503.124-.903.371-1.2.248-.295.581-.443.999-.443.391 0 .701.129.929.387.227.256.341.595.341 1.017v.299h-2.15c.01.366.102.644.276.834.177.19.425.285.744.285.336 0 .668-.07.996-.21v.42a2.408 2.408 0 01-.475.154 2.568 2.568 0 01-.538.049zm-.129-2.84c-.25 0-.45.082-.6.245-.149.164-.236.39-.262.678h1.631c0-.298-.066-.526-.199-.683-.133-.16-.323-.24-.57-.24zm3.492.029h-.795v2.754h-.472v-2.754h-.559v-.214l.559-.17v-.174c0-.767.335-1.15 1.005-1.15.165 0 .359.032.581.099l-.123.379a1.565 1.565 0 00-.467-.089c-.178 0-.31.06-.395.18-.086.118-.129.307-.129.57v.202h.795v.367zm3.264 1.19c0 .51-.129.907-.385 1.194-.256.284-.61.427-1.062.427-.279 0-.527-.066-.743-.197a1.296 1.296 0 01-.502-.564 1.975 1.975 0 01-.176-.86c0-.508.127-.904.381-1.187.255-.285.608-.427 1.06-.427.436 0 .783.145 1.039.435.258.29.388.684.388 1.18zm-2.378 0c0 .4.079.703.239.912.159.209.394.313.703.313.31 0 .544-.103.704-.31.161-.21.242-.514.242-.915 0-.396-.081-.697-.242-.902-.16-.207-.396-.31-.709-.31-.31 0-.543.1-.701.304-.158.203-.236.506-.236.908zm4.633-1.614c.139 0 .263.011.373.034l-.065.438a1.608 1.608 0 00-.342-.042.834.834 0 00-.649.307c-.179.205-.268.46-.268.766v1.675h-.473V93.51h.39l.054.578h.023c.116-.203.256-.36.419-.47a.942.942 0 01.538-.165zm2.276 3.235c-.462 0-.826-.14-1.094-.422-.266-.28-.399-.67-.399-1.17 0-.503.124-.903.37-1.2.249-.295.582-.443 1-.443.391 0 .701.129.928.387.228.256.342.595.342 1.017v.299h-2.15c.01.366.102.644.276.834.177.19.425.285.744.285.336 0 .668-.07.996-.21v.42a2.408 2.408 0 01-.475.154 2.568 2.568 0 01-.538.049zm-.129-2.84a.778.778 0 00-.601.245c-.148.164-.235.39-.262.678h1.632c0-.298-.066-.526-.199-.683-.133-.16-.323-.24-.57-.24zm5.454-1.008c-.458 0-.819.153-1.085.459-.264.304-.396.72-.396 1.25 0 .545.127.966.382 1.264.256.297.621.445 1.093.445.291 0 .622-.052.994-.157v.424c-.288.109-.644.163-1.068.163-.613 0-1.087-.186-1.421-.558-.332-.373-.498-.901-.498-1.587 0-.429.08-.805.239-1.127.161-.323.393-.572.695-.746.304-.175.661-.263 1.071-.263.436 0 .818.08 1.145.24l-.206.415a2.204 2.204 0 00-.945-.222zm4.52 2.227c0 .51-.129.907-.385 1.194-.256.284-.61.427-1.062.427-.279 0-.527-.066-.743-.197a1.296 1.296 0 01-.502-.564 1.975 1.975 0 01-.176-.86c0-.508.127-.904.381-1.187.255-.285.608-.427 1.06-.427.436 0 .783.145 1.039.435.258.29.388.684.388 1.18zm-2.378 0c0 .4.079.703.239.912.159.209.394.313.703.313.31 0 .544-.103.704-.31.161-.21.242-.514.242-.915 0-.396-.081-.697-.242-.902-.16-.207-.396-.31-.709-.31-.31 0-.543.1-.701.304-.158.203-.236.506-.236.908zm5.345 1.564v-2.02c0-.254-.058-.444-.174-.569-.116-.125-.297-.188-.544-.188-.326 0-.565.088-.717.265-.152.177-.228.468-.228.874v1.638h-.473V93.51h.385l.076.427h.023a.96.96 0 01.407-.356c.175-.086.37-.128.584-.128.376 0 .659.09.849.273.19.18.285.47.285.869v2.036h-.473zm2.455-.333a1.675 1.675 0 00.427-.057v.361a.833.833 0 01-.228.06 1.584 1.584 0 01-.267.026c-.604 0-.906-.318-.906-.954v-1.857h-.447v-.228l.447-.196.199-.667h.274v.724h.905v.367h-.905v1.837c0 .188.044.332.133.433.09.1.212.15.368.15zm2.372.39c-.461 0-.826-.14-1.093-.422-.266-.28-.399-.67-.399-1.17 0-.503.123-.903.37-1.2.249-.295.582-.443 1-.443.391 0 .7.129.928.387.228.256.342.595.342 1.017v.299h-2.15c.009.366.101.644.276.834.176.19.424.285.743.285.336 0 .668-.07.997-.21v.42a2.416 2.416 0 01-.476.154 2.561 2.561 0 01-.538.049zm-.128-2.84c-.251 0-.451.082-.601.245-.148.164-.235.39-.262.678h1.632c0-.298-.067-.526-.199-.683-.133-.16-.323-.24-.57-.24zm4.22 2.783v-2.02c0-.254-.057-.444-.173-.569-.116-.125-.297-.188-.544-.188-.327 0-.566.088-.718.265-.152.177-.228.468-.228.874v1.638h-.472V93.51h.384l.077.427h.023a.954.954 0 01.407-.356c.175-.086.369-.128.584-.128.376 0 .659.09.848.273.19.18.285.47.285.869v2.036h-.473zm2.455-.333a1.655 1.655 0 00.428-.057v.361a.854.854 0 01-.228.06 1.585 1.585 0 01-.268.026c-.604 0-.906-.318-.906-.954v-1.857h-.447v-.228l.447-.196.2-.667h.273v.724h.906v.367h-.906v1.837c0 .188.045.332.134.433.089.1.212.15.367.15z" fill="#282F36"/><g clip-path="url(#clip5)"><g clip-path="url(#clip6)"><path d="M85.223 61.712h-8.1l3.24 3.831v2.65l1.62.81v-3.46l3.24-3.831z" stroke="#4199FD" stroke-width=".729" stroke-linecap="round" stroke-linejoin="round"/></g><path d="M90.182 67.497h-.565V62.64h2.708v.501h-2.143v1.778h2.013v.502h-2.013v2.076zm3.419 0h-.552v-3.641h.552v3.641zm-.598-4.628c0-.126.03-.218.093-.276.062-.06.14-.09.232-.09.089 0 .165.03.23.09.064.06.096.152.096.276 0 .124-.032.217-.096.279a.325.325 0 01-.23.09.322.322 0 01-.232-.09c-.062-.062-.093-.155-.093-.28zm2.319 4.628h-.552v-5.17h.552v5.17zm2.345-.389c.098 0 .192-.006.283-.02.09-.015.163-.03.216-.046v.422a.977.977 0 01-.266.07c-.115.02-.22.03-.312.03-.705 0-1.057-.371-1.057-1.113v-2.167h-.522v-.266l.522-.229.233-.777h.319v.844h1.056v.428h-1.056v2.143c0 .22.052.388.156.505a.543.543 0 00.428.176zm2.768.456c-.538 0-.963-.164-1.276-.492-.31-.328-.465-.783-.465-1.366 0-.587.144-1.053.432-1.398.29-.346.679-.519 1.166-.519.457 0 .818.15 1.083.452.266.3.399.694.399 1.186v.349h-2.508c.01.428.118.752.322.974.206.221.495.332.867.332.392 0 .78-.082 1.163-.246v.492c-.195.084-.38.144-.555.179a2.994 2.994 0 01-.628.056zm-.149-3.313c-.293 0-.526.095-.701.286-.173.19-.275.454-.306.79h1.904c0-.347-.078-.613-.233-.797-.155-.186-.376-.279-.664-.279zm4.093-.462c.162 0 .307.014.435.04l-.076.512a1.887 1.887 0 00-.399-.05c-.295 0-.547.12-.758.359-.208.239-.312.537-.312.893v1.954h-.551v-3.641h.455l.063.674h.027c.135-.237.297-.42.488-.548.19-.129.4-.193.628-.193zm5.675 3.708h-2.708V62.64h2.708v.501h-2.143v1.565h2.013v.498h-2.013v1.788h2.143v.505zm3.488 0v-2.356c0-.296-.067-.518-.202-.664-.135-.146-.347-.22-.635-.22-.381 0-.66.104-.837.31-.177.206-.266.546-.266 1.02v1.91h-.552v-3.641h.449l.09.498h.026a1.12 1.12 0 01.475-.415c.204-.1.431-.15.682-.15.438 0 .768.106.99.32.221.21.332.547.332 1.013v2.375h-.552zm2.864-.389c.098 0 .192-.006.283-.02.091-.015.163-.03.216-.046v.422a.985.985 0 01-.266.07c-.115.02-.219.03-.312.03-.705 0-1.057-.371-1.057-1.113v-2.167h-.522v-.266l.522-.229.233-.777h.319v.844h1.056v.428h-1.056v2.143c0 .22.052.388.156.505a.543.543 0 00.428.176zm2.891-3.319c.162 0 .307.014.435.04l-.076.512a1.887 1.887 0 00-.399-.05c-.295 0-.547.12-.758.359-.208.239-.312.537-.312.893v1.954h-.551v-3.641h.455l.063.674h.027c.135-.237.297-.42.488-.548.19-.129.4-.193.628-.193zm1.668 3.708h-.552v-3.641h.552v3.641zm-.598-4.628c0-.126.031-.218.093-.276a.32.32 0 01.232-.09c.089 0 .165.03.23.09.064.06.096.152.096.276 0 .124-.032.217-.096.279a.327.327 0 01-.23.09.32.32 0 01-.232-.09c-.062-.062-.093-.155-.093-.28zm3.306 4.695c-.539 0-.964-.164-1.276-.492-.31-.328-.465-.783-.465-1.366 0-.587.144-1.053.432-1.398.29-.346.678-.519 1.166-.519.456 0 .817.15 1.083.452.266.3.399.694.399 1.186v.349h-2.509c.011.428.119.752.322.974.206.221.495.332.868.332.392 0 .779-.082 1.162-.246v.492a2.788 2.788 0 01-.554.179 3 3 0 01-.628.056zm-.15-3.313c-.292 0-.526.095-.701.286-.173.19-.275.454-.306.79h1.904c0-.347-.077-.613-.232-.797-.155-.186-.377-.279-.665-.279zm4.781 2.253c0 .338-.126.6-.379.784-.252.184-.607.276-1.063.276-.483 0-.859-.077-1.129-.23v-.511c.175.088.362.158.561.209.202.05.395.076.581.076.288 0 .51-.045.665-.136a.46.46 0 00.233-.422.45.45 0 00-.186-.362c-.122-.102-.362-.222-.718-.359-.339-.126-.58-.236-.724-.329a1.014 1.014 0 01-.319-.322.843.843 0 01-.103-.429c0-.296.12-.53.362-.7.241-.173.572-.26.993-.26.392 0 .775.08 1.15.24l-.196.448c-.366-.15-.697-.226-.994-.226-.261 0-.458.041-.591.123a.38.38 0 00-.199.339c0 .097.024.18.073.249a.753.753 0 00.242.196c.111.062.324.152.638.27.432.156.723.315.874.474.153.16.229.36.229.602z" fill="#4199FD"/><rect x="131.72" y="60.497" width="10.207" height="9.721" rx="4.86" fill="#4199FD"/><path d="M138.161 67.497h-3.193v-.475l1.28-1.286c.389-.394.646-.675.77-.844.124-.168.218-.332.28-.492.062-.159.093-.33.093-.515 0-.259-.079-.463-.236-.614-.158-.153-.376-.23-.655-.23-.201 0-.393.034-.575.1-.179.067-.38.187-.601.362l-.292-.375c.447-.372.934-.558 1.462-.558.456 0 .814.117 1.073.352.259.233.388.546.388.94 0 .308-.086.613-.259.914-.173.301-.496.682-.97 1.143l-1.063 1.04v.026h2.498v.512z" fill="#fff"/><path d="M177.246 65.357h-4.051M177.246 62.927h-6.481M177.246 67.788h-1.621" stroke="#4199FD" stroke-width=".729" stroke-linecap="round" stroke-linejoin="round"/><path d="M185.191 66.205c0 .427-.155.76-.466 1-.31.239-.73.359-1.262.359-.576 0-1.019-.075-1.329-.223v-.545c.199.084.416.15.651.2.235.048.467.073.698.073.376 0 .66-.071.85-.213a.706.706 0 00.286-.598.744.744 0 00-.103-.412.908.908 0 00-.339-.3 4.624 4.624 0 00-.721-.308c-.452-.162-.775-.353-.97-.575-.193-.221-.289-.51-.289-.867 0-.374.141-.672.422-.894.281-.221.653-.332 1.116-.332.483 0 .927.088 1.333.266l-.176.491a3.013 3.013 0 00-1.17-.252c-.299 0-.533.064-.701.192a.636.636 0 00-.252.535.83.83 0 00.093.416.899.899 0 00.312.295c.148.09.374.188.678.296.509.182.859.377 1.05.585.192.208.289.478.289.81zm4.053-.532c0 .594-.149 1.058-.448 1.392-.3.332-.713.499-1.24.499-.325 0-.614-.077-.867-.23a1.522 1.522 0 01-.585-.658 2.297 2.297 0 01-.206-1.003c0-.594.149-1.055.446-1.386.296-.332.708-.498 1.235-.498.51 0 .914.17 1.213.508.301.34.452.798.452 1.376zm-2.774 0c0 .465.093.82.279 1.063.186.244.459.366.821.366.361 0 .634-.121.82-.362.188-.244.283-.6.283-1.067 0-.463-.095-.814-.283-1.053-.186-.242-.462-.362-.827-.362-.361 0-.634.118-.817.355-.184.237-.276.59-.276 1.06zm5.405-1.884c.162 0 .307.014.436.04l-.077.512a1.87 1.87 0 00-.398-.05c-.295 0-.547.12-.758.359-.208.239-.312.537-.312.893v1.954h-.552v-3.641h.455l.064.674h.026c.135-.237.298-.42.489-.548.19-.129.399-.193.627-.193zm2.293 3.32c.097 0 .192-.007.282-.02.091-.016.163-.032.216-.047v.422a.966.966 0 01-.265.07c-.116.02-.22.03-.313.03-.704 0-1.056-.371-1.056-1.113v-2.167h-.522v-.266l.522-.229.232-.777h.319v.844h1.057v.428h-1.057v2.143c0 .22.052.388.156.505a.545.545 0 00.429.176zm5.788.388h-2.708V62.64h2.708v.501h-2.143v1.565h2.013v.498h-2.013v1.788h2.143v.505zm3.488 0v-2.356c0-.296-.067-.518-.202-.664-.135-.146-.347-.22-.635-.22-.381 0-.66.104-.837.31-.177.206-.266.546-.266 1.02v1.91h-.551v-3.641h.448l.09.498h.026a1.12 1.12 0 01.475-.415c.204-.1.431-.15.682-.15.438 0 .768.106.99.32.221.21.332.547.332 1.013v2.375h-.552zm2.864-.389c.098 0 .192-.006.283-.02.091-.015.163-.03.216-.046v.422a.985.985 0 01-.266.07c-.115.02-.219.03-.312.03-.705 0-1.057-.371-1.057-1.113v-2.167h-.522v-.266l.522-.229.233-.777h.319v.844h1.056v.428h-1.056v2.143c0 .22.052.388.156.505a.543.543 0 00.428.176zm2.891-3.319c.162 0 .307.014.435.04l-.076.512a1.887 1.887 0 00-.399-.05.973.973 0 00-.757.359c-.209.239-.313.537-.313.893v1.954h-.551v-3.641h.455l.063.674h.027c.135-.237.298-.42.488-.548a1.1 1.1 0 01.628-.193zm1.668 3.708h-.552v-3.641h.552v3.641zm-.598-4.628c0-.126.031-.218.093-.276a.32.32 0 01.232-.09c.089 0 .165.03.23.09.064.06.096.152.096.276 0 .124-.032.217-.096.279a.327.327 0 01-.23.09.32.32 0 01-.232-.09c-.062-.062-.093-.155-.093-.28zm3.306 4.695c-.539 0-.964-.164-1.276-.492-.31-.328-.465-.783-.465-1.366 0-.587.144-1.053.432-1.398.29-.346.679-.519 1.166-.519.456 0 .817.15 1.083.452.266.3.399.694.399 1.186v.349h-2.509c.011.428.119.752.322.974.206.221.496.332.868.332.392 0 .779-.082 1.162-.246v.492a2.788 2.788 0 01-.554.179 2.994 2.994 0 01-.628.056zm-.15-3.313c-.292 0-.526.095-.701.286-.173.19-.275.454-.306.79h1.904c0-.347-.077-.613-.232-.797-.155-.186-.377-.279-.665-.279zm4.781 2.253c0 .338-.126.6-.379.784-.252.184-.606.276-1.063.276-.483 0-.859-.077-1.129-.23v-.511c.175.088.362.158.561.209.202.05.396.076.582.076.288 0 .509-.045.664-.136a.46.46 0 00.233-.422.45.45 0 00-.186-.362c-.122-.102-.361-.222-.718-.359-.339-.126-.58-.236-.724-.329a1.024 1.024 0 01-.319-.322.843.843 0 01-.103-.429c0-.296.12-.53.362-.7.241-.173.572-.26.993-.26.392 0 .775.08 1.15.24l-.196.448c-.366-.15-.697-.226-.994-.226-.261 0-.458.041-.591.123a.38.38 0 00-.199.339c0 .097.024.18.073.249a.764.764 0 00.242.196c.111.062.324.152.638.27.432.156.723.315.874.474.153.16.229.36.229.602z" fill="#4199FD"/><rect x="221.637" y="60.497" width="10.207" height="9.721" rx="4.86" fill="#4199FD"/><path d="M226.928 67.497h-.538v-3.462c0-.288.009-.56.027-.817a3.645 3.645 0 01-.157.146c-.057.05-.321.267-.79.648l-.293-.379 1.286-.993h.465v4.857z" fill="#fff"/></g><path d="M480.389 67.497V62.64h.564v4.345h2.143v.512h-2.707zm5.691 0l-.11-.518h-.026c-.182.228-.364.383-.545.465-.18.08-.404.12-.675.12-.361 0-.644-.093-.85-.28-.204-.186-.306-.45-.306-.794 0-.735.588-1.12 1.764-1.156l.618-.02v-.226c0-.285-.062-.496-.186-.631-.122-.137-.318-.206-.588-.206-.303 0-.647.093-1.03.28l-.169-.423c.179-.097.375-.174.588-.23.215-.054.43-.082.644-.082.435 0 .756.096.964.289.21.193.316.502.316.927v2.485h-.409zm-1.246-.389c.343 0 .612-.094.807-.282.198-.188.296-.452.296-.79v-.33l-.551.023c-.439.016-.756.085-.951.207-.192.12-.289.306-.289.561 0 .2.06.351.18.455.122.104.291.156.508.156zm2.216-3.252h.592l.797 2.076c.175.474.283.816.326 1.027h.026c.029-.113.089-.306.18-.578.093-.275.394-1.117.903-2.525h.592l-1.565 4.146c-.155.41-.337.7-.545.87-.206.173-.46.26-.761.26-.168 0-.334-.02-.498-.057v-.442c.121.027.258.04.408.04.379 0 .649-.212.811-.638l.203-.518-1.469-3.661zm7.15 1.817c0 .594-.149 1.058-.448 1.392-.299.332-.713.499-1.24.499-.325 0-.614-.077-.867-.23a1.522 1.522 0 01-.585-.658 2.297 2.297 0 01-.206-1.003c0-.594.149-1.055.446-1.386.296-.332.708-.498 1.236-.498.509 0 .913.17 1.212.508.302.34.452.798.452 1.376zm-2.774 0c0 .465.093.82.279 1.063.186.244.46.366.821.366.361 0 .634-.121.82-.362.189-.244.283-.6.283-1.067 0-.463-.094-.814-.283-1.053-.186-.242-.462-.362-.827-.362-.361 0-.634.118-.817.355-.184.237-.276.59-.276 1.06zm4.263-1.817v2.362c0 .297.067.518.202.664.135.147.347.22.635.22.381 0 .659-.104.834-.313.177-.208.266-.548.266-1.02v-1.913h.551v3.641h-.455l-.08-.488h-.03a1.1 1.1 0 01-.471.412c-.2.095-.428.142-.685.142-.443 0-.775-.105-.997-.315-.219-.21-.329-.547-.329-1.01v-2.382h.559zm4.837 3.252c.098 0 .192-.006.283-.02.09-.015.162-.03.216-.046v.422a.985.985 0 01-.266.07c-.115.02-.22.03-.313.03-.704 0-1.056-.371-1.056-1.113v-2.167h-.522v-.266l.522-.229.232-.777h.319v.844h1.057v.428h-1.057v2.143c0 .22.052.388.157.505a.543.543 0 00.428.176zm4.692-3.312c.478 0 .849.164 1.113.491.265.326.398.788.398 1.386 0 .598-.134 1.063-.402 1.395-.266.33-.635.496-1.109.496-.237 0-.455-.044-.652-.13a1.229 1.229 0 01-.491-.405h-.04l-.117.468h-.395v-5.17h.552v1.256c0 .282-.009.534-.027.758h.027c.257-.364.638-.545 1.143-.545zm-.08.462c-.377 0-.648.108-.814.325-.166.215-.249.578-.249 1.09 0 .512.085.878.255 1.1.171.22.445.329.821.329.339 0 .591-.123.758-.37.166-.247.249-.603.249-1.066 0-.474-.083-.827-.249-1.06-.167-.232-.423-.348-.771-.348zm3.076-.402v2.362c0 .297.068.518.203.664.135.147.347.22.635.22.381 0 .659-.104.834-.313.177-.208.265-.548.265-1.02v-1.913h.552v3.641h-.455l-.08-.488h-.03c-.113.18-.27.316-.472.412a1.567 1.567 0 01-.684.142c-.443 0-.775-.105-.997-.315-.219-.21-.329-.547-.329-1.01v-2.382h.558zm4.213 3.641h-.551v-3.641h.551v3.641zm-.598-4.628c0-.126.031-.218.093-.276.062-.06.14-.09.233-.09.088 0 .165.03.229.09s.097.152.097.276c0 .124-.033.217-.097.279a.325.325 0 01-.229.09.323.323 0 01-.233-.09c-.062-.062-.093-.155-.093-.28zm2.319 4.628h-.551v-5.17h.551v5.17zm3.648-.488h-.029c-.255.37-.636.555-1.143.555-.477 0-.848-.163-1.113-.489-.264-.326-.396-.788-.396-1.389 0-.6.133-1.066.399-1.399.266-.332.636-.498 1.11-.498.494 0 .872.18 1.136.538h.043l-.023-.262-.013-.256v-1.482h.551v5.17h-.448l-.074-.488zm-1.103.093c.377 0 .649-.102.818-.306.17-.206.256-.537.256-.993v-.117c0-.516-.087-.884-.26-1.103-.17-.221-.444-.332-.82-.332-.324 0-.572.126-.744.379-.171.25-.256.605-.256 1.063 0 .465.085.816.256 1.053.17.237.42.356.75.356zm4.336.462c-.538 0-.963-.164-1.276-.492-.31-.328-.465-.783-.465-1.366 0-.587.144-1.053.432-1.398.29-.346.679-.519 1.166-.519.457 0 .818.15 1.084.452.265.3.398.694.398 1.186v.349h-2.508c.011.428.118.752.322.974.206.221.495.332.867.332.392 0 .78-.082 1.163-.246v.492c-.195.084-.38.144-.555.179a2.994 2.994 0 01-.628.056zm-.149-3.313c-.293 0-.526.095-.701.286-.173.19-.275.454-.306.79h1.904c0-.347-.078-.613-.233-.797-.155-.186-.376-.279-.664-.279zm4.093-.462c.162 0 .307.014.435.04l-.076.512a1.887 1.887 0 00-.399-.05.975.975 0 00-.757.359c-.209.239-.313.537-.313.893v1.954h-.551v-3.641h.455l.063.674h.027c.135-.237.298-.42.488-.548a1.1 1.1 0 01.628-.193z" fill="#4199FD"/></g></g><g filter="url(#filter1_d)"><path d="M61 78.29a4.256 4.256 0 014.256-4.256h360.488A4.256 4.256 0 01430 78.29V284.71a4.256 4.256 0 01-4.256 4.256H65.256A4.256 4.256 0 0161 284.709V78.29z" fill="#fff"/><path fill="#fff" stroke="#9EA1A5" stroke-width=".426" stroke-dasharray="2.13 2.13" d="M78.237 131.704h321.332v72.778H78.237z"/><g clip-path="url(#clip7)" stroke="#4199FD" stroke-width=".638" stroke-linecap="round" stroke-linejoin="round"><path d="M390.468 149.793c2.167 0 3.924-1.715 3.924-3.831 0-2.115-1.757-3.83-3.924-3.83-2.168 0-3.925 1.715-3.925 3.83 0 2.116 1.757 3.831 3.925 3.831zM388.723 145.962h3.489"/></g><rect x="84.883" y="139.578" width="89.09" height="12.768" rx="1.277" fill="#fff"/><rect x="84.671" y="139.365" width="89.516" height="13.194" rx="1.49" stroke="#282F36" stroke-opacity=".2" stroke-width=".426"/><path d="M91.65 146.133c0 .374-.136.666-.408.876-.271.209-.64.314-1.105.314-.505 0-.892-.065-1.164-.195v-.477c.174.073.365.132.57.174.206.043.41.064.611.064.33 0 .578-.062.745-.186a.62.62 0 00.25-.524.653.653 0 00-.09-.36.798.798 0 00-.297-.262 4.038 4.038 0 00-.631-.271c-.396-.141-.679-.309-.85-.503-.168-.194-.253-.447-.253-.759 0-.328.123-.589.37-.783.246-.194.572-.291.977-.291.423 0 .812.078 1.167.233l-.154.43a2.644 2.644 0 00-1.024-.221c-.262 0-.467.056-.614.169a.556.556 0 00-.221.468c0 .148.027.269.081.364a.792.792 0 00.274.259c.13.078.327.164.593.259.446.159.753.33.92.512.168.182.253.419.253.71zm2.144 1.19c-.471 0-.844-.144-1.117-.431-.272-.287-.408-.685-.408-1.196 0-.514.126-.922.378-1.224.255-.303.595-.454 1.022-.454.4 0 .716.132.948.395.233.262.35.608.35 1.039v.306H92.77c.01.374.104.658.282.852.18.194.433.291.76.291.343 0 .682-.072 1.018-.215v.43c-.171.074-.333.126-.486.157-.152.033-.335.05-.55.05zm-.131-2.901a.796.796 0 00-.614.25c-.151.167-.24.398-.268.693h1.667c0-.305-.067-.537-.203-.698-.136-.163-.33-.245-.582-.245zm2.613 2.843h-.483v-4.527h.483v4.527zm2.37.058c-.47 0-.843-.144-1.117-.431-.271-.287-.407-.685-.407-1.196 0-.514.126-.922.378-1.224.254-.303.595-.454 1.022-.454.4 0 .715.132.948.395.233.262.35.608.35 1.039v.306h-2.197c.01.374.103.658.282.852.18.194.433.291.76.291.342 0 .682-.072 1.017-.215v.43c-.17.074-.332.126-.485.157-.152.033-.335.05-.55.05zm-.13-2.901a.796.796 0 00-.614.25c-.151.167-.24.398-.268.693h1.667c0-.305-.067-.537-.203-.698-.136-.163-.33-.245-.582-.245zm3.404 2.901c-.462 0-.82-.142-1.074-.425-.252-.285-.378-.688-.378-1.207 0-.534.128-.946.384-1.237.258-.291.625-.436 1.1-.436.153 0 .306.016.46.049.153.033.273.072.36.117l-.148.41a2.131 2.131 0 00-.349-.105 1.52 1.52 0 00-.335-.044c-.648 0-.972.414-.972 1.24 0 .392.079.692.236.902.159.209.394.314.704.314.266 0 .538-.057.818-.172v.428c-.214.111-.482.166-.806.166zm2.595-.399c.085 0 .168-.006.247-.017.08-.014.143-.027.189-.041v.37a.881.881 0 01-.232.061 1.667 1.667 0 01-.274.026c-.617 0-.925-.325-.925-.975v-1.897h-.457v-.233l.457-.2.204-.681h.279v.739h.925v.375h-.925v1.877c0 .192.046.339.137.442a.474.474 0 00.375.154zm3.192.341h-.495v-4.254h2.371v.439h-1.876v1.557h1.763v.439h-1.763v1.819zm2.993 0h-.483v-3.189h.483v3.189zm-.523-4.053c0-.111.027-.191.081-.242a.284.284 0 01.204-.078c.077 0 .144.026.201.078.056.053.084.133.084.242 0 .108-.028.19-.084.244a.285.285 0 01-.201.079.28.28 0 01-.204-.079c-.054-.054-.081-.136-.081-.244zm2.895 4.111c-.472 0-.844-.144-1.118-.431-.271-.287-.407-.685-.407-1.196 0-.514.126-.922.378-1.224.254-.303.595-.454 1.022-.454.399 0 .715.132.948.395.233.262.349.608.349 1.039v.306h-2.196c.009.374.103.658.282.852.18.194.433.291.759.291.343 0 .683-.072 1.018-.215v.43a2.418 2.418 0 01-1.035.207zm-.131-2.901a.796.796 0 00-.614.25c-.151.167-.241.398-.268.693h1.667c0-.305-.068-.537-.203-.698-.136-.163-.33-.245-.582-.245zm2.612 2.843h-.483v-4.527h.483v4.527zm3.195-.428h-.026c-.223.324-.557.486-1.001.486-.417 0-.742-.143-.975-.428-.231-.285-.346-.69-.346-1.216s.116-.934.349-1.225c.233-.291.557-.436.972-.436.432 0 .764.157.995.471h.038l-.021-.23-.011-.224v-1.297h.483v4.527h-.393l-.064-.428zm-.966.081c.33 0 .568-.089.716-.267.149-.181.224-.471.224-.87v-.102c0-.452-.076-.774-.227-.966-.15-.194-.389-.291-.719-.291-.283 0-.5.111-.652.332-.149.219-.224.529-.224.931 0 .407.075.715.224.922.15.208.369.311.658.311z" fill="#545F6E"/><path d="M165.273 144.686l2.128 2.128 2.128-2.128" stroke="#474D54" stroke-width=".851" stroke-linecap="round" stroke-linejoin="round"/><rect x="178.089" y="139.578" width="88.668" height="12.768" rx="1.277" fill="#fff"/><rect x="177.876" y="139.365" width="89.093" height="13.194" rx="1.49" stroke="#282F36" stroke-opacity=".2" stroke-width=".426"/><path d="M184.328 145.036h1.446v2.069a4.764 4.764 0 01-.687.163 5.338 5.338 0 01-.809.055c-.644 0-1.145-.191-1.504-.573-.359-.384-.538-.922-.538-1.612 0-.442.088-.829.265-1.161.178-.334.434-.588.768-.762.333-.177.724-.265 1.172-.265.454 0 .877.083 1.269.25l-.192.437a2.836 2.836 0 00-1.109-.245c-.518 0-.922.154-1.213.463-.291.308-.437.736-.437 1.283 0 .574.14 1.009.419 1.306.282.297.694.445 1.237.445.295 0 .583-.034.864-.101v-1.31h-.951v-.442zm3.852-1.018c.141 0 .268.011.381.035l-.067.448a1.653 1.653 0 00-.349-.044.858.858 0 00-.664.314c-.182.21-.273.471-.273.783v1.711h-.483v-3.189h.399l.055.591h.023c.118-.208.261-.368.428-.481a.966.966 0 01.55-.168zm2.938 3.247l-.096-.454h-.023c-.159.2-.318.335-.477.407-.157.07-.354.105-.591.105-.316 0-.564-.082-.745-.245-.178-.162-.267-.394-.267-.695 0-.644.515-.981 1.545-1.012l.541-.018v-.198c0-.25-.055-.434-.163-.552-.107-.121-.279-.181-.515-.181-.266 0-.567.082-.902.245l-.148-.37a2.31 2.31 0 011.079-.273c.38 0 .661.084.844.253.184.168.276.439.276.811v2.177h-.358zm-1.091-.341c.301 0 .536-.082.707-.247.173-.165.259-.396.259-.692v-.289l-.483.021c-.384.013-.661.074-.832.18-.169.105-.253.269-.253.492 0 .174.052.307.157.399.107.091.255.136.445.136zm3.477 0c.085 0 .168-.006.247-.017.08-.014.143-.027.189-.041v.37a.881.881 0 01-.232.061 1.667 1.667 0 01-.274.026c-.617 0-.925-.325-.925-.975v-1.897h-.457v-.233l.457-.2.204-.681h.279v.739h.925v.375h-.925v1.877c0 .192.045.339.137.442a.474.474 0 00.375.154zm2.423.399c-.471 0-.843-.144-1.117-.431-.271-.287-.407-.685-.407-1.196 0-.514.126-.922.378-1.224.254-.303.595-.454 1.021-.454.4 0 .716.132.949.395.233.262.349.608.349 1.039v.306h-2.197c.01.374.104.658.283.852.18.194.433.291.759.291.343 0 .683-.072 1.018-.215v.43a2.418 2.418 0 01-1.036.207zm-.13-2.901c-.257 0-.461.084-.614.25-.152.167-.241.398-.268.693h1.667c0-.305-.068-.537-.204-.698-.135-.163-.329-.245-.581-.245zm3.584-.404c.142 0 .269.011.381.035l-.067.448a1.653 1.653 0 00-.349-.044.854.854 0 00-.663.314c-.183.21-.274.471-.274.783v1.711h-.483v-3.189h.399l.055.591h.023c.119-.208.261-.368.428-.481a.966.966 0 01.55-.168zm3.555 2.906c.086 0 .168-.006.248-.017.079-.014.142-.027.189-.041v.37a.89.89 0 01-.233.061 1.667 1.667 0 01-.274.026c-.616 0-.925-.325-.925-.975v-1.897h-.457v-.233l.457-.2.204-.681h.279v.739h.925v.375h-.925v1.877c0 .192.046.339.137.442a.474.474 0 00.375.154zm3.259.341v-2.063c0-.26-.059-.454-.178-.582-.118-.128-.303-.192-.555-.192-.336 0-.581.091-.736.273-.154.183-.23.481-.23.897v1.667h-.483v-4.527h.483v1.37c0 .165-.008.302-.024.41h.029a.99.99 0 01.405-.361c.176-.089.377-.133.602-.133.39 0 .682.093.876.279.196.184.294.478.294.881v2.081h-.483zm3.439 0l-.096-.454h-.024c-.159.2-.318.335-.477.407-.157.07-.354.105-.59.105-.317 0-.565-.082-.745-.245-.179-.162-.268-.394-.268-.695 0-.644.515-.981 1.545-1.012l.541-.018v-.198c0-.25-.054-.434-.163-.552-.106-.121-.278-.181-.515-.181-.265 0-.566.082-.902.245l-.148-.37a2.319 2.319 0 011.079-.273c.381 0 .662.084.844.253.184.168.277.439.277.811v2.177h-.358zm-1.091-.341c.3 0 .536-.082.707-.247.172-.165.259-.396.259-.692v-.289l-.483.021c-.384.013-.662.074-.832.18-.169.105-.254.269-.254.492 0 .174.053.307.158.399.106.091.255.136.445.136zm4.629.341v-2.063c0-.26-.06-.454-.178-.582-.118-.128-.303-.192-.556-.192-.333 0-.578.09-.733.271-.155.18-.233.478-.233.893v1.673h-.483v-3.189h.393l.079.436h.023a.977.977 0 01.416-.363c.179-.088.377-.131.597-.131.384 0 .673.093.867.279.194.184.29.48.29.887v2.081h-.482zm5.778-1.598c0 .52-.131.927-.393 1.219-.262.291-.624.437-1.085.437-.285 0-.539-.067-.76-.201a1.326 1.326 0 01-.512-.576 2.01 2.01 0 01-.18-.879c0-.519.13-.924.39-1.213.26-.291.62-.436 1.082-.436.446 0 .8.148 1.062.445.264.297.396.698.396 1.204zm-2.43 0c0 .408.082.718.245.931.163.214.402.32.718.32.316 0 .556-.105.719-.317.165-.213.247-.524.247-.934 0-.405-.082-.712-.247-.922-.163-.211-.405-.317-.725-.317-.316 0-.554.104-.715.311-.161.208-.242.517-.242.928zm4.734-1.649c.141 0 .269.011.381.035l-.067.448a1.653 1.653 0 00-.349-.044.854.854 0 00-.663.314c-.183.21-.274.471-.274.783v1.711h-.483v-3.189h.399l.055.591h.023c.119-.208.261-.368.428-.481a.966.966 0 01.55-.168zm3.872 3.305c-.471 0-.843-.144-1.117-.431-.271-.287-.407-.685-.407-1.196 0-.514.126-.922.378-1.224.254-.303.594-.454 1.021-.454.4 0 .716.132.949.395.232.262.349.608.349 1.039v.306h-2.197c.01.374.104.658.282.852.181.194.434.291.76.291.343 0 .683-.072 1.018-.215v.43a2.459 2.459 0 01-.486.157c-.151.033-.334.05-.55.05zm-.131-2.901a.794.794 0 00-.613.25c-.152.167-.241.398-.268.693h1.667c0-.305-.068-.537-.204-.698-.136-.163-.329-.245-.582-.245zm3.335 2.496c.322 0 .556-.086.704-.259.147-.172.226-.463.235-.872v-.108c0-.446-.075-.767-.227-.963-.151-.196-.39-.294-.718-.294a.743.743 0 00-.652.332c-.149.219-.224.529-.224.931 0 .401.074.708.221.919.149.21.37.314.661.314zm-.073.405c-.411 0-.732-.145-.963-.434-.231-.289-.346-.692-.346-1.21 0-.522.116-.929.349-1.222.232-.293.556-.439.971-.439.437 0 .772.165 1.007.494h.026l.07-.436h.381v4.62h-.483v-1.364c0-.194.011-.359.032-.495h-.038c-.223.324-.558.486-1.006.486zm2.976-3.247v2.069c0 .259.059.453.178.581.118.128.303.192.555.192.334 0 .577-.091.731-.273.155-.182.232-.48.232-.893v-1.676h.483v3.189h-.398l-.07-.428h-.026a.97.97 0 01-.413.361 1.384 1.384 0 01-.6.125c-.388 0-.679-.092-.873-.277-.192-.184-.288-.479-.288-.884v-2.086h.489zm5.167 3.189l-.096-.454h-.023c-.159.2-.318.335-.477.407-.157.07-.354.105-.591.105-.316 0-.564-.082-.745-.245-.178-.162-.267-.394-.267-.695 0-.644.515-.981 1.545-1.012l.541-.018v-.198c0-.25-.054-.434-.163-.552-.107-.121-.278-.181-.515-.181-.266 0-.566.082-.902.245l-.148-.37a2.3 2.3 0 011.079-.273c.38 0 .661.084.844.253.184.168.276.439.276.811v2.177h-.358zm-1.091-.341c.301 0 .537-.082.707-.247.173-.165.259-.396.259-.692v-.289l-.483.021c-.384.013-.661.074-.832.18-.169.105-.253.269-.253.492 0 .174.052.307.157.399.107.091.255.136.445.136zm2.93.341h-.483v-4.527h.483v4.527zm3.602-.341c.085 0 .168-.006.247-.017.08-.014.143-.027.189-.041v.37a.881.881 0 01-.232.061 1.667 1.667 0 01-.274.026c-.617 0-.925-.325-.925-.975v-1.897h-.457v-.233l.457-.2.204-.681h.279v.739h.925v.375h-.925v1.877c0 .192.045.339.137.442a.474.474 0 00.375.154zm3.829-1.257c0 .52-.131.927-.393 1.219-.262.291-.624.437-1.085.437-.285 0-.539-.067-.76-.201a1.332 1.332 0 01-.512-.576 2.01 2.01 0 01-.18-.879c0-.519.13-.924.39-1.213.26-.291.62-.436 1.082-.436.446 0 .8.148 1.062.445.264.297.396.698.396 1.204zm-2.43 0c0 .408.082.718.245.931.163.214.402.32.718.32.316 0 .556-.105.719-.317.165-.213.247-.524.247-.934 0-.405-.082-.712-.247-.922-.163-.211-.404-.317-.724-.317-.317 0-.555.104-.716.311-.161.208-.242.517-.242.928z" fill="#545F6E"/><path d="M258.055 144.686l2.128 2.128 2.128-2.128" stroke="#474D54" stroke-width=".851" stroke-linecap="round" stroke-linejoin="round"/><rect x="270.986" y="139.578" width="110.201" height="12.768" rx="1.277" fill="#fff"/><rect x="270.773" y="139.365" width="110.627" height="13.194" rx="1.49" stroke="#282F36" stroke-opacity=".2" stroke-width=".426"/><path d="M277.61 147.265h-2.371v-4.254h2.371v.439h-1.877v1.371h1.763v.436h-1.763v1.565h1.877v.443zm3.055 0v-2.063c0-.26-.06-.454-.178-.582-.118-.128-.303-.192-.556-.192-.333 0-.578.09-.733.271-.155.18-.232.478-.232.893v1.673h-.483v-3.189h.392l.079.436h.023a.977.977 0 01.416-.363c.179-.088.377-.131.597-.131.384 0 .673.093.867.279.194.184.291.48.291.887v2.081h-.483zm2.508-.341c.085 0 .167-.006.247-.017.079-.014.142-.027.189-.041v.37a.88.88 0 01-.233.061 1.665 1.665 0 01-.273.026c-.617 0-.925-.325-.925-.975v-1.897h-.457v-.233l.457-.2.203-.681h.28v.739h.925v.375h-.925v1.877c0 .192.045.339.136.442a.476.476 0 00.376.154zm2.423.399c-.471 0-.844-.144-1.117-.431-.272-.287-.407-.685-.407-1.196 0-.514.126-.922.378-1.224.254-.303.594-.454 1.021-.454.4 0 .716.132.948.395.233.262.35.608.35 1.039v.306h-2.197c.01.374.104.658.282.852.181.194.434.291.76.291.343 0 .682-.072 1.018-.215v.43a2.459 2.459 0 01-.486.157 2.62 2.62 0 01-.55.05zm-.131-2.901a.797.797 0 00-.614.25c-.151.167-.24.398-.267.693h1.667c0-.305-.068-.537-.204-.698-.136-.163-.33-.245-.582-.245zm3.585-.404c.141 0 .268.011.381.035l-.067.448a1.653 1.653 0 00-.349-.044.858.858 0 00-.664.314c-.182.21-.273.471-.273.783v1.711h-.483v-3.189h.398l.056.591h.023c.118-.208.261-.368.428-.481a.966.966 0 01.55-.168zm3.223 3.247l-1.21-3.189h.518l.686 1.891c.156.442.247.729.274.861h.023c.021-.103.088-.315.201-.637.114-.324.369-1.029.765-2.115h.518l-1.21 3.189h-.565zm4.248 0l-.096-.454h-.023c-.159.2-.318.335-.477.407-.158.07-.354.105-.591.105-.316 0-.565-.082-.745-.245-.178-.162-.268-.394-.268-.695 0-.644.515-.981 1.545-1.012l.541-.018v-.198c0-.25-.054-.434-.162-.552-.107-.121-.279-.181-.515-.181-.266 0-.567.082-.902.245l-.149-.37a2.319 2.319 0 011.08-.273c.38 0 .661.084.843.253.185.168.277.439.277.811v2.177h-.358zm-1.091-.341c.301 0 .536-.082.707-.247.173-.165.259-.396.259-.692v-.289l-.483.021c-.384.013-.662.074-.832.18-.169.105-.253.269-.253.492 0 .174.052.307.157.399.106.091.255.136.445.136zm2.93.341h-.483v-4.527h.483v4.527zm1.478-3.189v2.069c0 .259.059.453.177.581.118.128.304.192.556.192.333 0 .577-.091.73-.273.155-.182.233-.48.233-.893v-1.676h.483v3.189h-.399l-.07-.428h-.026a.963.963 0 01-.413.361 1.377 1.377 0 01-.599.125c-.388 0-.679-.092-.873-.277-.192-.184-.288-.479-.288-.884v-2.086h.489zm4.553 3.247c-.471 0-.844-.144-1.117-.431-.272-.287-.408-.685-.408-1.196 0-.514.126-.922.379-1.224.254-.303.594-.454 1.021-.454.399 0 .716.132.948.395.233.262.349.608.349 1.039v.306h-2.196c.01.374.104.658.282.852.18.194.434.291.759.291a2.58 2.58 0 001.019-.215v.43a2.459 2.459 0 01-.486.157 2.62 2.62 0 01-.55.05zm-.131-2.901a.796.796 0 00-.614.25c-.151.167-.24.398-.268.693h1.668c0-.305-.068-.537-.204-.698-.136-.163-.33-.245-.582-.245z" fill="#545F6E"/><g clip-path="url(#clip8)" stroke="#4199FD" stroke-width=".638" stroke-linecap="round" stroke-linejoin="round"><path d="M390.468 172.775c2.167 0 3.924-1.715 3.924-3.83 0-2.116-1.757-3.831-3.924-3.831-2.168 0-3.925 1.715-3.925 3.831 0 2.115 1.757 3.83 3.925 3.83zM388.723 168.944h3.489"/></g><rect x="117.481" y="162.561" width="56.578" height="12.768" rx="1.277" fill="#fff"/><rect x="117.269" y="162.348" width="57.004" height="13.194" rx="1.49" stroke="#282F36" stroke-opacity=".2" stroke-width=".426"/><path d="M124.421 169.116c0 .375-.136.667-.407.876-.272.209-.64.314-1.106.314-.504 0-.892-.065-1.164-.195v-.477c.175.074.365.132.571.175.205.042.409.064.611.064.329 0 .578-.062.744-.186a.622.622 0 00.251-.524.646.646 0 00-.091-.361.807.807 0 00-.296-.262 4.145 4.145 0 00-.632-.27c-.395-.142-.678-.31-.849-.504-.169-.194-.253-.447-.253-.759 0-.328.123-.589.369-.783.247-.194.572-.291.978-.291.423 0 .811.078 1.166.233l-.154.431a2.624 2.624 0 00-1.024-.221c-.262 0-.466.056-.614.168a.559.559 0 00-.221.469c0 .147.027.268.082.363a.77.77 0 00.273.259c.13.078.328.164.594.259.446.159.752.33.919.512.169.183.253.419.253.71zm2.144 1.19c-.471 0-.843-.143-1.117-.43-.271-.287-.407-.686-.407-1.196 0-.514.126-.922.378-1.225.254-.303.595-.454 1.021-.454.4 0 .716.132.949.396.232.262.349.608.349 1.038v.306h-2.197c.01.374.104.658.282.852.181.194.434.291.76.291.343 0 .683-.071 1.018-.215v.431a2.527 2.527 0 01-.486.157 2.62 2.62 0 01-.55.049zm-.131-2.9c-.256 0-.46.083-.613.25-.152.167-.241.397-.268.692h1.667c0-.304-.068-.537-.204-.698-.135-.163-.329-.244-.582-.244zm2.613 2.842h-.483v-4.527h.483v4.527zm2.371.058c-.471 0-.843-.143-1.117-.43-.272-.287-.407-.686-.407-1.196 0-.514.126-.922.378-1.225.254-.303.594-.454 1.021-.454.4 0 .716.132.949.396.232.262.349.608.349 1.038v.306h-2.197c.01.374.104.658.282.852.181.194.434.291.76.291.343 0 .682-.071 1.018-.215v.431a2.527 2.527 0 01-.486.157 2.62 2.62 0 01-.55.049zm-.131-2.9c-.256 0-.46.083-.614.25-.151.167-.24.397-.267.692h1.667c0-.304-.068-.537-.204-.698-.136-.163-.33-.244-.582-.244zm3.404 2.9c-.461 0-.819-.141-1.073-.425-.252-.285-.378-.687-.378-1.207 0-.533.128-.946.384-1.236.258-.291.624-.437 1.099-.437.154 0 .307.017.46.05.153.033.273.071.361.116l-.149.41a2.311 2.311 0 00-.349-.105 1.505 1.505 0 00-.334-.043c-.648 0-.972.413-.972 1.239 0 .392.078.693.236.902.159.21.393.314.704.314.265 0 .538-.057.817-.171v.427c-.213.111-.482.166-.806.166zm2.596-.398a1.66 1.66 0 00.436-.059v.37a.842.842 0 01-.233.061 1.562 1.562 0 01-.273.026c-.617 0-.926-.325-.926-.974v-1.897h-.456v-.233l.456-.201.204-.681h.279v.739h.926v.376h-.926v1.876c0 .192.046.34.137.442a.476.476 0 00.376.155zm3.191.34h-.494v-4.254h2.371v.44h-1.877v1.556h1.763v.44h-1.763v1.818zm2.994 0h-.483v-3.189h.483v3.189zm-.524-4.053c0-.11.027-.191.082-.241a.278.278 0 01.203-.079c.078 0 .145.026.201.079.056.052.084.133.084.241 0 .109-.028.19-.084.245a.285.285 0 01-.201.078.282.282 0 01-.203-.078c-.055-.055-.082-.136-.082-.245zm2.895 4.111c-.471 0-.844-.143-1.117-.43-.272-.287-.407-.686-.407-1.196 0-.514.126-.922.378-1.225.254-.303.594-.454 1.021-.454.4 0 .716.132.948.396.233.262.35.608.35 1.038v.306h-2.197c.01.374.104.658.282.852.181.194.434.291.76.291.343 0 .682-.071 1.018-.215v.431a2.527 2.527 0 01-.486.157 2.626 2.626 0 01-.55.049zm-.131-2.9c-.256 0-.46.083-.614.25-.151.167-.24.397-.267.692h1.667c0-.304-.068-.537-.204-.698-.136-.163-.33-.244-.582-.244zm2.613 2.842h-.483v-4.527h.483v4.527zm3.194-.428h-.026c-.223.324-.556.486-1.001.486-.417 0-.742-.142-.974-.427-.231-.286-.347-.691-.347-1.217 0-.525.117-.934.35-1.224.232-.291.556-.437.971-.437.433 0 .765.157.995.471h.038l-.02-.229-.012-.224v-1.298h.483v4.527h-.393l-.064-.428zm-.966.082c.33 0 .569-.089.716-.268.15-.18.224-.47.224-.87v-.102c0-.452-.075-.773-.227-.966-.149-.193-.389-.29-.718-.29-.284 0-.501.11-.652.331-.149.219-.224.53-.224.931 0 .408.075.715.224.923.149.207.368.311.657.311z" fill="#545F6E"/><path d="M165.273 167.668l2.128 2.128 2.128-2.128" stroke="#474D54" stroke-width=".851" stroke-linecap="round" stroke-linejoin="round"/><rect x="84.408" y="162.561" width="28.289" height="12.768" rx="1.277" fill="#fff"/><rect x="84.195" y="162.348" width="28.715" height="13.194" rx="1.49" stroke="#282F36" stroke-opacity=".2" stroke-width=".426"/><path d="M91.923 170.248l-.53-1.353H89.69l-.524 1.353h-.5l1.681-4.271h.416l1.673 4.271h-.512zm-.684-1.798l-.494-1.318a7.029 7.029 0 01-.198-.614 5.492 5.492 0 01-.183.614l-.5 1.318h1.375zm3.89 1.798v-2.063c0-.26-.059-.454-.177-.582-.118-.128-.304-.192-.556-.192-.334 0-.578.091-.733.271-.155.18-.233.478-.233.893v1.673h-.483v-3.189h.393l.078.437h.024a.975.975 0 01.416-.364c.178-.087.377-.131.596-.131.384 0 .673.093.867.279.194.185.291.48.291.888v2.08h-.483zm3.649-.428h-.027c-.223.324-.556.486-1 .486-.417 0-.742-.142-.975-.427-.23-.286-.346-.691-.346-1.217 0-.525.116-.934.349-1.224.233-.291.557-.437.972-.437.432 0 .764.157.995.471h.038l-.02-.229-.013-.224v-1.298h.483v4.527h-.392l-.064-.428zm-.966.082c.33 0 .568-.089.716-.268.149-.18.223-.47.223-.87v-.102c0-.452-.075-.773-.226-.966-.15-.193-.39-.29-.72-.29-.282 0-.5.11-.65.331-.15.219-.225.53-.225.931 0 .408.075.715.224.923.15.207.369.311.658.311z" fill="#545F6E"/><path d="M103.986 167.668l2.128 2.128 2.128-2.128" stroke="#474D54" stroke-width=".851" stroke-linecap="round" stroke-linejoin="round"/><rect x="178.089" y="162.561" width="88.668" height="12.768" rx="1.277" fill="#fff"/><rect x="177.876" y="162.348" width="89.093" height="13.194" rx="1.49" stroke="#282F36" stroke-opacity=".2" stroke-width=".426"/><path d="M184.328 168.019h1.446v2.069a4.635 4.635 0 01-.687.163 5.212 5.212 0 01-.809.055c-.644 0-1.145-.191-1.504-.573-.359-.384-.538-.921-.538-1.612 0-.442.088-.829.265-1.161.178-.333.434-.587.768-.762.333-.176.724-.265 1.172-.265.454 0 .877.084 1.269.251l-.192.436a2.834 2.834 0 00-1.109-.244c-.518 0-.922.154-1.213.462-.291.309-.437.736-.437 1.283 0 .574.14 1.01.419 1.307.282.296.694.445 1.237.445.295 0 .583-.034.864-.102v-1.309h-.951v-.443zm3.852-1.018c.141 0 .268.012.381.035l-.067.448a1.653 1.653 0 00-.349-.044.856.856 0 00-.664.315c-.182.209-.273.47-.273.782v1.711h-.483v-3.189h.399l.055.591h.023c.118-.208.261-.368.428-.48a.96.96 0 01.55-.169zm2.938 3.247l-.096-.454h-.023c-.159.2-.318.336-.477.407-.157.07-.354.105-.591.105-.316 0-.564-.081-.745-.244-.178-.163-.267-.395-.267-.696 0-.643.515-.981 1.545-1.012l.541-.017v-.198c0-.25-.055-.435-.163-.553-.107-.12-.279-.18-.515-.18-.266 0-.567.081-.902.244l-.148-.37c.157-.085.328-.152.514-.2.189-.049.377-.073.565-.073.38 0 .661.084.844.253.184.169.276.439.276.812v2.176h-.358zm-1.091-.34c.301 0 .536-.083.707-.248.173-.165.259-.395.259-.692v-.288l-.483.02c-.384.014-.661.074-.832.181-.169.104-.253.268-.253.491 0 .175.052.308.157.399.107.091.255.137.445.137zm3.477 0a1.65 1.65 0 00.436-.059v.37a.844.844 0 01-.232.061 1.564 1.564 0 01-.274.026c-.617 0-.925-.325-.925-.974v-1.897h-.457v-.233l.457-.201.204-.681h.279v.739h.925v.376h-.925v1.876c0 .192.045.34.137.442a.475.475 0 00.375.155zm2.423.398c-.471 0-.843-.143-1.117-.43-.271-.287-.407-.686-.407-1.196 0-.514.126-.922.378-1.225.254-.303.595-.454 1.021-.454.4 0 .716.132.949.396.233.262.349.608.349 1.038v.306h-2.197c.01.374.104.658.283.852.18.194.433.291.759.291.343 0 .683-.071 1.018-.215v.431c-.17.073-.332.126-.486.157a2.62 2.62 0 01-.55.049zm-.13-2.9c-.257 0-.461.083-.614.25-.152.167-.241.397-.268.692h1.667c0-.304-.068-.537-.204-.698-.135-.163-.329-.244-.581-.244zm3.584-.405c.142 0 .269.012.381.035l-.067.448a1.653 1.653 0 00-.349-.044.852.852 0 00-.663.315c-.183.209-.274.47-.274.782v1.711h-.483v-3.189h.399l.055.591h.023c.119-.208.261-.368.428-.48a.96.96 0 01.55-.169zm3.555 2.907a1.664 1.664 0 00.437-.059v.37a.852.852 0 01-.233.061 1.564 1.564 0 01-.274.026c-.616 0-.925-.325-.925-.974v-1.897h-.457v-.233l.457-.201.204-.681h.279v.739h.925v.376h-.925v1.876c0 .192.046.34.137.442a.475.475 0 00.375.155zm3.259.34v-2.063c0-.26-.059-.454-.178-.582-.118-.128-.303-.192-.555-.192-.336 0-.581.092-.736.274-.154.182-.23.481-.23.896v1.667h-.483v-4.527h.483v1.37c0 .165-.008.302-.024.411h.029a.975.975 0 01.405-.361c.176-.089.377-.134.602-.134.39 0 .682.093.876.279.196.185.294.478.294.882v2.08h-.483zm3.439 0l-.096-.454h-.024c-.159.2-.318.336-.477.407-.157.07-.354.105-.59.105-.317 0-.565-.081-.745-.244-.179-.163-.268-.395-.268-.696 0-.643.515-.981 1.545-1.012l.541-.017v-.198c0-.25-.054-.435-.163-.553-.106-.12-.278-.18-.515-.18-.265 0-.566.081-.902.244l-.148-.37a2.27 2.27 0 01.515-.2c.188-.049.376-.073.564-.073.381 0 .662.084.844.253.184.169.277.439.277.812v2.176h-.358zm-1.091-.34c.3 0 .536-.083.707-.248.172-.165.259-.395.259-.692v-.288l-.483.02c-.384.014-.662.074-.832.181-.169.104-.254.268-.254.491 0 .175.053.308.158.399.106.091.255.137.445.137zm4.629.34v-2.063c0-.26-.06-.454-.178-.582-.118-.128-.303-.192-.556-.192-.333 0-.578.091-.733.271-.155.18-.233.478-.233.893v1.673h-.483v-3.189h.393l.079.437h.023a.979.979 0 01.416-.364c.179-.087.377-.131.597-.131.384 0 .673.093.867.279.194.185.29.48.29.888v2.08h-.482zm5.778-1.597c0 .52-.131.926-.393 1.219-.262.291-.624.436-1.085.436-.285 0-.539-.067-.76-.201a1.315 1.315 0 01-.512-.576 2.01 2.01 0 01-.18-.878c0-.52.13-.924.39-1.213.26-.291.62-.437 1.082-.437.446 0 .8.149 1.062.445.264.297.396.699.396 1.205zm-2.43 0c0 .407.082.717.245.931.163.213.402.32.718.32.316 0 .556-.106.719-.317.165-.214.247-.525.247-.934 0-.406-.082-.713-.247-.923-.163-.211-.405-.317-.725-.317-.316 0-.554.104-.715.312-.161.207-.242.517-.242.928zm4.734-1.65c.141 0 .269.012.381.035l-.067.448a1.653 1.653 0 00-.349-.044.852.852 0 00-.663.315c-.183.209-.274.47-.274.782v1.711h-.483v-3.189h.399l.055.591h.023c.119-.208.261-.368.428-.48a.96.96 0 01.55-.169zm3.872 3.305c-.471 0-.843-.143-1.117-.43-.271-.287-.407-.686-.407-1.196 0-.514.126-.922.378-1.225.254-.303.594-.454 1.021-.454.4 0 .716.132.949.396.232.262.349.608.349 1.038v.306h-2.197c.01.374.104.658.282.852.181.194.434.291.76.291.343 0 .683-.071 1.018-.215v.431a2.527 2.527 0 01-.486.157 2.62 2.62 0 01-.55.049zm-.131-2.9c-.256 0-.46.083-.613.25-.152.167-.241.397-.268.692h1.667c0-.304-.068-.537-.204-.698-.136-.163-.329-.244-.582-.244zm3.335 2.496c.322 0 .556-.086.704-.259.147-.173.226-.464.235-.873v-.108c0-.446-.075-.767-.227-.963-.151-.195-.39-.293-.718-.293a.742.742 0 00-.652.331c-.149.219-.224.53-.224.931 0 .402.074.708.221.92.149.209.37.314.661.314zm-.073.404c-.411 0-.732-.144-.963-.433-.231-.289-.346-.693-.346-1.211 0-.521.116-.929.349-1.222.232-.292.556-.439.971-.439.437 0 .772.165 1.007.495h.026l.07-.437h.381v4.62h-.483v-1.364c0-.194.011-.359.032-.495h-.038c-.223.324-.558.486-1.006.486zm2.976-3.247v2.069c0 .26.059.454.178.582.118.128.303.192.555.192.334 0 .577-.091.731-.274.155-.182.232-.48.232-.893v-1.676h.483v3.189h-.398l-.07-.428h-.026a.963.963 0 01-.413.361 1.37 1.37 0 01-.6.125c-.388 0-.679-.092-.873-.276-.192-.184-.288-.479-.288-.885v-2.086h.489zm5.167 3.189l-.096-.454h-.023c-.159.2-.318.336-.477.407-.157.07-.354.105-.591.105-.316 0-.564-.081-.745-.244-.178-.163-.267-.395-.267-.696 0-.643.515-.981 1.545-1.012l.541-.017v-.198c0-.25-.054-.435-.163-.553-.107-.12-.278-.18-.515-.18-.266 0-.566.081-.902.244l-.148-.37c.157-.085.328-.152.515-.2.188-.049.376-.073.564-.073.38 0 .661.084.844.253.184.169.276.439.276.812v2.176h-.358zm-1.091-.34c.301 0 .537-.083.707-.248.173-.165.259-.395.259-.692v-.288l-.483.02c-.384.014-.661.074-.832.181-.169.104-.253.268-.253.491 0 .175.052.308.157.399.107.091.255.137.445.137zm2.93.34h-.483v-4.527h.483v4.527zm3.602-.34a1.65 1.65 0 00.436-.059v.37a.844.844 0 01-.232.061 1.564 1.564 0 01-.274.026c-.617 0-.925-.325-.925-.974v-1.897h-.457v-.233l.457-.201.204-.681h.279v.739h.925v.376h-.925v1.876c0 .192.045.34.137.442a.475.475 0 00.375.155zm3.829-1.257c0 .52-.131.926-.393 1.219-.262.291-.624.436-1.085.436-.285 0-.539-.067-.76-.201a1.321 1.321 0 01-.512-.576 2.01 2.01 0 01-.18-.878c0-.52.13-.924.39-1.213.26-.291.62-.437 1.082-.437.446 0 .8.149 1.062.445.264.297.396.699.396 1.205zm-2.43 0c0 .407.082.717.245.931.163.213.402.32.718.32.316 0 .556-.106.719-.317.165-.214.247-.525.247-.934 0-.406-.082-.713-.247-.923-.163-.211-.404-.317-.724-.317-.317 0-.555.104-.716.312-.161.207-.242.517-.242.928z" fill="#545F6E"/><path d="M258.055 167.668l2.128 2.128 2.128-2.128" stroke="#474D54" stroke-width=".851" stroke-linecap="round" stroke-linejoin="round"/><rect x="270.986" y="162.561" width="110.201" height="12.768" rx="1.277" fill="#fff"/><rect x="270.773" y="162.348" width="110.627" height="13.194" rx="1.49" stroke="#282F36" stroke-opacity=".2" stroke-width=".426"/><path d="M277.61 170.248h-2.371v-4.254h2.371v.44h-1.877v1.37h1.763v.437h-1.763v1.565h1.877v.442zm3.055 0v-2.063c0-.26-.06-.454-.178-.582-.118-.128-.303-.192-.556-.192-.333 0-.578.091-.733.271-.155.18-.232.478-.232.893v1.673h-.483v-3.189h.392l.079.437h.023a.979.979 0 01.416-.364c.179-.087.377-.131.597-.131.384 0 .673.093.867.279.194.185.291.48.291.888v2.08h-.483zm2.508-.34a1.66 1.66 0 00.436-.059v.37a.842.842 0 01-.233.061 1.562 1.562 0 01-.273.026c-.617 0-.925-.325-.925-.974v-1.897h-.457v-.233l.457-.201.203-.681h.28v.739h.925v.376h-.925v1.876c0 .192.045.34.136.442a.477.477 0 00.376.155zm2.423.398c-.471 0-.844-.143-1.117-.43-.272-.287-.407-.686-.407-1.196 0-.514.126-.922.378-1.225.254-.303.594-.454 1.021-.454.4 0 .716.132.948.396.233.262.35.608.35 1.038v.306h-2.197c.01.374.104.658.282.852.181.194.434.291.76.291.343 0 .682-.071 1.018-.215v.431a2.527 2.527 0 01-.486.157 2.626 2.626 0 01-.55.049zm-.131-2.9c-.256 0-.46.083-.614.25-.151.167-.24.397-.267.692h1.667c0-.304-.068-.537-.204-.698-.136-.163-.33-.244-.582-.244zm3.585-.405c.141 0 .268.012.381.035l-.067.448a1.653 1.653 0 00-.349-.044.856.856 0 00-.664.315c-.182.209-.273.47-.273.782v1.711h-.483v-3.189h.398l.056.591h.023c.118-.208.261-.368.428-.48a.96.96 0 01.55-.169zm3.223 3.247l-1.21-3.189h.518l.686 1.891c.156.443.247.73.274.862h.023c.021-.103.088-.316.201-.638.114-.323.369-1.028.765-2.115h.518l-1.21 3.189h-.565zm4.248 0l-.096-.454h-.023c-.159.2-.318.336-.477.407-.158.07-.354.105-.591.105-.316 0-.565-.081-.745-.244-.178-.163-.268-.395-.268-.696 0-.643.515-.981 1.545-1.012l.541-.017v-.198c0-.25-.054-.435-.162-.553-.107-.12-.279-.18-.515-.18-.266 0-.567.081-.902.244l-.149-.37a2.27 2.27 0 01.515-.2c.188-.049.377-.073.565-.073.38 0 .661.084.843.253.185.169.277.439.277.812v2.176h-.358zm-1.091-.34c.301 0 .536-.083.707-.248.173-.165.259-.395.259-.692v-.288l-.483.02c-.384.014-.662.074-.832.181-.169.104-.253.268-.253.491 0 .175.052.308.157.399.106.091.255.137.445.137zm2.93.34h-.483v-4.527h.483v4.527zm1.478-3.189v2.069c0 .26.059.454.177.582.118.128.304.192.556.192.333 0 .577-.091.73-.274.155-.182.233-.48.233-.893v-1.676h.483v3.189h-.399l-.07-.428h-.026a.957.957 0 01-.413.361 1.362 1.362 0 01-.599.125c-.388 0-.679-.092-.873-.276-.192-.184-.288-.479-.288-.885v-2.086h.489zm4.553 3.247c-.471 0-.844-.143-1.117-.43-.272-.287-.408-.686-.408-1.196 0-.514.126-.922.379-1.225.254-.303.594-.454 1.021-.454.399 0 .716.132.948.396.233.262.349.608.349 1.038v.306h-2.196c.01.374.104.658.282.852.18.194.434.291.759.291.344 0 .683-.071 1.019-.215v.431a2.527 2.527 0 01-.486.157 2.626 2.626 0 01-.55.049zm-.131-2.9c-.256 0-.461.083-.614.25-.151.167-.24.397-.268.692h1.668c0-.304-.068-.537-.204-.698-.136-.163-.33-.244-.582-.244z" fill="#545F6E"/><g clip-path="url(#clip9)"><g clip-path="url(#clip10)" stroke="#4199FD" stroke-width=".638" stroke-linecap="round" stroke-linejoin="round"><path d="M87.813 193.076a3.064 3.064 0 100-6.129 3.064 3.064 0 000 6.129zM86.451 190.012h2.724M87.813 188.65v2.724"/></g><path d="M96.972 191.969l-.425-1.181h-1.626l-.416 1.181h-.733l1.59-4.271h.757l1.592 4.271h-.74zm-.608-1.781l-.399-1.158a7.897 7.897 0 01-.227-.733c-.052.239-.129.5-.23.783l-.384 1.108h1.24zm2.92 1.839c-.4 0-.714-.146-.939-.436-.225-.291-.337-.7-.337-1.225 0-.528.113-.938.34-1.231.229-.295.545-.442.948-.442.423 0 .745.156.966.468h.035a4.08 4.08 0 01-.049-.547v-1.172h.686v4.527h-.535l-.119-.422h-.032c-.219.32-.54.48-.963.48zm.184-.553c.281 0 .486-.078.614-.236.128-.159.194-.416.198-.771v-.096c0-.405-.066-.693-.198-.864-.132-.17-.338-.256-.62-.256a.628.628 0 00-.555.294c-.13.194-.195.472-.195.832 0 .357.063.63.189.818.126.186.315.279.567.279zm3.529.553c-.401 0-.715-.146-.94-.436-.225-.291-.337-.7-.337-1.225 0-.528.113-.938.34-1.231.229-.295.545-.442.949-.442.423 0 .745.156.966.468h.035a4.112 4.112 0 01-.05-.547v-1.172h.687v4.527h-.535l-.12-.422h-.032c-.219.32-.54.48-.963.48zm.184-.553c.281 0 .485-.078.613-.236.128-.159.194-.416.198-.771v-.096c0-.405-.066-.693-.198-.864-.131-.17-.338-.256-.619-.256a.628.628 0 00-.556.294c-.13.194-.195.472-.195.832 0 .357.063.63.189.818.126.186.315.279.568.279zm5.606-2.205h-.786v2.7h-.686v-2.7h-.53v-.32l.53-.21v-.209c0-.38.089-.662.267-.844.179-.184.451-.276.818-.276.241 0 .477.039.71.119l-.18.518a1.59 1.59 0 00-.483-.082c-.156 0-.269.049-.341.146-.07.095-.105.238-.105.43v.21h.786v.518zm1.231 2.7h-.684v-3.218h.684v3.218zm-.725-4.071c0-.122.033-.216.099-.282a.396.396 0 01.288-.099c.12 0 .214.033.279.099.068.066.102.16.102.282a.374.374 0 01-.102.277c-.065.066-.159.099-.279.099a.396.396 0 01-.288-.099.38.38 0 01-.099-.277zm2.392 4.071h-.684v-4.527h.684v4.527zm2.179-.495c.167 0 .334-.026.5-.078v.515c-.075.033-.173.06-.294.081a1.925 1.925 0 01-.369.035c-.648 0-.972-.341-.972-1.024v-1.734h-.439v-.303l.471-.25.233-.681h.422v.716h.916v.518h-.916v1.722c0 .165.041.287.122.367a.461.461 0 00.326.116zm2.551.553c-.5 0-.892-.146-1.175-.436-.281-.293-.422-.696-.422-1.208 0-.526.131-.939.393-1.239.262-.301.622-.451 1.079-.451.425 0 .761.129 1.007.387.246.258.369.613.369 1.065v.369h-2.144c.01.312.094.553.253.722.159.166.383.25.672.25.191 0 .367-.018.53-.053.165-.036.341-.097.529-.18v.556a2.06 2.06 0 01-.506.168 3.09 3.09 0 01-.585.05zm-.125-2.816a.69.69 0 00-.523.206c-.13.138-.208.339-.233.602h1.46c-.003-.265-.067-.466-.192-.602-.124-.138-.294-.206-.512-.206zm3.785-.518c.138 0 .252.009.341.029l-.067.637a1.31 1.31 0 00-.303-.035.88.88 0 00-.666.268c-.169.178-.253.41-.253.695v1.682h-.684v-3.218h.536l.09.567h.035c.106-.192.245-.344.416-.457a1 1 0 01.555-.168z" fill="#4199FD"/></g><g clip-path="url(#clip11)"><g clip-path="url(#clip12)" stroke="#4199FD" stroke-width=".638" stroke-linecap="round" stroke-linejoin="round"><path d="M87.813 222.444a3.064 3.064 0 100-6.129 3.064 3.064 0 000 6.129zM86.451 219.38h2.724M87.813 218.018v2.723"/></g><path d="M96.972 221.336l-.425-1.181h-1.626l-.416 1.181h-.733l1.59-4.271h.757l1.592 4.271h-.74zm-.608-1.781l-.399-1.158a8.733 8.733 0 01-.227-.733c-.052.239-.129.5-.23.783l-.384 1.108h1.24zm2.92 1.839c-.4 0-.714-.145-.939-.436-.225-.291-.337-.7-.337-1.225 0-.528.113-.938.34-1.231.229-.295.545-.442.948-.442.423 0 .745.156.966.468h.035a4.067 4.067 0 01-.049-.547v-1.172h.686v4.527h-.535l-.119-.422h-.032c-.219.32-.54.48-.963.48zm.184-.553c.281 0 .486-.078.614-.235.128-.159.194-.416.198-.771v-.096c0-.406-.066-.694-.198-.864-.132-.171-.338-.256-.62-.256a.627.627 0 00-.555.293c-.13.194-.195.472-.195.832 0 .357.063.63.189.818.126.186.315.279.567.279zm3.529.553c-.401 0-.715-.145-.94-.436-.225-.291-.337-.7-.337-1.225 0-.528.113-.938.34-1.231.229-.295.545-.442.949-.442.423 0 .745.156.966.468h.035a4.098 4.098 0 01-.05-.547v-1.172h.687v4.527h-.535l-.12-.422h-.032c-.219.32-.54.48-.963.48zm.184-.553c.281 0 .485-.078.613-.235.128-.159.194-.416.198-.771v-.096c0-.406-.066-.694-.198-.864-.131-.171-.338-.256-.619-.256a.627.627 0 00-.556.293c-.13.194-.195.472-.195.832 0 .357.063.63.189.818.126.186.315.279.568.279zm6.822.495h-.687v-1.978c0-.249-.05-.434-.151-.556-.099-.122-.257-.183-.474-.183-.289 0-.5.085-.634.256-.134.17-.201.456-.201.858v1.603h-.684v-3.218h.536l.096.422h.034a.95.95 0 01.414-.355c.178-.083.376-.125.593-.125.772 0 1.158.393 1.158 1.178v2.098zm2.357.058c-.501 0-.892-.145-1.176-.436-.281-.293-.422-.696-.422-1.208 0-.525.131-.938.393-1.239.262-.301.622-.451 1.08-.451.424 0 .76.129 1.006.387.247.258.37.613.37 1.065v.369h-2.144c.009.313.094.553.253.722.159.167.383.25.672.25.19 0 .366-.017.529-.052.165-.037.342-.097.53-.181v.556a2.136 2.136 0 01-.506.169 3.11 3.11 0 01-.585.049zm-.125-2.816a.694.694 0 00-.524.206c-.13.138-.208.339-.233.603h1.461c-.004-.266-.068-.467-.192-.603-.124-.137-.295-.206-.512-.206zm4.791 2.758l-.416-1.501c-.05-.159-.141-.529-.273-1.109h-.026c-.113.524-.202.895-.268 1.114l-.428 1.496h-.756l-.902-3.218h.698l.41 1.586c.094.392.16.727.198 1.006h.018a6.476 6.476 0 01.192-.899l.489-1.693h.75l.474 1.693c.03.095.065.241.108.437.045.196.071.348.079.457h.023c.029-.239.097-.573.204-1.001l.416-1.586h.686l-.907 3.218h-.769zm6.497-3.218v.375l-.55.102a.99.99 0 01.175.565c0 .331-.115.592-.343.782-.229.19-.545.285-.946.285-.103 0-.196-.007-.279-.023-.148.091-.221.198-.221.32 0 .074.033.129.101.166.07.037.197.055.381.055h.562c.355 0 .625.076.809.227.184.152.276.37.276.655 0 .365-.15.646-.451.844-.3.197-.735.296-1.303.296-.439 0-.773-.077-1.004-.232a.754.754 0 01-.346-.664c0-.198.062-.364.186-.5.126-.134.302-.227.527-.279a.525.525 0 01-.227-.187.486.486 0 01.014-.579c.068-.083.169-.165.303-.247a.903.903 0 01-.407-.349 1.044 1.044 0 01-.155-.57c0-.349.11-.62.329-.812.221-.192.535-.288.943-.288.091 0 .186.007.285.02.101.012.176.025.227.038h1.114zm-2.528 3.718c0 .148.066.261.198.341.134.079.321.119.561.119.373 0 .65-.053.832-.16.183-.107.274-.248.274-.425 0-.139-.051-.239-.151-.299-.099-.059-.285-.088-.556-.088h-.518c-.196 0-.352.046-.468.137a.457.457 0 00-.172.375zm.294-2.676c0 .201.051.357.154.465.105.109.254.163.448.163.396 0 .593-.211.593-.634 0-.21-.049-.371-.148-.483-.097-.115-.245-.172-.445-.172-.198 0-.348.057-.451.169-.101.113-.151.276-.151.492zm4.466-1.1c.137 0 .251.01.34.029l-.067.637a1.307 1.307 0 00-.302-.035.884.884 0 00-.667.268c-.168.178-.253.41-.253.695v1.682h-.684v-3.218h.536l.09.567h.035c.107-.192.245-.344.416-.456a.997.997 0 01.556-.169zm3.794 1.661c0 .526-.135.936-.405 1.231-.269.295-.645.442-1.126.442-.3 0-.566-.068-.797-.204a1.336 1.336 0 01-.532-.584 1.98 1.98 0 01-.187-.885c0-.522.134-.929.402-1.222.268-.293.645-.439 1.132-.439.465 0 .834.15 1.105.451.272.299.408.702.408 1.21zm-2.343 0c0 .743.275 1.115.824 1.115.543 0 .814-.372.814-1.115 0-.735-.273-1.102-.82-1.102-.287 0-.496.095-.626.285-.128.19-.192.462-.192.817zm5.4 1.615l-.096-.422h-.035a.964.964 0 01-.407.352 1.35 1.35 0 01-.599.128c-.39 0-.681-.097-.873-.291-.192-.194-.288-.488-.288-.881v-2.104h.689v1.984c0 .247.051.432.152.556.101.122.259.183.474.183.287 0 .497-.085.631-.256.136-.172.204-.46.204-.864v-1.603h.687v3.218h-.539zm3.145.058c-.407 0-.723-.146-.948-.439h-.041c.027.271.041.436.041.494v1.318h-.684v-4.649h.553c.016.06.048.204.096.431h.035c.213-.326.533-.489.96-.489.402 0 .714.145.937.436.225.291.337.7.337 1.225 0 .526-.114.936-.343 1.231-.227.295-.541.442-.943.442zm-.165-2.775c-.272 0-.471.079-.597.238-.124.159-.186.413-.186.762v.102c0 .392.062.676.186.853.124.174.327.262.608.262a.617.617 0 00.547-.291c.128-.194.192-.471.192-.83 0-.36-.064-.633-.192-.817-.126-.186-.312-.279-.558-.279z" fill="#4199FD"/></g><path fill="#282F36" fill-opacity=".2" d="M61 114.893h369v.426H61z"/><path d="M80.3 98.654h-.848v-7.291h4.065v.753H80.3v2.668h3.023v.753H80.3v3.117zm5.132 0h-.828v-5.466h.828v5.466zm-.898-6.947c0-.19.047-.328.14-.414a.483.483 0 01.35-.135c.132 0 .247.045.344.135.096.09.144.227.144.414 0 .186-.048.326-.144.419a.488.488 0 01-.345.134.483.483 0 01-.349-.134c-.093-.094-.14-.233-.14-.42zm3.482 6.947h-.828v-7.76h.828v7.76zm3.521-.583c.146 0 .288-.01.424-.03.136-.023.244-.047.324-.07v.633c-.09.044-.223.079-.399.105-.173.03-.329.045-.469.045-1.057 0-1.586-.557-1.586-1.67V93.83h-.783v-.399l.783-.344.35-1.167h.478v1.267h1.586v.643H90.66v3.217c0 .33.078.582.235.758.156.177.37.265.643.265zm4.155.683c-.808 0-1.447-.246-1.915-.738-.466-.492-.699-1.175-.699-2.05 0-.881.216-1.581.649-2.1.435-.519 1.019-.778 1.75-.778.685 0 1.227.226 1.626.678.4.45.599 1.043.599 1.781v.524h-3.766c.017.642.178 1.129.484 1.461.31.333.743.499 1.302.499.588 0 1.17-.123 1.745-.37v.739c-.292.126-.57.216-.833.27a4.5 4.5 0 01-.942.084zm-.225-4.973c-.439 0-.79.143-1.052.43-.26.285-.412.681-.459 1.186h2.858c0-.522-.116-.92-.35-1.197-.232-.279-.564-.419-.997-.419zm6.145-.693c.243 0 .46.02.653.06l-.114.768a2.821 2.821 0 00-.599-.075c-.442 0-.821.18-1.137.539-.313.36-.469.806-.469 1.342v2.932h-.828v-5.466h.684l.094 1.012h.04c.203-.355.447-.63.733-.823.286-.192.6-.289.943-.289zm6.638 5.666c-.808 0-1.446-.246-1.915-.738-.465-.492-.698-1.175-.698-2.05 0-.881.216-1.581.648-2.1.436-.519 1.019-.778 1.751-.778.685 0 1.227.226 1.626.678.399.45.598 1.043.598 1.781v.524h-3.765c.016.642.178 1.129.484 1.461.309.333.743.499 1.301.499.589 0 1.171-.123 1.746-.37v.739c-.293.126-.57.216-.833.27a4.501 4.501 0 01-.943.084zm-.224-4.973c-.439 0-.79.143-1.052.43-.26.285-.413.681-.459 1.186h2.858c0-.522-.117-.92-.35-1.197-.232-.279-.565-.419-.997-.419zm7.392 4.873v-3.536c0-.445-.102-.778-.305-.997-.203-.22-.52-.33-.952-.33-.572 0-.991.155-1.257.464-.266.31-.399.82-.399 1.531v2.868h-.828v-5.466h.673l.135.748h.04a1.67 1.67 0 01.713-.623c.306-.15.647-.225 1.022-.225.659 0 1.154.16 1.487.479.332.316.498.823.498 1.521v3.566h-.827zm4.299-.583c.146 0 .287-.01.424-.03.136-.023.244-.047.324-.07v.633c-.09.044-.223.079-.399.105-.173.03-.329.045-.469.045-1.057 0-1.586-.557-1.586-1.67V93.83h-.783v-.399l.783-.344.349-1.167h.479v1.267h1.586v.643h-1.586v3.217c0 .33.078.582.234.758.157.177.371.265.644.265zm4.339-4.983c.243 0 .461.02.653.06l-.114.768a2.821 2.821 0 00-.599-.075c-.442 0-.821.18-1.137.539-.313.36-.469.806-.469 1.342v2.932h-.828v-5.466h.684l.094 1.012h.04c.203-.355.447-.63.733-.823.286-.192.601-.289.943-.289zm2.504 5.566h-.828v-5.466h.828v5.466zm-.898-6.947c0-.19.047-.328.14-.414a.482.482 0 01.349-.135c.133 0 .247.045.344.135.096.09.145.227.145.414 0 .186-.049.326-.145.419a.488.488 0 01-.344.134.482.482 0 01-.349-.134c-.093-.094-.14-.233-.14-.42zm4.963 7.047c-.808 0-1.447-.246-1.916-.738-.465-.492-.698-1.175-.698-2.05 0-.881.216-1.581.649-2.1.435-.519 1.019-.778 1.75-.778.685 0 1.227.226 1.626.678.399.45.599 1.043.599 1.781v.524h-3.766c.017.642.178 1.129.484 1.461.309.333.743.499 1.302.499.588 0 1.17-.123 1.745-.37v.739c-.292.126-.57.216-.833.27a4.491 4.491 0 01-.942.084zm-.225-4.973c-.439 0-.79.143-1.052.43-.26.285-.412.681-.459 1.186h2.858c0-.522-.117-.92-.349-1.197-.233-.279-.566-.419-.998-.419zm7.177 3.382c0 .509-.189.901-.568 1.177-.379.276-.911.414-1.596.414-.725 0-1.29-.115-1.696-.344v-.768c.263.133.544.238.843.314.302.076.593.115.873.115.432 0 .764-.068.997-.205a.69.69 0 00.349-.633c0-.213-.093-.394-.279-.544-.183-.153-.542-.332-1.077-.538-.509-.19-.872-.355-1.088-.494a1.54 1.54 0 01-.478-.484 1.262 1.262 0 01-.155-.643c0-.446.181-.797.544-1.053.362-.26.859-.389 1.491-.389.588 0 1.164.12 1.726.36l-.295.673c-.548-.227-1.045-.34-1.491-.34-.392 0-.688.062-.888.185-.199.123-.299.293-.299.509a.63.63 0 00.11.374c.076.103.198.2.364.294.166.093.485.228.957.404.649.236 1.086.474 1.312.713.23.24.344.54.344.903z" fill="#282F36"/><path d="M394.445 94.484c-.534 0-.956.179-1.267.536-.308.355-.462.841-.462 1.46 0 .636.149 1.128.446 1.476.299.346.725.519 1.276.519.34 0 .726-.061 1.161-.183v.495c-.337.126-.753.19-1.247.19-.716 0-1.269-.218-1.659-.652-.388-.434-.582-1.052-.582-1.852 0-.501.093-.94.279-1.317.189-.377.459-.667.812-.871.354-.204.771-.306 1.25-.306.51 0 .955.093 1.336.28l-.239.485a2.577 2.577 0 00-1.104-.26zm4.373 4.426l-.11-.519h-.027c-.182.229-.363.384-.545.466-.18.08-.405.12-.675.12-.361 0-.645-.093-.851-.28-.204-.186-.306-.45-.306-.794 0-.736.588-1.122 1.765-1.157l.619-.02v-.227c0-.285-.062-.496-.186-.631-.122-.138-.318-.206-.589-.206-.304 0-.647.093-1.031.279l-.169-.422a2.602 2.602 0 011.233-.313c.435 0 .756.096.965.29.21.192.316.501.316.927v2.487h-.409zm-1.247-.389c.343 0 .613-.094.808-.282.197-.189.296-.453.296-.792v-.329l-.552.023c-.439.016-.756.084-.951.206-.193.12-.29.307-.29.562 0 .2.06.352.18.456.122.104.291.156.509.156zm5.29.39v-2.358c0-.297-.068-.519-.203-.665-.135-.147-.347-.22-.635-.22-.381 0-.661.103-.838.31-.177.206-.266.546-.266 1.02v1.912h-.552v-3.644h.449l.09.499h.026c.113-.18.272-.318.476-.416.204-.1.431-.15.681-.15.439 0 .77.107.991.32.222.21.333.548.333 1.014v2.377h-.552zm3.145.066c-.527 0-.936-.162-1.227-.486-.288-.326-.432-.786-.432-1.38 0-.61.146-1.08.439-1.413.295-.332.714-.499 1.257-.499.175 0 .35.02.525.057.175.038.313.082.413.133l-.17.469a2.477 2.477 0 00-.399-.12 1.725 1.725 0 00-.382-.05c-.741 0-1.111.472-1.111 1.417 0 .447.09.791.269 1.03.182.24.45.36.805.36.304 0 .615-.066.934-.197v.49c-.244.126-.551.189-.921.189zm3.329 0c-.539 0-.965-.164-1.277-.492-.31-.329-.466-.784-.466-1.367 0-.587.144-1.054.433-1.4.29-.346.679-.519 1.167-.519.456 0 .818.151 1.084.453.266.299.399.695.399 1.187v.349h-2.511c.011.428.119.752.323.974.206.222.495.332.868.332.392 0 .78-.082 1.163-.245v.492c-.195.084-.38.144-.555.18a2.993 2.993 0 01-.628.056zm-.15-3.315c-.293 0-.526.095-.702.285-.172.191-.274.455-.305.792h1.905c0-.348-.078-.614-.233-.798-.155-.186-.377-.28-.665-.28zm2.986 3.248h-.552v-5.174h.552v5.174z" fill="#282F36" fill-opacity=".45"/></g></g><defs><clipPath id="clip0"><path fill="#fff" d="M0 0h592v243H0z"/></clipPath><clipPath id="clip1"><path d="M35 44.438A7.438 7.438 0 0142.438 37h507.124A7.438 7.438 0 01557 44.438V243H35V44.438z" fill="#fff"/></clipPath><clipPath id="clip2"><path fill="#fff" transform="translate(182.269 124.653)" d="M0 0h11.665v11.665H0z"/></clipPath><clipPath id="clip3"><path fill="#fff" transform="translate(527.838 118.336)" d="M0 0h9.721v9.721H0z"/></clipPath><clipPath id="clip4"><path fill="#fff" transform="translate(79.715 89.173)" d="M0 0h11.665v11.665H0z"/></clipPath><clipPath id="clip5"><path fill="#fff" transform="translate(76.313 60.497)" d="M0 0h155.531v9.721H0z"/></clipPath><clipPath id="clip6"><path fill="#fff" transform="translate(76.313 60.497)" d="M0 0h9.721v9.721H0z"/></clipPath><clipPath id="clip7"><path fill="#fff" transform="translate(386.107 141.706)" d="M0 0h8.721v8.512H0z"/></clipPath><clipPath id="clip8"><path fill="#fff" transform="translate(386.107 164.688)" d="M0 0h8.721v8.512H0z"/></clipPath><clipPath id="clip9"><path fill="#fff" transform="translate(84.408 185.969)" d="M0 0h36.176v8.086H0z"/></clipPath><clipPath id="clip10"><path fill="#fff" transform="translate(84.408 186.607)" d="M0 0h6.81v6.81H0z"/></clipPath><clipPath id="clip11"><path fill="#fff" transform="translate(84.408 215.336)" d="M0 0h53.201v8.086H0z"/></clipPath><clipPath id="clip12"><path fill="#fff" transform="translate(84.408 215.975)" d="M0 0h6.81v6.81H0z"/></clipPath><filter id="filter0_d" x="-8.388" y="-.19" width="608.776" height="292.776" filterUnits="userSpaceOnUse" color-interpolation-filters="sRGB"><feFlood flood-opacity="0" result="BackgroundImageFix"/><feColorMatrix in="SourceAlpha" values="0 0 0 0 0 0 0 0 0 0 0 0 0 0 0 0 0 0 127 0"/><feOffset dy="6.198"/><feGaussianBlur stdDeviation="21.694"/><feColorMatrix values="0 0 0 0 0.164706 0 0 0 0 0.223529 0 0 0 0 0.294118 0 0 0 0.25 0"/><feBlend in2="BackgroundImageFix" result="effect1_dropShadow"/><feBlend in="SourceGraphic" in2="effect1_dropShadow" result="shape"/></filter><filter id="filter1_d" x="50.785" y="67.225" width="389.429" height="235.361" filterUnits="userSpaceOnUse" color-interpolation-filters="sRGB"><feFlood flood-opacity="0" result="BackgroundImageFix"/><feColorMatrix in="SourceAlpha" values="0 0 0 0 0 0 0 0 0 0 0 0 0 0 0 0 0 0 127 0"/><feOffset dy="3.405"/><feGaussianBlur stdDeviation="5.107"/><feColorMatrix values="0 0 0 0 0.156863 0 0 0 0 0.184314 0 0 0 0 0.211765 0 0 0 0.15 0"/><feBlend in2="BackgroundImageFix" result="effect1_dropShadow"/><feBlend in="SourceGraphic" in2="effect1_dropShadow" result="shape"/></filter></defs></svg>