<svg width="522" height="214" fill="none" xmlns="http://www.w3.org/2000/svg"><g filter="url(#filter0_d)" clip-path="url(#clip0)"><g clip-path="url(#clip1)"><rect x="41" y="30" width="439.685" height="325" rx="2.823" fill="#fff"/><path fill="#fff" stroke="#9EA1A5" stroke-width=".353" stroke-dasharray="1.76 1.76" d="M95.519 102.164h332.058v199.729H95.519z"/><path fill="#fff" stroke="#9EA1A5" stroke-width=".353" stroke-dasharray="1.76 1.76" d="M97.637 103.927h163.029v195.847H97.637z"/><path fill="#4199FD" fill-opacity=".05" stroke="#4199FD" stroke-width=".706" stroke-dasharray="1.76 1.76" d="M262.96 104.104h162.676v195.494H262.96z"/><path d="M267.547 109.397H419.99" stroke="#4199FD" stroke-width="1.412"/><g filter="url(#filter1_d)"><rect x="288.72" y="106.928" width="25.407" height="8.469" rx="1.764" fill="#E9ECF5"/><rect x="290.131" y="108.339" width="10.939" height="5.646" rx=".353" fill="#9EA9B8"/><rect x="301.776" y="108.339" width="10.939" height="5.646" rx=".353" fill="#9EA9B8"/></g><g clip-path="url(#clip2)"><rect x="167.683" y="70.581" width="25.407" height="8.469" rx="1.764" fill="#E9ECF5"/><rect x="169.094" y="71.992" width="22.584" height="5.646" rx=".353" fill="#9EA9B8"/><rect x="194.502" y="70.581" width="25.407" height="8.469" rx="1.764" fill="#E9ECF5"/><rect x="195.913" y="71.992" width="10.939" height="5.646" rx=".353" fill="#9EA9B8"/><rect x="207.558" y="71.992" width="10.939" height="5.646" rx=".353" fill="#9EA9B8"/><rect x="221.32" y="70.581" width="25.407" height="8.469" rx="1.764" fill="#E9ECF5"/><rect x="222.732" y="71.992" width="7.058" height="5.646" rx=".353" fill="#9EA9B8"/><rect x="230.495" y="71.992" width="7.058" height="5.646" rx=".353" fill="#9EA9B8"/><rect x="238.258" y="71.992" width="7.058" height="5.646" rx=".353" fill="#9EA9B8"/><rect x="248.139" y="70.581" width="25.407" height="8.469" rx="1.764" fill="#E9ECF5"/><rect x="249.551" y="71.992" width="5.117" height="5.646" rx=".353" fill="#9EA9B8"/><rect x="255.373" y="71.992" width="5.117" height="5.646" rx=".353" fill="#9EA9B8"/><rect x="261.195" y="71.992" width="5.117" height="5.646" rx=".353" fill="#9EA9B8"/><rect x="267.018" y="71.992" width="5.117" height="5.646" rx=".353" fill="#9EA9B8"/><rect x="274.958" y="70.581" width="25.407" height="8.469" rx="1.764" fill="#E9ECF5"/><rect x="276.369" y="71.992" width="5.117" height="5.646" rx=".353" fill="#9EA9B8"/><rect x="282.368" y="71.992" width="16.585" height="5.646" rx=".353" fill="#9EA9B8"/><rect x="288.014" y="71.992" width="5.117" height="5.646" rx=".353" fill="#9EA9B8"/><rect x="293.837" y="71.992" width="5.117" height="5.646" rx=".353" fill="#9EA9B8"/><rect x="301.776" y="70.581" width="25.407" height="8.469" rx="1.764" fill="#E9ECF5"/><rect x="303.188" y="71.992" width="5.117" height="5.646" rx=".353" fill="#9EA9B8"/><rect x="303.188" y="71.992" width="16.585" height="5.646" rx=".353" fill="#9EA9B8"/><rect x="314.833" y="71.992" width="5.117" height="5.646" rx=".353" fill="#9EA9B8"/><rect x="320.655" y="71.992" width="5.117" height="5.646" rx=".353" fill="#9EA9B8"/><rect x="328.595" y="70.581" width="25.407" height="8.469" rx="1.764" fill="#E9ECF5"/><rect x="330.007" y="71.992" width="5.117" height="5.646" rx=".353" fill="#9EA9B8"/><rect x="336.006" y="71.992" width="10.586" height="5.646" rx=".353" fill="#9EA9B8"/><rect x="341.652" y="71.992" width="5.117" height="5.646" rx=".353" fill="#9EA9B8"/><rect x="347.474" y="71.992" width="5.117" height="5.646" rx=".353" fill="#9EA9B8"/></g><g filter="url(#filter2_d)"><path d="M41 32.823A2.823 2.823 0 0143.823 30h434.039a2.823 2.823 0 012.823 2.823v31.053H41V32.823z" fill="#fff"/></g><path d="M452.97 46.798c-.442 0-.793.148-1.05.444-.255.294-.383.698-.383 1.21 0 .528.123.936.369 1.225.248.286.601.43 1.059.43.281 0 .602-.05.962-.152v.41c-.279.105-.624.158-1.034.158-.593 0-1.052-.18-1.375-.54-.322-.36-.483-.872-.483-1.536 0-.415.077-.78.232-1.092.156-.312.38-.553.672-.722.294-.17.64-.254 1.037-.254.423 0 .792.078 1.108.232l-.198.402a2.137 2.137 0 00-.916-.215zm3.626 3.67l-.091-.43h-.022c-.151.189-.302.318-.452.386-.149.066-.336.099-.56.099-.3 0-.535-.077-.706-.232-.169-.154-.253-.374-.253-.659 0-.61.488-.93 1.463-.959l.513-.017v-.187c0-.237-.051-.412-.154-.524-.101-.114-.264-.17-.488-.17-.252 0-.537.077-.855.23l-.14-.35c.149-.08.311-.144.488-.19.178-.045.356-.068.534-.068.361 0 .627.08.8.24.175.16.262.416.262.769v2.062h-.339zm-1.034-.323c.285 0 .508-.078.67-.234.163-.156.245-.375.245-.656v-.273l-.457.02c-.364.012-.627.069-.789.17-.16.1-.24.255-.24.466 0 .165.05.291.149.378.101.086.242.13.422.13zm4.386.323v-1.955c0-.246-.056-.43-.168-.551-.112-.122-.288-.182-.527-.182-.316 0-.547.085-.694.256-.147.171-.221.453-.221.847v1.585h-.458v-3.022h.373l.074.414h.022a.927.927 0 01.394-.345 1.27 1.27 0 01.565-.124c.364 0 .638.088.822.265.184.174.276.455.276.84v1.972h-.458zm2.608.055c-.437 0-.776-.134-1.017-.403-.239-.27-.359-.651-.359-1.144 0-.505.122-.896.364-1.171.245-.276.592-.414 1.042-.414.146 0 .291.016.436.047.145.031.259.068.342.11l-.141.389a2.039 2.039 0 00-.331-.1 1.43 1.43 0 00-.317-.04c-.614 0-.92.39-.92 1.174 0 .371.074.656.223.854.151.199.373.298.667.298.252 0 .51-.054.775-.162v.405c-.202.105-.457.157-.764.157zm2.76 0c-.447 0-.8-.136-1.059-.408-.257-.272-.386-.65-.386-1.133 0-.487.12-.874.358-1.16.241-.288.564-.43.968-.43.379 0 .678.124.899.374.22.248.331.576.331.984v.29h-2.082c.009.354.099.624.268.807.171.184.41.276.719.276.326 0 .647-.068.965-.204v.408c-.162.07-.315.12-.46.149a2.486 2.486 0 01-.521.047zm-.124-2.749a.752.752 0 00-.582.237c-.143.158-.228.377-.254.656h1.58c0-.288-.064-.509-.193-.661-.129-.154-.312-.232-.551-.232zm2.475 2.694h-.457v-4.29h.457v4.29z" fill="#282F36" fill-opacity=".45"/><path d="M56.3 43.894h1.707c.802 0 1.383.12 1.741.36.358.24.538.618.538 1.137 0 .358-.101.654-.302.889-.199.231-.49.382-.873.45v.042c.918.157 1.377.64 1.377 1.447 0 .54-.183.962-.55 1.266-.364.303-.874.455-1.53.455H56.3v-6.046zm.702 2.588h1.158c.496 0 .853-.077 1.071-.231.218-.157.327-.42.327-.79 0-.34-.122-.583-.364-.732-.243-.152-.629-.227-1.158-.227h-1.034v1.98zm0 .596v2.262h1.261c.488 0 .855-.094 1.1-.281.248-.19.373-.487.373-.89 0-.374-.127-.65-.38-.826-.252-.177-.635-.265-1.15-.265h-1.204zm5.33-1.67v2.94c0 .369.085.645.253.826.168.182.431.273.79.273.474 0 .82-.13 1.038-.388.22-.26.33-.683.33-1.27v-2.382h.687v4.533h-.567l-.099-.608h-.037c-.14.223-.337.394-.587.512a1.952 1.952 0 01-.852.178c-.552 0-.965-.13-1.24-.393-.274-.262-.41-.68-.41-1.257v-2.965h.695zm5.244 4.532h-.686v-4.533h.686v4.533zm-.744-5.761c0-.157.038-.272.116-.343a.4.4 0 01.289-.112c.11 0 .205.037.285.112.08.074.12.189.12.343 0 .154-.04.27-.12.347a.405.405 0 01-.285.112.4.4 0 01-.29-.112c-.077-.077-.115-.193-.115-.347zm2.886 5.76h-.686v-6.434h.686v6.434zm4.54-.607h-.036c-.318.46-.792.69-1.423.69-.593 0-1.055-.203-1.385-.608-.329-.405-.493-.981-.493-1.728s.166-1.328.497-1.741c.33-.414.791-.62 1.38-.62.616 0 1.087.223 1.415.67h.054l-.029-.327-.016-.319v-1.844h.686v6.434h-.558l-.091-.607zm-1.372.115c.468 0 .808-.127 1.017-.38.212-.257.319-.669.319-1.236v-.145c0-.643-.108-1.1-.323-1.373-.212-.276-.553-.414-1.022-.414-.402 0-.71.157-.926.472-.212.311-.318.752-.318 1.323 0 .579.106 1.016.318 1.31.213.296.524.443.935.443zm4.962-4.04h.736l.993 2.585c.217.59.353 1.016.405 1.278h.033c.036-.141.11-.38.223-.72.116-.342.491-1.39 1.125-3.143h.736l-1.948 5.161c-.192.51-.419.871-.678 1.084-.256.215-.572.322-.947.322a2.76 2.76 0 01-.62-.07v-.55c.152.033.321.05.509.05.471 0 .807-.265 1.009-.795l.252-.645-1.828-4.557zm8.9 2.262c0 .739-.187 1.317-.559 1.733-.372.413-.886.62-1.542.62-.406 0-.766-.095-1.08-.285a1.882 1.882 0 01-.728-.819c-.17-.356-.256-.772-.256-1.249 0-.739.185-1.313.554-1.724.37-.414.882-.62 1.538-.62.635 0 1.138.21 1.51.632.375.422.562.993.562 1.712zm-3.454 0c0 .58.116 1.02.348 1.324.231.303.572.454 1.021.454.45 0 .79-.15 1.022-.45.234-.304.351-.746.351-1.328 0-.576-.117-1.013-.352-1.31-.231-.301-.574-.451-1.03-.451-.449 0-.788.147-1.016.442-.23.295-.344.735-.344 1.32zm5.306-2.262v2.94c0 .37.084.645.252.827.168.182.431.273.79.273.474 0 .82-.13 1.038-.388.22-.26.33-.683.33-1.27v-2.382h.687v4.533h-.566l-.1-.608h-.037c-.14.223-.336.394-.587.512a1.952 1.952 0 01-.852.178c-.551 0-.965-.13-1.24-.393-.273-.262-.41-.68-.41-1.257v-2.965h.695zm6.625-.082c.2 0 .381.016.541.05l-.095.636a2.342 2.342 0 00-.496-.062c-.367 0-.681.149-.943.447-.26.297-.389.668-.389 1.112v2.431h-.686v-4.532h.566l.079.84h.033c.168-.295.37-.523.608-.683.237-.16.498-.24.782-.24zm4.275 4.614h-.686v-6.434h.686v6.434zm4.243 0l-.136-.645h-.033c-.226.284-.452.477-.679.58-.223.098-.503.148-.839.148-.449 0-.802-.116-1.059-.347-.253-.232-.38-.561-.38-.988 0-.916.732-1.395 2.196-1.44l.769-.024v-.282c0-.355-.077-.617-.232-.785-.151-.171-.395-.257-.732-.257-.377 0-.805.116-1.282.348l-.21-.526c.223-.12.467-.216.732-.285.267-.069.534-.103.802-.103.54 0 .94.12 1.199.36.262.24.393.624.393 1.153v3.094h-.509zm-1.551-.483c.428 0 .763-.117 1.005-.352.246-.234.368-.562.368-.984v-.41l-.686.03c-.546.019-.94.104-1.183.256-.24.149-.36.382-.36.699 0 .248.075.437.224.566.151.13.362.195.632.195zm2.759-4.049h.736l.992 2.585c.218.59.353 1.016.406 1.278h.033c.035-.141.11-.38.223-.72.116-.342.491-1.39 1.125-3.143h.736l-1.948 5.161c-.193.51-.419.871-.678 1.084-.256.215-.572.322-.947.322-.21 0-.416-.023-.62-.07v-.55c.151.033.321.05.508.05.472 0 .808-.265 1.009-.795l.253-.645-1.828-4.557zm8.899 2.262c0 .739-.186 1.317-.558 1.733-.373.413-.887.62-1.543.62-.405 0-.765-.095-1.079-.285a1.885 1.885 0 01-.728-.819c-.171-.356-.256-.772-.256-1.249 0-.739.184-1.313.554-1.724.369-.414.882-.62 1.538-.62.634 0 1.137.21 1.509.632.375.422.563.993.563 1.712zm-3.453 0c0 .58.116 1.02.347 1.324.232.303.572.454 1.022.454.449 0 .79-.15 1.021-.45.234-.304.352-.746.352-1.328 0-.576-.118-1.013-.352-1.31-.231-.301-.575-.451-1.03-.451-.449 0-.788.147-1.017.442-.229.295-.343.735-.343 1.32zm5.305-2.262v2.94c0 .37.085.645.253.827.168.182.431.273.79.273.474 0 .82-.13 1.038-.388.22-.26.33-.683.33-1.27v-2.382h.687v4.533h-.567l-.099-.608h-.037a1.372 1.372 0 01-.587.512 1.955 1.955 0 01-.852.178c-.552 0-.965-.13-1.241-.393-.273-.262-.409-.68-.409-1.257v-2.965h.694zm6.021 4.049c.122 0 .239-.009.352-.025.113-.02.203-.039.269-.058v.525a1.225 1.225 0 01-.331.087 2.289 2.289 0 01-.389.037c-.877 0-1.315-.462-1.315-1.385V45.94h-.649v-.331l.649-.285.29-.968h.397v1.05h1.315v.534h-1.315v2.667c0 .273.064.482.194.629.13.146.307.219.533.219z" fill="#282F36"/><path fill="#E3E8EB" d="M41 85.755h439.685v.706H41z"/></g></g><defs><clipPath id="clip0"><path fill="#fff" d="M0 0h522v214H0z"/></clipPath><clipPath id="clip1"><rect x="41" y="30" width="440" height="184" rx="7.438" fill="#fff"/></clipPath><clipPath id="clip2"><path fill="#fff" transform="translate(167.683 70.581)" d="M0 0h186.319v8.469H0z"/></clipPath><filter id="filter0_d" x="-2.388" y="-7.19" width="526.776" height="270.776" filterUnits="userSpaceOnUse" color-interpolation-filters="sRGB"><feFlood flood-opacity="0" result="BackgroundImageFix"/><feColorMatrix in="SourceAlpha" values="0 0 0 0 0 0 0 0 0 0 0 0 0 0 0 0 0 0 127 0"/><feOffset dy="6.198"/><feGaussianBlur stdDeviation="21.694"/><feColorMatrix values="0 0 0 0 0.164706 0 0 0 0 0.223529 0 0 0 0 0.294118 0 0 0 0.25 0"/><feBlend in2="BackgroundImageFix" result="effect1_dropShadow"/><feBlend in="SourceGraphic" in2="effect1_dropShadow" result="shape"/></filter><filter id="filter1_d" x="284.485" y="104.105" width="33.876" height="16.938" filterUnits="userSpaceOnUse" color-interpolation-filters="sRGB"><feFlood flood-opacity="0" result="BackgroundImageFix"/><feColorMatrix in="SourceAlpha" values="0 0 0 0 0 0 0 0 0 0 0 0 0 0 0 0 0 0 127 0"/><feOffset dy="1.412"/><feGaussianBlur stdDeviation="2.117"/><feColorMatrix values="0 0 0 0 0 0 0 0 0 0 0 0 0 0 0 0 0 0 0.25 0"/><feBlend in2="BackgroundImageFix" result="effect1_dropShadow"/><feBlend in="SourceGraphic" in2="effect1_dropShadow" result="shape"/></filter><filter id="filter2_d" x="41" y="30" width="439.685" height="34.582" filterUnits="userSpaceOnUse" color-interpolation-filters="sRGB"><feFlood flood-opacity="0" result="BackgroundImageFix"/><feColorMatrix in="SourceAlpha" values="0 0 0 0 0 0 0 0 0 0 0 0 0 0 0 0 0 0 127 0"/><feOffset dy=".706"/><feColorMatrix values="0 0 0 0 0.670588 0 0 0 0 0.686275 0 0 0 0 0.713726 0 0 0 0.2 0"/><feBlend in2="BackgroundImageFix" result="effect1_dropShadow"/><feBlend in="SourceGraphic" in2="effect1_dropShadow" result="shape"/></filter></defs></svg>