<svg width="192" height="48" viewBox="0 0 192 48" fill="none" xmlns="http://www.w3.org/2000/svg">
<g clip-path="url(#clip0_954_2154)">
<path d="M28.8517 25.0771C25.9665 22.7572 22.2104 21.3763 17.5288 20.9344C13.8815 20.6582 10.8874 19.7192 8.70995 18.1726C6.64134 16.6812 5.66147 14.9689 5.66147 12.87C5.66147 10.7158 6.64134 8.89298 8.60108 7.40161C10.6697 5.79977 13.1738 4.97123 16.059 4.97123C19.2708 4.97123 22.0471 5.85501 24.279 7.56732C26.4565 9.2244 27.5452 11.1577 27.5452 13.4223V14.4718H32.5534V13.4223C32.5534 9.72152 30.9203 6.51784 27.6541 3.92175C24.4423 1.27043 20.5228 0 16.059 0C11.8673 0 8.22002 1.27043 5.22597 3.70081C2.17749 6.18642 0.653246 9.27963 0.653246 12.87C0.653246 16.4603 2.17749 19.5535 5.17153 22.0391C8.05671 24.4143 11.9762 25.8504 16.7667 26.2371C20.3051 26.5685 23.1902 27.5075 25.2589 28.9988C27.273 30.435 28.1985 32.0921 28.1985 34.1358C28.1985 36.6214 27.0553 38.6651 24.7689 40.4327C22.3737 42.2555 19.4341 43.1392 16.059 43.1392C12.9561 43.1392 10.3975 42.0898 8.22002 39.9908C6.04253 37.8918 5.00822 35.4062 5.00822 32.4787V31.4292H0V32.4787C0 36.7871 1.57868 40.4879 4.73604 43.4707C7.83896 46.5086 11.6496 48.0552 16.059 48.0552C20.7406 48.0552 24.7689 46.7296 28.0896 44.0783C31.4647 41.3717 33.2067 38.0575 33.2067 34.191C33.2067 30.5455 31.7369 27.5075 28.8517 25.0771Z" fill="white"/>
<path d="M66.4132 20.1611H42.5697V1.10474H37.5615V46.8953H42.5697V25.0771H66.4132V46.8953H71.4215V1.10474H66.4132V20.1611Z" fill="white"/>
<path d="M91.9987 1.10474L74.1433 46.8953H79.6959L85.1941 32.9206H103.648L109.146 46.8953H114.753L97.0614 1.10474H91.9987ZM86.8272 27.9494L94.3395 8.50635L101.634 27.9494H86.8272Z" fill="white"/>
<path d="M137.781 1.10474H117.312V46.8953H122.32V27.2866H137.781C140.884 27.2866 143.551 25.9609 145.674 23.3096C147.797 20.7135 148.886 17.565 148.886 13.9195C148.886 10.4396 147.797 7.40163 145.674 4.91601C143.551 2.37516 140.884 1.10474 137.781 1.10474ZM122.32 6.1312H137.291C139.087 6.1312 140.611 6.90451 141.918 8.45111C143.279 10.1082 143.932 12.0967 143.932 14.4718C143.932 16.7365 143.279 18.5593 141.972 20.1059C140.666 21.6525 139.142 22.3706 137.345 22.3706H122.375V6.1312H122.32Z" fill="white"/>
<path d="M183.127 6.1312V1.10474H152.969V46.8953H183.127V41.9241H157.977V25.6295H180.949V20.7687H157.977V6.1312H183.127Z" fill="white"/>
<path d="M191.129 41.5926C190.53 40.985 189.768 40.6536 188.897 40.6536C188.026 40.6536 187.318 40.985 186.665 41.5926C186.066 42.2002 185.74 42.9735 185.74 43.8572C185.74 44.741 186.066 45.5143 186.72 46.1219C187.373 46.7295 188.081 47.0609 188.897 47.0609C189.714 47.0609 190.421 46.7295 191.075 46.1219C191.728 45.5143 192.054 44.741 192.054 43.8572C192 42.9735 191.728 42.2002 191.129 41.5926Z" fill="#F177AE"/>
</g>
<defs>
<clipPath id="clip0_954_2154">
<rect width="192" height="48" fill="white"/>
</clipPath>
</defs>
</svg>
