<?xml version="1.0" standalone="no"?>
<!DOCTYPE svg PUBLIC "-//W3C//DTD SVG 1.1//EN" "http://www.w3.org/Graphics/SVG/1.1/DTD/svg11.dtd" >
<svg xmlns="http://www.w3.org/2000/svg" xmlns:xlink="http://www.w3.org/1999/xlink" version="1.1">
<metadata>
Created by FontForge 20170731 at Thu Mar  3 11:32:30 2022
 By Aleksey,,,
Copyright (c) 2015 by Luzi Type. All rights reserved. |DCNT
</metadata>
<defs>
<font id="MessinaSans-Book" horiz-adv-x="1228" >
  <font-face 
    font-family="Messina Sans Book"
    font-weight="350"
    font-stretch="normal"
    units-per-em="2048"
    panose-1="0 0 4 0 0 0 0 0 0 0"
    ascent="1550"
    descent="-498"
    x-height="1026"
    cap-height="1434"
    bbox="-61 -678 2490 2249"
    underline-thickness="102"
    underline-position="-307"
    unicode-range="U+000D-25CA"
  />
<missing-glyph horiz-adv-x="956" 
 />
    <glyph glyph-name=".notdef" horiz-adv-x="956" 
 />
    <glyph glyph-name=".null" horiz-adv-x="0" 
 />
    <glyph glyph-name="nonmarkingreturn" horiz-adv-x="682" 
 />
    <glyph glyph-name="CR" unicode="&#xd;" horiz-adv-x="956" 
 />
    <glyph glyph-name="space" unicode=" " horiz-adv-x="559" 
 />
    <glyph glyph-name="exclam" unicode="!" horiz-adv-x="593" 
d="M225 1434h146v-627l-31 -401h-84l-31 401v627zM199 0v203h196v-203h-196z" />
    <glyph glyph-name="quotedbl" unicode="&#x22;" horiz-adv-x="741" 
d="M152 948l-39 557h182l-37 -557h-106zM457 948l-39 557h182l-37 -557h-106z" />
    <glyph glyph-name="numbersign" unicode="#" horiz-adv-x="1220" 
d="M1145 877h-293l-43 -297h305v-93h-321l-74 -487h-111l74 487h-260l-74 -487h-110l73 487h-256v93h273l45 297h-287v92h301l68 444h110l-67 -444h260l67 444h111l-68 -444h277v-92zM698 580l45 297h-262l-43 -297h260z" />
    <glyph glyph-name="dollar" unicode="$" horiz-adv-x="1222" 
d="M678 -31v-229h-133v235q-198 25 -320.5 153t-128.5 323h146q4 -145 86 -235t217 -116v568q-77 22 -132 43t-108.5 54t-86.5 73t-54 98.5t-23 132.5q0 173 107.5 273.5t296.5 119.5v178h133v-182q185 -19 299 -119t121 -268h-146q-4 114 -78 182t-196 86v-575
q149 -42 235 -80q213 -95 213 -315q0 -181 -127 -287q-129 -104 -321 -113zM545 803v538q-122 -12 -193 -81t-71 -185q0 -110 63.5 -170.5t200.5 -101.5zM983 354q0 57 -21 101.5t-62.5 77.5t-94.5 56.5t-127 43.5v-541q137 8 221 78t84 184z" />
    <glyph glyph-name="percent" unicode="%" horiz-adv-x="1800" 
d="M434 1460q149 0 247.5 -95.5t98.5 -246.5q0 -147 -99 -244.5t-247 -97.5q-142 0 -240 97.5t-98 244.5q0 150 97.5 246t240.5 96zM1430 1434l-912 -1434h-141l913 1434h140zM438 1346q-94 0 -153.5 -63t-59.5 -163t59.5 -163.5t153.5 -63.5q91 0 152 64t61 163
q0 98 -61 162t-152 64zM1358 651q149 0 247.5 -95.5t98.5 -246.5q0 -147 -99 -244.5t-247 -97.5q-142 0 -240 97.5t-98 244.5q0 150 97.5 246t240.5 96zM1362 537q-94 0 -153.5 -63t-59.5 -163t59.5 -163.5t153.5 -63.5q91 0 152 64t61 163q0 98 -61 162t-152 64z" />
    <glyph glyph-name="ampersand" unicode="&#x26;" horiz-adv-x="1462" 
d="M1124 266l262 -270h-182l-153 160q-170 -179 -443 -179q-93 0 -175.5 22.5t-148 66.5t-103.5 115t-38 161q0 134 83 241.5t235 168.5l-64 67q-127 133 -127 285q0 149 109.5 239.5t261.5 90.5q147 0 248.5 -87.5t101.5 -242.5q0 -132 -78 -222.5t-237 -162.5l356 -359
q62 104 62 295v33h135v-33q0 -236 -105 -389zM514 883l78 -82q126 42 193 120.5t67 178.5q0 97 -63 155t-158 58t-159 -57.5t-64 -151.5q0 -109 106 -221zM958 250l-409 422q-127 -49 -190.5 -132.5t-63.5 -185.5q0 -127 88.5 -188.5t232.5 -61.5q220 0 342 146z" />
    <glyph glyph-name="quotesingle" unicode="'" horiz-adv-x="415" 
d="M156 948l-39 557h182l-37 -557h-106z" />
    <glyph glyph-name="parenleft" unicode="(" horiz-adv-x="784" 
d="M709 -264l-68 -92q-237 147 -381 411q-143 265 -143 596t143 596q144 267 381 414l68 -94q-207 -151 -330 -391q-121 -239 -121 -525q0 -284 121 -526q121 -237 330 -389z" />
    <glyph glyph-name="parenright" unicode=")" horiz-adv-x="784" 
d="M76 1567l67 94q234 -145 379 -414q146 -271 146 -596t-146 -596q-145 -266 -379 -411l-67 92q209 152 327 389q123 240 123 526q0 288 -123 525q-120 240 -327 391z" />
    <glyph glyph-name="asterisk" unicode="*" horiz-adv-x="757" 
d="M254 936l-100 74l135 172l-213 67l35 115l213 -74l-7 226h127l-12 -226l213 72l37 -111l-213 -69l137 -172l-98 -72l-127 182z" />
    <glyph glyph-name="plus" unicode="+" 
d="M1026 705v-130h-344v-364h-133v364h-346v130h346v366h133v-366h344z" />
    <glyph glyph-name="comma" unicode="," horiz-adv-x="446" 
d="M260 12h-92v191h203v-197q0 -152 -74.5 -231t-202.5 -90l-18 86q105 20 144.5 76t39.5 165z" />
    <glyph glyph-name="hyphen" unicode="-" horiz-adv-x="780" 
d="M684 592h-588v125h588v-125z" />
    <glyph glyph-name="period" unicode="." horiz-adv-x="387" 
d="M96 0v203h195v-203h-195z" />
    <glyph glyph-name="slash" unicode="/" horiz-adv-x="870" 
d="M164 -176h-129l633 1761h129z" />
    <glyph glyph-name="zero" unicode="0" horiz-adv-x="1150" 
d="M1047 707q0 -351 -117.5 -540.5t-351.5 -189.5t-351.5 189.5t-117.5 540.5q0 350 117.5 538.5t351.5 188.5t351.5 -188.5t117.5 -538.5zM899 707q0 279 -80.5 435t-240.5 156t-241 -156t-81 -435q0 -282 80.5 -438t241.5 -156q108 0 180.5 72.5t106.5 204t34 317.5z" />
    <glyph glyph-name="one" unicode="1" horiz-adv-x="823" 
d="M571 1409v-1409h-137v1241q-128 -105 -346 -143v123q208 41 356 188h127z" />
    <glyph glyph-name="two" unicode="2" horiz-adv-x="1198" 
d="M1090 129v-129h-961v133l348 316l39 36q146 134 213 203q164 167 164 334q0 131 -80 203.5t-213 72.5q-146 0 -242 -85t-106 -242h-143q3 110 45 199.5t112 146t158.5 87t187.5 30.5q189 0 308 -107q120 -105 120 -291q0 -115 -47 -211q-46 -93 -126.5 -182t-239.5 -229
l-324 -285h787z" />
    <glyph glyph-name="three" unicode="3" horiz-adv-x="1200" 
d="M1092 381q0 -174 -138 -289t-350 -115q-217 0 -356 122t-139 339h147q6 -157 99.5 -241t256.5 -84q158 0 244 75t86 193q0 124 -101 196t-274 72h-59v139h37q171 0 270.5 78t99.5 193q0 108 -84 172.5t-219 64.5q-154 0 -245 -86t-91 -239h-145q0 214 138.5 338.5
t353.5 124.5q192 0 317 -97.5t125 -259.5q0 -119 -68.5 -211t-189.5 -133q134 -35 209.5 -128.5t75.5 -223.5z" />
    <glyph glyph-name="four" unicode="4" horiz-adv-x="1196" 
d="M885 481h235v-135h-235v-346h-137v350h-672v142l616 913h193v-924zM205 481h543v789z" />
    <glyph glyph-name="five" unicode="5" horiz-adv-x="1202" 
d="M1094 463q0 -99 -31 -186.5t-89 -154.5t-149 -106t-204 -39q-203 0 -341.5 126.5t-150.5 334.5h147q12 -150 109 -236.5t238 -86.5q154 0 239.5 95t85.5 247q0 138 -86 233q-87 96 -239 96q-175 0 -293 -112h-140l119 735h707v-129h-598l-76 -461q132 99 309 99
q201 0 322 -130.5t121 -324.5z" />
    <glyph glyph-name="six" unicode="6" horiz-adv-x="1222" 
d="M1114 459q0 -204 -133 -343t-342 -139q-108 0 -201 41t-168 125.5t-118 228.5t-43 335q-1 167 33 297.5t88 209.5t129 130.5t148 70.5t152 19q176 0 290 -101.5t126 -277.5h-149q-6 115 -81 179t-196 64q-169 0 -287 -133q-114 -132 -114 -456v-56q58 131 167 198t247 67
q196 0 324 -129.5t128 -329.5zM967 446q0 144 -93 240t-235 96q-145 0 -238 -96q-92 -95 -92 -242q0 -148 91 -239.5t237 -91.5q149 0 237 94q93 96 93 239z" />
    <glyph glyph-name="seven" unicode="7" horiz-adv-x="1150" 
d="M1075 1409v-133l-588 -1276h-141l586 1268h-885v141h1028z" />
    <glyph glyph-name="eight" unicode="8" horiz-adv-x="1175" 
d="M1067 369q0 -177 -132 -284.5t-347 -107.5t-347 107.5t-132 284.5q0 133 74.5 226.5t207.5 135.5q-246 99 -246 338q0 171 125.5 268t317.5 97t317 -97t125 -268q0 -239 -246 -338q133 -42 208 -135.5t75 -226.5zM588 801q137 0 216 71.5t79 186.5q0 108 -74 173.5
t-221 65.5t-221 -65.5t-74 -173.5q0 -115 79 -186.5t216 -71.5zM920 385q0 125 -88 203t-244 78t-244 -78t-88 -203q0 -124 87 -198t245 -74t245 74t87 198z" />
    <glyph glyph-name="nine" unicode="9" horiz-adv-x="1222" 
d="M109 952q0 204 133 343t342 139q109 0 201.5 -41t167.5 -125.5t118 -231t43 -340.5q0 -119 -16.5 -219.5t-45.5 -173t-70 -130t-86.5 -93.5t-99 -60t-105 -33.5t-105.5 -9.5q-178 0 -302.5 102.5t-136.5 276.5h150q6 -113 88.5 -178t208.5 -65q165 0 272 131
q109 133 109 458v56q-58 -131 -167 -197.5t-247 -66.5q-196 0 -324 129t-128 329zM256 965q0 -147 92 -242q91 -94 236 -94q146 0 237 94q92 95 92 244q0 148 -90.5 239.5t-236.5 91.5q-149 0 -240 -94q-90 -96 -90 -239z" />
    <glyph glyph-name="colon" unicode=":" horiz-adv-x="448" 
d="M117 0v203h194v-203h-194zM117 805v203h194v-203h-194z" />
    <glyph glyph-name="semicolon" unicode=";" horiz-adv-x="528" 
d="M197 805v203h194v-203h-194zM281 12h-93v191h203v-197q0 -152 -74 -231t-202 -90l-19 86q105 20 145 76t40 165z" />
    <glyph glyph-name="less" unicode="&#x3c;" 
d="M1049 1059l-742 -352l742 -353l-58 -114l-811 389v155l811 390z" />
    <glyph glyph-name="equal" unicode="=" 
d="M1026 848v-123h-823v123h823zM1026 555v-123h-823v123h823z" />
    <glyph glyph-name="greater" unicode="&#x3e;" 
d="M180 1059l58 115l811 -390v-155l-811 -389l-58 114l742 353z" />
    <glyph glyph-name="question" unicode="?" horiz-adv-x="1107" 
d="M432 408v75q0 109 45 187.5t141 148.5l107 80q55 41 84 89.5t29 121.5q0 111 -74 166t-197 55q-133 0 -215 -69t-86 -195h-139q0 185 130.5 287t326.5 102q185 0 291 -92.5t106 -253.5q0 -106 -46.5 -178.5t-146.5 -145.5l-77 -57q-90 -66 -122 -125t-32 -147v-49h-125z
M401 0v203h195v-203h-195z" />
    <glyph glyph-name="at" unicode="@" horiz-adv-x="1761" 
d="M1686 700q0 -156 -49.5 -285.5t-134.5 -203.5t-187 -74q-87 0 -153 55t-83 140q-51 -92 -135.5 -143.5t-183.5 -51.5q-142 0 -230 105q-88 107 -88 272q0 126 50 237t150.5 184t229.5 73q100 0 166 -42t92 -124l33 147h135l-92 -405q-22 -104 -22 -162q0 -182 133 -182
q78 -3 138 69t87.5 174.5t26.5 208.5q1 132 -47.5 242t-132 182t-193 111t-231.5 37q-155 4 -298 -62.5t-242 -175t-157 -248.5t-55 -282q-2 -108 31.5 -205t93 -169.5t138 -125t171 -78.5t187.5 -24q138 0 253 53l33 -99q-141 -63 -309 -63q-137 -2 -265.5 46t-230.5 135.5
t-162 224.5t-57 301q-4 176 66 339t189 280.5t283 186.5t341 66q108 1 210 -23t194 -77t160.5 -129t108.5 -188.5t38 -246.5zM1081 657q0 113 -53 176.5t-149 63.5q-89 0 -159.5 -57t-106 -143.5t-35.5 -182.5q0 -118 56 -189t150 -71q64 0 121 36t94.5 94t59.5 129.5
t22 143.5z" />
    <glyph glyph-name="A" unicode="A" horiz-adv-x="1474" 
d="M1239 0l-162 406h-684l-162 -406h-155l581 1434h160l582 -1434h-160zM444 535h582l-291 735z" />
    <glyph glyph-name="B" unicode="B" horiz-adv-x="1363" 
d="M1247 412q0 -80 -31.5 -154t-89.5 -131.5t-147.5 -92t-196.5 -34.5h-583v1434h608q90 0 163 -27t119 -73t70.5 -105t24.5 -125q0 -102 -56.5 -192.5t-154.5 -139.5q131 -42 202.5 -139.5t71.5 -220.5zM344 821h397q138 0 217.5 75.5t79.5 180.5q0 98 -69 163t-189 65
h-436v-484zM1094 414q0 121 -80 200.5t-217 79.5h-453v-563h438q145 0 228.5 81t83.5 202z" />
    <glyph glyph-name="C" unicode="C" horiz-adv-x="1525" 
d="M1399 1004h-154q-18 148 -145 237q-128 90 -297 90q-235 0 -379.5 -167.5t-144.5 -442.5q0 -178 58 -316.5t179 -221.5t291 -83q188 0 313 101q128 104 137 282h152q-8 -156 -92 -275.5t-220.5 -182t-301.5 -62.5q-158 -2 -286.5 57t-211.5 162.5t-127.5 241t-42.5 295.5
q0 222 86 392.5t241 263.5t355 93q155 0 281.5 -53.5t209.5 -160t99 -250.5z" />
    <glyph glyph-name="D" unicode="D" horiz-adv-x="1458" 
d="M1331 741q1 -114 -27 -222.5t-87.5 -203t-142.5 -165.5t-199.5 -111.5t-251.5 -38.5h-424v1434h450q163 0 294 -55.5t215 -151.5t128.5 -220.5t44.5 -265.5zM1182 731q0 117 -35 220t-101.5 182.5t-172 125.5t-236.5 46h-293v-1174h281q132 0 240 49.5t176 134
t104.5 191.5t36.5 225z" />
    <glyph glyph-name="E" unicode="E" horiz-adv-x="1241" 
d="M1135 0h-936v1434h897v-129h-752v-514h688v-132h-688v-528h791v-131z" />
    <glyph glyph-name="F" unicode="F" horiz-adv-x="1140" 
d="M344 659v-659h-145v1434h897v-129h-752v-514h688v-132h-688z" />
    <glyph glyph-name="G" unicode="G" horiz-adv-x="1589" 
d="M778 586v131h623v-717h-135v223q-63 -118 -191.5 -189t-292.5 -71q-122 -2 -228 36.5t-184 108.5t-133.5 164.5t-83 208t-26.5 236.5q0 218 86.5 389.5t241.5 266.5t352 95q152 0 280 -53.5t213 -160.5t101 -250h-154q-21 149 -143 237q-125 90 -295 90
q-240 0 -386.5 -164t-146.5 -442q0 -174 60 -315t180.5 -226.5t282.5 -85.5q206 0 335.5 132.5t129.5 355.5h-486z" />
    <glyph glyph-name="H" unicode="H" horiz-adv-x="1472" 
d="M1274 1434v-1434h-146v657h-784v-657h-145v1434h145v-648h784v648h146z" />
    <glyph glyph-name="I" unicode="I" horiz-adv-x="563" 
d="M354 1434v-1434h-145v1434h145z" />
    <glyph glyph-name="J" unicode="J" horiz-adv-x="1044" 
d="M866 1434v-1047q0 -203 -107.5 -313.5t-289.5 -110.5q-176 0 -289.5 106t-113.5 291v123h145v-118q0 -128 69.5 -198.5t188.5 -70.5q117 0 184.5 72.5t67.5 206.5v1059h145z" />
    <glyph glyph-name="K" unicode="K" horiz-adv-x="1343" 
d="M1106 0l-528 727l-234 -250v-477h-145v1434h145v-768l703 768h188l-555 -594l608 -840h-182z" />
    <glyph glyph-name="L" unicode="L" horiz-adv-x="1142" 
d="M1067 131v-131h-868v1434h145v-1303h723z" />
    <glyph glyph-name="M" unicode="M" horiz-adv-x="1753" 
d="M1554 1434v-1434h-143v1251l-481 -1251h-115l-477 1251v-1251h-139v1434h217l458 -1217l463 1217h217z" />
    <glyph glyph-name="N" unicode="N" horiz-adv-x="1466" 
d="M1268 1434v-1434h-156l-772 1233v-1233h-141v1434h186l743 -1201v1201h140z" />
    <glyph glyph-name="O" unicode="O" horiz-adv-x="1642" 
d="M1516 717q1 -122 -28.5 -235t-89 -208t-142 -165t-195 -109t-240.5 -37q-160 -2 -293 58t-220.5 164.5t-135 241.5t-45.5 290q-2 152 45.5 288.5t135 240.5t220.5 164t293 58q128 2 240.5 -37t195 -109t142 -164.5t89 -207t28.5 -233.5zM1364 719q0 129 -35.5 239.5
t-102.5 194t-171.5 131t-233.5 47.5q-172 0 -296.5 -83t-185 -219.5t-60.5 -309.5q0 -129 36.5 -241t103.5 -196.5t171 -133t231 -48.5q169 0 294 84t187 223t62 312z" />
    <glyph glyph-name="P" unicode="P" horiz-adv-x="1261" 
d="M1176 1034q0 -84 -30 -160.5t-86 -136.5t-144 -95.5t-195 -35.5h-379v-606h-143v1434h546q101 0 183.5 -32.5t136 -88t82.5 -127.5t29 -152zM1030 1022q0 122 -82 202.5t-221 80.5h-385v-572h379q144 0 226.5 84.5t82.5 204.5z" />
    <glyph glyph-name="Q" unicode="Q" horiz-adv-x="1642" 
d="M1227 86l231 -340h-166l-186 272q-131 -55 -285 -55q-160 -2 -293 58t-220.5 164.5t-135 241.5t-45.5 290q-2 152 45.5 288.5t135 240.5t220.5 164t293 58q128 2 240.5 -37t195 -109t142 -164.5t89 -207t28.5 -233.5q0 -199 -75.5 -365.5t-213.5 -265.5zM1026 137
l-293 428h170l244 -360q105 84 161 218t56 296q0 129 -35.5 239.5t-102.5 194t-171.5 131t-233.5 47.5q-172 0 -296.5 -83t-185 -219.5t-60.5 -309.5q0 -129 36.5 -241t103.5 -196.5t171 -133t231 -48.5q115 0 205 37z" />
    <glyph glyph-name="R" unicode="R" horiz-adv-x="1327" 
d="M1262 0h-170l-392 621h-358v-621h-143v1434h530q104 0 189.5 -31.5t140.5 -85.5t85 -124.5t30 -150.5q0 -131 -84 -247q-80 -111 -232 -152zM342 750h377q142 0 226.5 83.5t84.5 202.5q0 116 -78.5 192.5t-214.5 76.5h-395v-555z" />
    <glyph glyph-name="S" unicode="S" horiz-adv-x="1277" 
d="M674 -37q-152 0 -276.5 58t-200.5 172t-80 264h155q6 -180 121 -269q119 -90 281 -90q150 0 243 70t93 190q0 89 -54 146q-50 51 -120 78.5t-215 62.5q-89 21 -153 42t-125.5 54.5t-99.5 76t-61.5 104.5t-25.5 141q0 191 135 299q132 106 352 106q210 0 348 -102
q141 -102 150 -299h-152q-4 131 -98.5 200.5t-247.5 69.5q-155 0 -248.5 -71t-93.5 -199q0 -93 47 -149q47 -51 117.5 -80t212.5 -62q170 -41 252 -76q106 -41 168.5 -122t62.5 -205q0 -128 -65.5 -222.5t-174.5 -141t-247 -46.5z" />
    <glyph glyph-name="T" unicode="T" horiz-adv-x="1216" 
d="M1171 1434v-129h-491v-1305h-145v1305h-490v129h1126z" />
    <glyph glyph-name="U" unicode="U" horiz-adv-x="1443" 
d="M1122 1434h144v-934q0 -254 -146.5 -395.5t-396.5 -141.5q-245 0 -395 141.5t-150 395.5v934h146v-920q0 -202 108.5 -309t296.5 -107q182 0 287.5 100.5t105.5 290.5v945z" />
    <glyph glyph-name="V" unicode="V" horiz-adv-x="1312" 
d="M1094 1434h153l-520 -1434h-141l-520 1434h159l432 -1260z" />
    <glyph glyph-name="W" unicode="W" horiz-adv-x="1949" 
d="M1874 1434l-381 -1434h-147l-369 1223l-369 -1223h-149l-383 1434h153l308 -1235l368 1235h150l366 -1241l308 1241h145z" />
    <glyph glyph-name="X" unicode="X" horiz-adv-x="1357" 
d="M86 0l502 739l-473 695h178l385 -568l383 568h176l-471 -691l506 -743h-182l-412 610l-414 -610h-178z" />
    <glyph glyph-name="Y" unicode="Y" horiz-adv-x="1288" 
d="M1055 1434h168l-506 -871v-563h-146v563l-505 871h172l409 -742z" />
    <glyph glyph-name="Z" unicode="Z" horiz-adv-x="1312" 
d="M127 0v129l889 1176h-864v129h1036v-129l-885 -1174h903v-131h-1079z" />
    <glyph glyph-name="bracketleft" unicode="[" horiz-adv-x="638" 
d="M158 -317v1935h385v-123h-244v-1690h244v-122h-385z" />
    <glyph glyph-name="backslash" unicode="\" horiz-adv-x="872" 
d="M688 -176l-633 1761h129l633 -1761h-129z" />
    <glyph glyph-name="bracketright" unicode="]" horiz-adv-x="638" 
d="M481 -317h-385v122h244v1690h-244v123h385v-1935z" />
    <glyph glyph-name="asciicircum" unicode="^" horiz-adv-x="944" 
d="M698 893l-227 397l-225 -397h-150l310 541h133l309 -541h-150z" />
    <glyph glyph-name="underscore" unicode="_" horiz-adv-x="1146" 
d="M1051 -166h-955v125h955v-125z" />
    <glyph glyph-name="grave" unicode="`" horiz-adv-x="348" 
d="M0 1495l121 88l227 -350h-115z" />
    <glyph glyph-name="a" unicode="a" horiz-adv-x="1114" 
d="M811 0v186q-55 -101 -158.5 -155t-220.5 -54q-143 0 -234.5 81.5t-91.5 220.5q0 256 324 303l232 34q76 11 112.5 40t36.5 92q0 82 -62.5 127t-179.5 45q-122 0 -194 -49.5t-90 -139.5h-144q26 150 140.5 231.5t298.5 81.5q177 0 271.5 -83t94.5 -238v-723h-135zM633 500
l-156 -25q-104 -16 -162 -53q-65 -38 -65 -139q0 -88 56 -133.5t151 -45.5q89 0 167.5 38.5t130.5 118t52 183.5v103q-49 -28 -174 -47z" />
    <glyph glyph-name="b" unicode="b" horiz-adv-x="1241" 
d="M1135 520q0 -242 -129.5 -392.5t-335.5 -150.5q-126 0 -220.5 58t-138.5 153v-188h-133v1456h139v-637q42 101 139.5 163t227.5 62q200 0 325.5 -144t125.5 -380zM993 512q0 184 -90.5 291.5t-243.5 107.5q-154 0 -248 -110t-94 -297q0 -183 93 -293.5t243 -110.5
q154 0 247 112t93 300z" />
    <glyph glyph-name="c" unicode="c" horiz-adv-x="1124" 
d="M575 -23q-215 0 -342 143.5t-127 385.5q0 241 132 389.5t352 148.5q178 0 297 -94q122 -96 131 -264h-135q-12 108 -94 172t-201 64q-155 0 -247.5 -111.5t-92.5 -300.5q0 -186 90.5 -295t245.5 -109q120 0 203.5 69t93.5 183h137q-12 -170 -140.5 -275.5t-302.5 -105.5z
" />
    <glyph glyph-name="d" unicode="d" horiz-adv-x="1243" 
d="M1065 1456v-1456h-133v199q-43 -98 -139 -160t-226 -62q-203 0 -332 150t-129 387q0 238 129 384t334 146q122 0 217.5 -53t139.5 -139v604h139zM924 518q0 184 -93.5 293t-244.5 109q-153 0 -244.5 -110t-91.5 -296q0 -185 93 -296.5t243 -111.5q153 0 245.5 112
t92.5 300z" />
    <glyph glyph-name="e" unicode="e" horiz-adv-x="1132" 
d="M1026 479h-782q0 -184 98 -278q102 -97 244 -97q104 0 181.5 50t106.5 141h138q-36 -153 -155 -235.5t-279 -82.5q-96 0 -181 34.5t-150 99.5t-103 168t-38 231q0 130 38 233t104.5 168t152 99t183.5 34q196 0 319 -127.5t123 -367.5v-70zM248 598h637q0 150 -85.5 237
t-221.5 87q-134 0 -226 -85.5t-104 -238.5z" />
    <glyph glyph-name="f" unicode="f" horiz-adv-x="694" 
d="M639 1331h-113q-80 0 -110.5 -33.5t-30.5 -113.5v-158h227v-125h-227v-901h-139v901h-170v125h170v162q0 146 66 207t192 61h135v-125z" />
    <glyph glyph-name="g" unicode="g" horiz-adv-x="1224" 
d="M1057 1026v-981q0 -223 -125.5 -342t-339.5 -119q-178 0 -311 92q-131 90 -152 263h141q18 -108 99 -169t223 -61q154 0 242 83.5t88 246.5v203q-52 -102 -148.5 -152.5t-214.5 -50.5q-199 0 -326 133t-127 369q0 119 36 215.5t98.5 158.5t145.5 95.5t179 33.5
q120 0 212.5 -49t142.5 -135v166h137zM913 541q0 181 -91.5 282t-237.5 101q-143 0 -241.5 -101.5t-98.5 -279.5t96.5 -278.5t241.5 -100.5q141 0 235 94q96 96 96 283z" />
    <glyph glyph-name="h" unicode="h" horiz-adv-x="1198" 
d="M1030 702v-702h-139v686q0 106 -67 170t-179 64q-140 0 -234 -102.5t-94 -278.5v-539h-139v1456h139v-629q108 217 355 217q164 0 261 -90t97 -252z" />
    <glyph glyph-name="i" unicode="i" horiz-adv-x="485" 
d="M164 1270v184h158v-184h-158zM174 0v1026h139v-1026h-139z" />
    <glyph glyph-name="j" unicode="j" horiz-adv-x="501" 
d="M190 1272v182h158v-182h-158zM201 1026h139v-1153q0 -146 -65.5 -206t-192.5 -60h-78v123h53q80 0 112 35t32 112v1149z" />
    <glyph glyph-name="k" unicode="k" horiz-adv-x="1118" 
d="M1053 0h-164l-385 496l-187 -191v-305h-139v1456h139v-977l525 547h182l-424 -432z" />
    <glyph glyph-name="l" unicode="l" horiz-adv-x="495" 
d="M317 1456v-1456h-139v1456h139z" />
    <glyph glyph-name="m" unicode="m" horiz-adv-x="1755" 
d="M178 0v1026h137v-170q41 91 119.5 139.5t179.5 48.5q116 0 198.5 -57.5t107.5 -155.5q38 97 124.5 155t210.5 58q150 0 241 -81.5t91 -227.5v-735h-139v686q0 114 -59 175t-158 61q-124 0 -201.5 -90.5t-77.5 -245.5v-586h-139v686q0 113 -58 174.5t-157 61.5
q-122 0 -201.5 -91t-79.5 -245v-586h-139z" />
    <glyph glyph-name="n" unicode="n" horiz-adv-x="1198" 
d="M1030 702v-702h-139v686q0 106 -67 170t-179 64q-140 0 -234 -102.5t-94 -278.5v-539h-139v1026h139v-190q51 99 140.5 153.5t214.5 54.5q164 0 261 -90t97 -252z" />
    <glyph glyph-name="o" unicode="o" horiz-adv-x="1193" 
d="M106 512q0 242 136 387t354 145q219 0 355 -144.5t136 -389.5q0 -242 -136 -387.5t-353 -145.5q-219 0 -355.5 145t-136.5 390zM944 518q0 184 -99 290.5t-251 106.5q-156 0 -250 -110t-94 -295q0 -183 99 -292t251 -109q155 0 249.5 110t94.5 299z" />
    <glyph glyph-name="p" unicode="p" horiz-adv-x="1241" 
d="M1135 520q0 -131 -38.5 -234.5t-104.5 -167t-149 -96t-177 -32.5q-121 0 -210.5 50t-138.5 138v-571h-139v1419h135v-215q36 101 136.5 167t230.5 66q90 0 170 -32.5t144.5 -94.5t102.5 -164.5t38 -232.5zM991 514q0 193 -96 297q-93 100 -236 100q-68 0 -128.5 -24
t-108 -71.5t-75.5 -125.5t-28 -178q0 -191 94 -294t242 -103t242 103t94 296z" />
    <glyph glyph-name="q" unicode="q" horiz-adv-x="1230" 
d="M1063 -393h-139v590q-45 -94 -139.5 -150.5t-215.5 -56.5q-92 0 -174 33t-147 97t-103.5 167.5t-38.5 234.5q0 129 38 231t103 164.5t146.5 94.5t173.5 32q123 0 220.5 -54.5t140.5 -143.5v180h135v-1419zM922 520q0 193 -95 296.5t-243 103.5t-241 -103t-93 -297
t95 -296.5t239 -102.5q143 0 240.5 102t97.5 297z" />
    <glyph glyph-name="r" unicode="r" horiz-adv-x="745" 
d="M690 1038v-133h-33q-166 0 -253 -91t-87 -269v-545h-139v1026h137v-188q35 97 121 148.5t209 51.5h45z" />
    <glyph glyph-name="s" unicode="s" horiz-adv-x="1032" 
d="M936 291q0 -154 -115 -234t-280 -80q-176 0 -303 89t-142 249h150q17 -103 97.5 -158t199.5 -55q108 0 178 45.5t70 124.5q0 74 -58 110t-182 56q-130 19 -225 47q-91 28 -148 90.5t-57 165.5q0 144 107 223.5t280 79.5q174 0 284 -81t117 -226h-145q-7 88 -79.5 136.5
t-182.5 48.5q-107 0 -171.5 -46.5t-64.5 -125.5q2 -24 7 -42.5t15.5 -34t21 -26.5t31.5 -21t37.5 -16t48.5 -13.5t54.5 -11.5t65.5 -12q118 -20 203 -43q186 -55 186 -239z" />
    <glyph glyph-name="t" unicode="t" horiz-adv-x="741" 
d="M655 127v-127h-149q-125 0 -191 51q-67 52 -67 209v641h-203v125h203v291l139 39v-330h248v-125h-248v-631q0 -76 31 -109.5t110 -33.5h127z" />
    <glyph glyph-name="u" unicode="u" horiz-adv-x="1177" 
d="M999 0h-133v195q-53 -102 -141.5 -154.5t-200.5 -52.5q-158 0 -257 96t-99 264v678h139v-661q0 -119 67 -186.5t175 -67.5q133 0 222 101t89 284v530h139v-1026z" />
    <glyph glyph-name="v" unicode="v" horiz-adv-x="1044" 
d="M852 1026h147l-401 -1026h-152l-401 1026h152l327 -883z" />
    <glyph glyph-name="w" unicode="w" horiz-adv-x="1628" 
d="M1573 1026l-344 -1026h-139l-277 817l-276 -817h-138l-344 1026h144l272 -842l270 842h142l280 -844l267 844h143z" />
    <glyph glyph-name="x" unicode="x" horiz-adv-x="1099" 
d="M66 0l395 526l-375 500h176l287 -397l287 397h168l-367 -496l397 -530h-178l-309 428l-307 -428h-174z" />
    <glyph glyph-name="y" unicode="y" horiz-adv-x="1001" 
d="M817 1026h139l-426 -1116q-51 -136 -128.5 -191t-217.5 -55h-55v123h57q87 0 143 38t87 126l22 63l-393 1012h148l311 -838z" />
    <glyph glyph-name="z" unicode="z" horiz-adv-x="1050" 
d="M117 0v127l647 774h-637v125h807v-125l-649 -774h647v-127h-815z" />
    <glyph glyph-name="braceleft" unicode="{" horiz-adv-x="694" 
d="M193 633q198 -40 198 -213v-561q0 -50 7 -79t27.5 -44.5t47.5 -20t78 -4.5h67v-104h-124q-43 0 -72 3.5t-63.5 17.5t-55.5 39t-36 70.5t-17 110.5v519q0 75 -17.5 113.5t-56 58.5t-121.5 39v108q122 27 158.5 63.5t36.5 145.5v518q2 65 17 111t36 71.5t55 39.5t64 18
t72 4h124v-105h-67q-51 0 -78 -4t-47.5 -19.5t-27.5 -44.5t-7 -79v-563q0 -179 -198 -209z" />
    <glyph glyph-name="bar" unicode="|" horiz-adv-x="456" 
d="M299 1663v-1892h-141v1892h141z" />
    <glyph glyph-name="braceright" unicode="}" horiz-adv-x="694" 
d="M303 842v563q0 50 -7 79t-27.5 44.5t-47.5 19.5t-78 4h-67v105h125q42 0 72 -4t63.5 -18t55 -39.5t36 -71.5t16.5 -111v-518q0 -109 36.5 -145.5t158.5 -63.5v-108q-83 -19 -121.5 -39t-56 -58.5t-17.5 -113.5v-519q-2 -65 -17 -110.5t-35.5 -70.5t-55 -39t-63.5 -17.5
t-72 -3.5h-125v104h67q51 0 78 4.5t47.5 20t27.5 44.5t7 79v561q0 173 199 213q-199 30 -199 209z" />
    <glyph glyph-name="asciitilde" unicode="~" 
d="M807 532q-48 0 -92.5 18.5t-120.5 63.5q-104 66 -156 66q-96 0 -123 -133h-114q7 126 70 202t155 76q45 0 89 -18t116 -62q59 -37 96 -53t72 -16q52 0 82.5 42t31.5 122h115q0 -145 -60.5 -226.5t-160.5 -81.5z" />
    <glyph glyph-name="exclamdown" unicode="&#xa1;" horiz-adv-x="593" 
d="M199 987h196v-203h-196v203zM225 -446v626l31 402h84l31 -402v-626h-146z" />
    <glyph glyph-name="cent" unicode="&#xa2;" horiz-adv-x="1077" 
d="M614 -20v-222h-135v226q-174 27 -278.5 164.5t-104.5 367.5q0 226 105 361t278 161v191h135v-187q155 -14 256.5 -111t108.5 -249h-137q-7 97 -70 160.5t-158 77.5v-814q100 14 165 83t69 173h133q-4 -161 -105 -262.5t-262 -119.5zM479 117v794q-113 -30 -177 -129
t-64 -264q0 -168 64 -269.5t177 -131.5z" />
    <glyph glyph-name="sterling" unicode="&#xa3;" horiz-adv-x="1239" 
d="M868 -23q-86 0 -159 34.5t-181 115.5q-38 -52 -68 -81t-74.5 -49t-100.5 -20q-99 0 -152 55.5t-53 141.5q0 90 55 151.5t150 61.5q46 0 84 -15.5t102 -58.5q23 135 23 297v123h-246v127h246v260q0 149 78 231.5t206 82.5h193v-119h-164q-76 0 -122 -49.5t-46 -139.5v-266
h299v-127h-299v-88q0 -297 -61 -422q84 -64 149.5 -94.5t128.5 -30.5q176 0 176 221h129q-1 -169 -78.5 -255.5t-214.5 -86.5zM438 205q-64 67 -149 67q-48 0 -73.5 -24t-25.5 -64q0 -44 25 -68t74 -24q50 0 90 28t59 85z" />
    <glyph glyph-name="currency" unicode="&#xa4;" horiz-adv-x="1214" 
d="M918 307l190 -239l-104 -82l-191 235q-89 -53 -205 -53t-205 53l-192 -235l-105 82l191 239q-98 116 -98 271q0 154 98 270l-191 239l105 82l190 -237q94 55 207 55q116 0 205 -53l191 235l104 -82l-190 -239q98 -116 98 -270q0 -155 -98 -271zM608 303q115 0 193 78
q80 80 80 197q0 113 -81 193.5t-192 80.5q-114 0 -194 -80t-80 -194q0 -116 78 -197q81 -78 196 -78z" />
    <glyph glyph-name="yen" unicode="&#xa5;" horiz-adv-x="1273" 
d="M709 727v-57h338v-127h-338v-160h338v-127h-338v-256h-146v256h-336v127h336v160h-336v127h336v57l-409 707h168l323 -590l324 590h153z" />
    <glyph glyph-name="brokenbar" unicode="&#xa6;" horiz-adv-x="456" 
d="M158 866v797h141v-797h-141zM299 567v-796h-141v796h141z" />
    <glyph glyph-name="section" unicode="&#xa7;" horiz-adv-x="1050" 
d="M942 268q0 -136 -111.5 -220.5t-291.5 -84.5q-187 0 -312 90q-122 93 -131 242h148q13 -97 96.5 -155t208.5 -58q112 0 181 48t69 126q0 75 -62.5 111.5t-195.5 56.5q-114 19 -203 43q-88 27 -141.5 87.5t-53.5 158.5q0 167 146 229q-61 32 -96 91.5t-35 131.5
q0 135 107.5 217t281.5 82q175 0 288 -83.5t113 -213.5h-147q0 81 -70 127.5t-192 46.5q-113 0 -176.5 -46t-63.5 -130q0 -61 39 -94q35 -28 81.5 -40t160.5 -27q190 -27 282 -86t92 -183q0 -172 -166 -246q154 -71 154 -221zM567 555q116 0 183 43t67 117q0 97 -104 131
q-100 33 -203 33q-109 0 -170 -42.5t-61 -117.5q0 -96 96 -131q90 -33 192 -33z" />
    <glyph glyph-name="dieresis" unicode="&#xa8;" horiz-adv-x="532" 
d="M164 1233h-164v178h164v-178zM532 1233h-163v178h163v-178z" />
    <glyph glyph-name="copyright" unicode="&#xa9;" horiz-adv-x="1740" 
d="M1614 717q2 -160 -55 -301t-157 -239.5t-238.5 -154t-293.5 -53.5q-155 -2 -294 53.5t-238.5 154t-156.5 239.5t-54 301q-3 160 54 301t156.5 239t238 153.5t294.5 53.5q155 2 293.5 -53.5t238.5 -153.5t157 -239t55 -301zM1503 717q0 143 -48 264t-132.5 205t-201 131
t-251.5 47q-180 0 -323.5 -80.5t-226 -228.5t-82.5 -338t82.5 -338t226 -228.5t323.5 -80.5q135 0 251.5 47t201 131t132.5 205t48 264zM1108 610h121q0 -156 -103 -245t-252 -89q-171 0 -276.5 122t-105.5 325t108 323.5t277 120.5q151 0 247.5 -87t96.5 -232h-121
q-1 95 -63 151t-158 56q-119 0 -192 -88t-73 -240q0 -151 74.5 -244.5t192.5 -93.5q99 0 163 60t64 161z" />
    <glyph glyph-name="ordfeminine" unicode="&#xaa;" horiz-adv-x="935" 
d="M768 1180v-557h-127v129q-47 -74 -122.5 -111t-160.5 -37q-111 0 -181.5 62.5t-70.5 169.5q0 125 72 172q77 49 168 63l158 27q76 13 105.5 35t29.5 75q0 111 -164 111q-177 0 -211 -141h-133q17 120 112 188t238 68q137 0 212 -64t75 -190zM502 999l-94 -14
q-88 -13 -129 -41.5t-41 -95.5q0 -64 39.5 -95.5t109.5 -31.5q107 0 179.5 66t72.5 178v71q-59 -26 -137 -37z" />
    <glyph glyph-name="guillemotleft" unicode="&#xab;" horiz-adv-x="1130" 
d="M281 582l272 -310l-96 -86l-351 396l351 395l96 -88zM690 582l273 -310l-97 -86l-350 396l350 395l97 -88z" />
    <glyph glyph-name="logicalnot" unicode="&#xac;" 
d="M272 575v130h684v-494h-133v364h-551z" />
    <glyph glyph-name="registered" unicode="&#xae;" horiz-adv-x="1028" 
d="M981 997q0 -200 -134.5 -333.5t-330.5 -133.5q-198 0 -332.5 133.5t-134.5 333.5q0 203 134 337t333 134q198 0 331.5 -134t133.5 -337zM897 997q0 172 -109 282t-272 110q-162 0 -272.5 -110.5t-110.5 -281.5q0 -168 110.5 -277.5t272.5 -109.5q163 0 272 109t109 278z
M618 942l109 -170h-98l-101 158h-88v-158h-86v473h187q82 0 127 -45.5t45 -116.5q0 -46 -24.5 -84.5t-70.5 -56.5zM440 1163v-153h105q38 0 60 20t22 53q0 38 -21 59t-61 21h-105z" />
    <glyph glyph-name="overscore" unicode="&#xaf;" horiz-adv-x="610" 
d="M610 1233h-610v108h610v-108z" />
    <glyph glyph-name="degree" unicode="&#xb0;" horiz-adv-x="835" 
d="M414 1548q149 0 247.5 -95.5t98.5 -246.5q0 -147 -99 -244.5t-247 -97.5q-142 0 -240 97.5t-98 244.5q0 150 97.5 246t240.5 96zM418 1434q-94 0 -153.5 -63t-59.5 -163t59.5 -163.5t153.5 -63.5q91 0 152 64t61 163q0 98 -61 162t-152 64z" />
    <glyph glyph-name="plusminus" unicode="&#xb1;" 
d="M1026 1032v-129h-344v-364h-133v364h-346v129h346v367h133v-367h344zM1026 354v-129h-823v129h823z" />
    <glyph glyph-name="uni00B2" unicode="&#xb2;" horiz-adv-x="741" 
d="M688 674v-119h-622v129l204 174l45 39q126 111 164 156q45 51 45 112q0 66 -43.5 105t-118.5 39q-78 0 -125.5 -46t-52.5 -126h-131q0 134 91 215.5t235 81.5q129 0 206 -68.5t77 -179.5q0 -75 -33 -131q-29 -56 -72 -100t-131 -115l-43 -37l-152 -129h457z" />
    <glyph glyph-name="uni00B3" unicode="&#xb3;" horiz-adv-x="743" 
d="M688 788q0 -110 -85 -178.5t-220 -68.5q-148 0 -238 79.5t-90 210.5h135q0 -77 51 -121t138 -44q75 0 124.5 36t49.5 91q0 63 -53.5 98t-151.5 35h-51v116h47q87 0 139 39t52 105q0 59 -42 91t-118 32q-83 0 -129.5 -45t-46.5 -129h-136q0 137 86 218t232 81
q129 0 208 -62t79 -164q0 -88 -46 -142.5t-122 -66.5q188 -48 188 -211z" />
    <glyph glyph-name="acute" unicode="&#xb4;" horiz-adv-x="348" 
d="M348 1495l-233 -262h-115l227 350z" />
    <glyph glyph-name="paragraph" unicode="&#xb6;" horiz-adv-x="1353" 
d="M557 1434h330v-1702h-133v874h-176q-110 0 -197.5 34.5t-142 94t-83 135t-28.5 160.5q0 84 27 156t78.5 128t135 88t189.5 32zM1155 1434v-1702h-133v1702h133zM272 1020q0 -127 79.5 -208t226.5 -81h176v576h-181q-144 0 -222.5 -80t-78.5 -207z" />
    <glyph glyph-name="middot" unicode="&#xb7;" horiz-adv-x="387" 
d="M96 594v203h195v-203h-195z" />
    <glyph glyph-name="cedilla" unicode="&#xb8;" horiz-adv-x="403" 
d="M403 -262q0 -70 -54.5 -117t-145.5 -47q-115 0 -203 76l53 74q80 -62 152 -62q44 0 70 20t26 56q0 43 -46 62.5t-144 19.5v182h94v-115q92 -5 145 -44.5t53 -104.5z" />
    <glyph glyph-name="uni00B9" unicode="&#xb9;" horiz-adv-x="759" 
d="M444 674h236v-119h-598v119h231v569q-90 -65 -219 -80v125q136 21 236 121h114v-735z" />
    <glyph glyph-name="ordmasculine" unicode="&#xba;" horiz-adv-x="968" 
d="M106 1024q0 188 105 299t272 111q169 0 273 -113q106 -109 106 -299q0 -189 -104 -299q-105 -111 -273 -111q-166 0 -274 111q-105 114 -105 301zM752 1028q0 140 -76 223.5t-195 83.5t-191.5 -85.5t-72.5 -227.5q0 -140 75.5 -224.5t194.5 -84.5q120 0 192.5 84.5
t72.5 230.5z" />
    <glyph glyph-name="guillemotright" unicode="&#xbb;" horiz-adv-x="1130" 
d="M440 582l-272 307l96 88l350 -395l-350 -396l-96 86zM850 582l-272 307l96 88l350 -395l-350 -396l-96 86z" />
    <glyph glyph-name="onequarter" unicode="&#xbc;" horiz-adv-x="2056" 
d="M1612 1434l-887 -1434h-143l888 1434h142zM561 672h236v-119h-598v119h231v569q-90 -65 -219 -80v125q134 20 235 121h115v-735zM1858 170h-115v-172h-133v174h-408v111l385 569h156v-561h115v-121zM1333 291h277v403z" />
    <glyph glyph-name="onehalf" unicode="&#xbd;" horiz-adv-x="2146" 
d="M1948 117v-119h-623v129l205 174l45 39q126 111 164 156q45 51 45 112q0 66 -43.5 105t-118.5 39q-78 0 -125.5 -46t-52.5 -126h-131q0 134 90.5 215.5t234.5 81.5q129 0 206 -68.5t77 -179.5q0 -75 -33 -131q-29 -56 -72 -100.5t-130 -114.5l-44 -37l-151 -129h457z
M1612 1434l-887 -1434h-143l888 1434h142zM561 672h236v-119h-598v119h231v569q-90 -65 -219 -80v125q134 20 235 121h115v-735z" />
    <glyph glyph-name="threequarters" unicode="&#xbe;" horiz-adv-x="2101" 
d="M831 788q0 -110 -85 -178.5t-220 -68.5q-148 0 -237.5 79.5t-89.5 210.5h135q0 -77 50.5 -121t137.5 -44q75 0 124.5 36t49.5 91q0 63 -53 98t-151 35h-52v116h47q87 0 139 39t52 105q0 59 -42 91t-118 32q-83 0 -129.5 -45t-46.5 -129h-135q0 137 85.5 218t231.5 81
q129 0 208 -62t79 -164q0 -88 -46 -142.5t-122 -66.5q188 -48 188 -211zM1653 1434l-887 -1434h-143l888 1434h142zM1903 170h-115v-172h-133v174h-408v111l385 569h156v-561h115v-121zM1378 291h277v403z" />
    <glyph glyph-name="questiondown" unicode="&#xbf;" horiz-adv-x="1107" 
d="M707 1040v-202h-195v202h195zM676 633v-76q0 -109 -45.5 -187.5t-141.5 -148.5l-106 -80q-55 -41 -84 -89.5t-29 -121.5q0 -111 74 -166t197 -55q133 0 215 69t86 195h139q0 -185 -130.5 -287t-326.5 -102q-185 0 -291 92.5t-106 253.5q0 73 23.5 131.5t63 101.5
t105.5 91l78 57q89 65 121.5 125t32.5 148v49h125z" />
    <glyph glyph-name="Agrave" unicode="&#xc0;" horiz-adv-x="1474" 
d="M1239 0l-162 406h-684l-162 -406h-155l581 1434h160l582 -1434h-160zM444 535h582l-291 735zM449 1851l120 91l228 -353h-115z" />
    <glyph glyph-name="Aacute" unicode="&#xc1;" horiz-adv-x="1474" 
d="M1239 0l-162 406h-684l-162 -406h-155l581 1434h160l582 -1434h-160zM444 535h582l-291 735zM1051 1851l-234 -262h-115l228 353z" />
    <glyph glyph-name="Acircumflex" unicode="&#xc2;" horiz-adv-x="1474" 
d="M1239 0l-162 406h-684l-162 -406h-155l581 1434h160l582 -1434h-160zM444 535h582l-291 735zM887 1589l-150 189l-149 -189h-144l246 312h94l246 -312h-143z" />
    <glyph glyph-name="Atilde" unicode="&#xc3;" horiz-adv-x="1474" 
d="M885 1589q-34 0 -63 15t-87 57q-68 55 -100 55q-67 0 -88 -117h-98q10 114 59 179t119 65q34 0 63.5 -15.5t83.5 -55.5q40 -32 61.5 -44t43.5 -12q71 0 86 123h88q0 -115 -48 -182.5t-120 -67.5zM1239 0l-162 406h-684l-162 -406h-155l581 1434h160l582 -1434h-160z
M444 535h582l-291 735z" />
    <glyph glyph-name="Adieresis" unicode="&#xc4;" horiz-adv-x="1474" 
d="M637 1589h-168v183h168v-183zM1008 1589h-168v183h168v-183zM1239 0l-162 406h-684l-162 -406h-155l581 1434h160l582 -1434h-160zM444 535h582l-291 735z" />
    <glyph glyph-name="Aring" unicode="&#xc5;" horiz-adv-x="1474" 
d="M549 1759q0 84 52.5 135.5t133.5 51.5q83 0 137 -51.5t54 -135.5q0 -82 -54.5 -136t-136.5 -54q-80 0 -133 54t-53 136zM838 1759q0 44 -30 74.5t-73 30.5q-42 0 -70 -30t-28 -75t28 -76.5t70 -31.5q43 0 73 32t30 76zM1239 0l-162 406h-684l-162 -406h-155l581 1434h160
l582 -1434h-160zM444 535h582l-291 735z" />
    <glyph glyph-name="AE" unicode="&#xc6;" horiz-adv-x="2088" 
d="M1192 131h790v-131h-935v422h-596l-224 -422h-151l768 1434h1100v-129h-752v-514h688v-132h-688v-528zM522 553h525v752h-125z" />
    <glyph glyph-name="Ccedilla" unicode="&#xc7;" horiz-adv-x="1525" 
d="M795 -37h-2v-76q92 -5 145 -44.5t53 -104.5q0 -70 -54.5 -117t-145.5 -47q-115 0 -203 76l53 74q80 -62 152 -62q44 0 70 20t26 56q0 43 -46 62.5t-145 19.5v149q-182 22 -313 127.5t-194.5 265.5t-63.5 357q0 222 86 392.5t241 263.5t355 93q155 0 281.5 -53.5
t209.5 -160t99 -250.5h-154q-18 148 -145 237q-128 90 -297 90q-235 0 -379.5 -167.5t-144.5 -442.5q0 -178 58 -316.5t179 -221.5t291 -83q188 0 313 101q128 104 137 282h152q-8 -156 -92 -275.5t-220.5 -182t-301.5 -62.5z" />
    <glyph glyph-name="Egrave" unicode="&#xc8;" horiz-adv-x="1241" 
d="M1135 0h-936v1434h897v-129h-752v-514h688v-132h-688v-528h791v-131zM406 1851l120 91l228 -353h-115z" />
    <glyph glyph-name="Eacute" unicode="&#xc9;" horiz-adv-x="1241" 
d="M1135 0h-936v1434h897v-129h-752v-514h688v-132h-688v-528h791v-131zM909 1851l-233 -262h-115l227 353z" />
    <glyph glyph-name="Ecircumflex" unicode="&#xca;" horiz-adv-x="1241" 
d="M1135 0h-936v1434h897v-129h-752v-514h688v-132h-688v-528h791v-131zM815 1589l-149 189l-150 -189h-143l245 312h95l245 -312h-143z" />
    <glyph glyph-name="Edieresis" unicode="&#xcb;" horiz-adv-x="1241" 
d="M1135 0h-936v1434h897v-129h-752v-514h688v-132h-688v-528h791v-131zM555 1589h-168v183h168v-183zM926 1589h-168v183h168v-183z" />
    <glyph glyph-name="Igrave" unicode="&#xcc;" horiz-adv-x="563" 
d="M354 1434v-1434h-145v1434h145zM-20 1851l120 91l228 -353h-115z" />
    <glyph glyph-name="Iacute" unicode="&#xcd;" horiz-adv-x="563" 
d="M584 1851l-234 -262h-114l227 353zM354 1434v-1434h-145v1434h145z" />
    <glyph glyph-name="Icircumflex" unicode="&#xce;" horiz-adv-x="563" 
d="M354 1434v-1434h-145v1434h145zM432 1589l-149 189l-150 -189h-143l246 312h94l245 -312h-143z" />
    <glyph glyph-name="Idieresis" unicode="&#xcf;" horiz-adv-x="563" 
d="M354 1434v-1434h-145v1434h145zM180 1589h-168v183h168v-183zM551 1589h-168v183h168v-183z" />
    <glyph glyph-name="Eth" unicode="&#xd0;" horiz-adv-x="1443" 
d="M1317 741q1 -114 -27.5 -222.5t-87.5 -203t-142.5 -165.5t-200 -111.5t-251.5 -38.5h-424v674h-211v110h211v650h451q163 0 294 -55.5t215 -151.5t128.5 -220.5t44.5 -265.5zM1167 731q0 117 -35 220t-101.5 182.5t-171.5 125.5t-236 46h-293v-521h366v-110h-366v-543
h280q132 0 240 49.5t176 134t104.5 191.5t36.5 225z" />
    <glyph glyph-name="Ntilde" unicode="&#xd1;" horiz-adv-x="1466" 
d="M1268 1434v-1434h-156l-772 1233v-1233h-141v1434h186l743 -1201v1201h140zM893 1589q-34 0 -63 15t-87 57q-68 55 -100 55q-67 0 -88 -117h-98q10 114 59 179t119 65q34 0 63.5 -15.5t83.5 -55.5q40 -32 61.5 -44t43.5 -12q71 0 86 123h88q0 -115 -48 -182.5t-120 -67.5
z" />
    <glyph glyph-name="Ograve" unicode="&#xd2;" horiz-adv-x="1642" 
d="M1516 717q1 -122 -28.5 -235t-89 -208t-142 -165t-195 -109t-240.5 -37q-160 -2 -293 58t-220.5 164.5t-135 241.5t-45.5 290q-2 152 45.5 288.5t135 240.5t220.5 164t293 58q128 2 240.5 -37t195 -109t142 -164.5t89 -207t28.5 -233.5zM1364 719q0 129 -35.5 239.5
t-102.5 194t-171.5 131t-233.5 47.5q-172 0 -296.5 -83t-185 -219.5t-60.5 -309.5q0 -129 36.5 -241t103.5 -196.5t171 -133t231 -48.5q169 0 294 84t187 223t62 312zM553 1851l121 91l227 -353h-115z" />
    <glyph glyph-name="Oacute" unicode="&#xd3;" horiz-adv-x="1642" 
d="M1104 1851l-234 -262h-114l227 353zM1516 717q1 -122 -28.5 -235t-89 -208t-142 -165t-195 -109t-240.5 -37q-160 -2 -293 58t-220.5 164.5t-135 241.5t-45.5 290q-2 152 45.5 288.5t135 240.5t220.5 164t293 58q128 2 240.5 -37t195 -109t142 -164.5t89 -207
t28.5 -233.5zM1364 719q0 129 -35.5 239.5t-102.5 194t-171.5 131t-233.5 47.5q-172 0 -296.5 -83t-185 -219.5t-60.5 -309.5q0 -129 36.5 -241t103.5 -196.5t171 -133t231 -48.5q169 0 294 84t187 223t62 312z" />
    <glyph glyph-name="Ocircumflex" unicode="&#xd4;" horiz-adv-x="1642" 
d="M1516 717q1 -122 -28.5 -235t-89 -208t-142 -165t-195 -109t-240.5 -37q-160 -2 -293 58t-220.5 164.5t-135 241.5t-45.5 290q-2 152 45.5 288.5t135 240.5t220.5 164t293 58q128 2 240.5 -37t195 -109t142 -164.5t89 -207t28.5 -233.5zM1364 719q0 129 -35.5 239.5
t-102.5 194t-171.5 131t-233.5 47.5q-172 0 -296.5 -83t-185 -219.5t-60.5 -309.5q0 -129 36.5 -241t103.5 -196.5t171 -133t231 -48.5q169 0 294 84t187 223t62 312zM971 1589l-150 189l-149 -189h-144l246 312h94l246 -312h-143z" />
    <glyph glyph-name="Otilde" unicode="&#xd5;" horiz-adv-x="1642" 
d="M1516 717q1 -122 -28.5 -235t-89 -208t-142 -165t-195 -109t-240.5 -37q-160 -2 -293 58t-220.5 164.5t-135 241.5t-45.5 290q-2 152 45.5 288.5t135 240.5t220.5 164t293 58q128 2 240.5 -37t195 -109t142 -164.5t89 -207t28.5 -233.5zM1364 719q0 129 -35.5 239.5
t-102.5 194t-171.5 131t-233.5 47.5q-172 0 -296.5 -83t-185 -219.5t-60.5 -309.5q0 -129 36.5 -241t103.5 -196.5t171 -133t231 -48.5q169 0 294 84t187 223t62 312zM965 1589q-34 0 -63 15t-87 57q-68 55 -100 55q-67 0 -88 -117h-99q10 114 59.5 179t119.5 65
q34 0 63.5 -15.5t83.5 -55.5q40 -32 61 -44t43 -12q71 0 86 123h89q0 -115 -48 -182.5t-120 -67.5z" />
    <glyph glyph-name="Odieresis" unicode="&#xd6;" horiz-adv-x="1642" 
d="M1516 717q1 -122 -28.5 -235t-89 -208t-142 -165t-195 -109t-240.5 -37q-160 -2 -293 58t-220.5 164.5t-135 241.5t-45.5 290q-2 152 45.5 288.5t135 240.5t220.5 164t293 58q128 2 240.5 -37t195 -109t142 -164.5t89 -207t28.5 -233.5zM1364 719q0 129 -35.5 239.5
t-102.5 194t-171.5 131t-233.5 47.5q-172 0 -296.5 -83t-185 -219.5t-60.5 -309.5q0 -129 36.5 -241t103.5 -196.5t171 -133t231 -48.5q169 0 294 84t187 223t62 312zM721 1589h-168v183h168v-183zM1092 1589h-168v183h168v-183z" />
    <glyph glyph-name="multiply" unicode="&#xd7;" 
d="M963 901l-261 -260l261 -260l-91 -88l-258 260l-260 -260l-90 88l260 260l-260 260l90 88l260 -258l258 258z" />
    <glyph glyph-name="Oslash" unicode="&#xd8;" horiz-adv-x="1642" 
d="M1516 717q1 -122 -28.5 -235t-89 -208t-142 -165t-195 -109t-240.5 -37q-222 0 -393 115l-119 -164l-90 68l121 168q-103 103 -158 250.5t-55 316.5q-2 152 45.5 288.5t135 240.5t220.5 164t293 58q226 0 393 -112l121 166l90 -68l-125 -172q104 -102 160 -249.5
t56 -315.5zM428 270l705 971q-131 90 -312 90q-172 0 -296.5 -83t-185 -219.5t-60.5 -309.5q0 -132 38 -248.5t111 -200.5zM1364 719q0 273 -147 446l-705 -972q134 -93 309 -93q169 0 294 84t187 223t62 312z" />
    <glyph glyph-name="Ugrave" unicode="&#xd9;" horiz-adv-x="1443" 
d="M1122 1434h144v-934q0 -254 -146.5 -395.5t-396.5 -141.5q-245 0 -395 141.5t-150 395.5v934h146v-920q0 -202 108.5 -309t296.5 -107q182 0 287.5 100.5t105.5 290.5v945zM451 1851l120 91l228 -353h-115z" />
    <glyph glyph-name="Uacute" unicode="&#xda;" horiz-adv-x="1443" 
d="M969 1851l-234 -262h-114l227 353zM1122 1434h144v-934q0 -254 -146.5 -395.5t-396.5 -141.5q-245 0 -395 141.5t-150 395.5v934h146v-920q0 -202 108.5 -309t296.5 -107q182 0 287.5 100.5t105.5 290.5v945z" />
    <glyph glyph-name="Ucircumflex" unicode="&#xdb;" horiz-adv-x="1443" 
d="M1122 1434h144v-934q0 -254 -146.5 -395.5t-396.5 -141.5q-245 0 -395 141.5t-150 395.5v934h146v-920q0 -202 108.5 -309t296.5 -107q182 0 287.5 100.5t105.5 290.5v945zM872 1589l-149 189l-150 -189h-143l246 312h94l246 -312h-144z" />
    <glyph glyph-name="Udieresis" unicode="&#xdc;" horiz-adv-x="1443" 
d="M1122 1434h144v-934q0 -254 -146.5 -395.5t-396.5 -141.5q-245 0 -395 141.5t-150 395.5v934h146v-920q0 -202 108.5 -309t296.5 -107q182 0 287.5 100.5t105.5 290.5v945zM621 1589h-168v183h168v-183zM991 1589h-168v183h168v-183z" />
    <glyph glyph-name="Yacute" unicode="&#xdd;" horiz-adv-x="1288" 
d="M887 1851l-234 -262h-114l227 353zM1055 1434h168l-506 -871v-563h-146v563l-505 871h172l409 -742z" />
    <glyph glyph-name="Thorn" unicode="&#xde;" horiz-adv-x="1241" 
d="M1155 842q0 -112 -51.5 -208t-157 -158t-246.5 -62h-358v-414h-143v1456h143v-215h383q133 0 232.5 -56t148.5 -145.5t49 -197.5zM1010 831q0 122 -82 202.5t-221 80.5h-365v-571h358q144 0 227 84.5t83 203.5z" />
    <glyph glyph-name="germandbls" unicode="&#xdf;" horiz-adv-x="1251" 
d="M1145 377q0 -174 -127 -277q-124 -100 -330 -100h-84v117h90q135 0 222.5 68.5t87.5 187.5q0 127 -102.5 206.5t-297.5 86.5v129q142 29 220.5 106.5t78.5 188.5t-76 174t-202 63q-140 0 -224 -75.5t-84 -213.5v-1038h-139v1038q0 132 61 228t162 143t228 47
q181 0 297 -96q116 -94 116 -264q0 -133 -75 -221t-199 -125q179 -25 278 -122.5t99 -250.5z" />
    <glyph glyph-name="agrave" unicode="&#xe0;" horiz-adv-x="1114" 
d="M811 0v186q-55 -101 -158.5 -155t-220.5 -54q-143 0 -234.5 81.5t-91.5 220.5q0 256 324 303l232 34q76 11 112.5 40t36.5 92q0 82 -62.5 127t-179.5 45q-122 0 -194 -49.5t-90 -139.5h-144q26 150 140.5 231.5t298.5 81.5q177 0 271.5 -83t94.5 -238v-723h-135zM633 500
l-156 -25q-104 -16 -162 -53q-65 -38 -65 -139q0 -88 56 -133.5t151 -45.5q89 0 167.5 38.5t130.5 118t52 183.5v103q-49 -28 -174 -47zM311 1495l121 88l227 -350h-114z" />
    <glyph glyph-name="aacute" unicode="&#xe1;" horiz-adv-x="1114" 
d="M842 1495l-234 -262h-114l227 350zM811 0v186q-55 -101 -158.5 -155t-220.5 -54q-143 0 -234.5 81.5t-91.5 220.5q0 256 324 303l232 34q76 11 112.5 40t36.5 92q0 82 -62.5 127t-179.5 45q-122 0 -194 -49.5t-90 -139.5h-144q26 150 140.5 231.5t298.5 81.5
q177 0 271.5 -83t94.5 -238v-723h-135zM633 500l-156 -25q-104 -16 -162 -53q-65 -38 -65 -139q0 -88 56 -133.5t151 -45.5q89 0 167.5 38.5t130.5 118t52 183.5v103q-49 -28 -174 -47z" />
    <glyph glyph-name="acircumflex" unicode="&#xe2;" horiz-adv-x="1114" 
d="M811 0v186q-55 -101 -158.5 -155t-220.5 -54q-143 0 -234.5 81.5t-91.5 220.5q0 256 324 303l232 34q76 11 112.5 40t36.5 92q0 82 -62.5 127t-179.5 45q-122 0 -194 -49.5t-90 -139.5h-144q26 150 140.5 231.5t298.5 81.5q177 0 271.5 -83t94.5 -238v-723h-135zM633 500
l-156 -25q-104 -16 -162 -53q-65 -38 -65 -139q0 -88 56 -133.5t151 -45.5q89 0 167.5 38.5t130.5 118t52 183.5v103q-49 -28 -174 -47zM713 1233l-150 186l-149 -186h-144l246 311h94l246 -311h-143z" />
    <glyph glyph-name="atilde" unicode="&#xe3;" horiz-adv-x="1114" 
d="M811 0v186q-55 -101 -158.5 -155t-220.5 -54q-143 0 -234.5 81.5t-91.5 220.5q0 256 324 303l232 34q76 11 112.5 40t36.5 92q0 82 -62.5 127t-179.5 45q-122 0 -194 -49.5t-90 -139.5h-144q26 150 140.5 231.5t298.5 81.5q177 0 271.5 -83t94.5 -238v-723h-135zM633 500
l-156 -25q-104 -16 -162 -53q-65 -38 -65 -139q0 -88 56 -133.5t151 -45.5q89 0 167.5 38.5t130.5 118t52 183.5v103q-49 -28 -174 -47zM705 1233q-60 0 -150 72q-65 53 -100 53q-67 0 -88 -117h-99q10 115 59 180.5t119 65.5q34 0 64 -16t84 -56q38 -32 60 -44.5t44 -12.5
q71 0 86 125h88q0 -115 -48 -182.5t-119 -67.5z" />
    <glyph glyph-name="adieresis" unicode="&#xe4;" horiz-adv-x="1114" 
d="M811 0v186q-55 -101 -158.5 -155t-220.5 -54q-143 0 -234.5 81.5t-91.5 220.5q0 256 324 303l232 34q76 11 112.5 40t36.5 92q0 82 -62.5 127t-179.5 45q-122 0 -194 -49.5t-90 -139.5h-144q26 150 140.5 231.5t298.5 81.5q177 0 271.5 -83t94.5 -238v-723h-135zM633 500
l-156 -25q-104 -16 -162 -53q-65 -38 -65 -139q0 -88 56 -133.5t151 -45.5q89 0 167.5 38.5t130.5 118t52 183.5v103q-49 -28 -174 -47zM481 1233h-164v178h164v-178zM850 1233h-164v178h164v-178z" />
    <glyph glyph-name="aring" unicode="&#xe5;" horiz-adv-x="1114" 
d="M811 0v186q-55 -101 -158.5 -155t-220.5 -54q-143 0 -234.5 81.5t-91.5 220.5q0 256 324 303l232 34q76 11 112.5 40t36.5 92q0 82 -62.5 127t-179.5 45q-122 0 -194 -49.5t-90 -139.5h-144q26 150 140.5 231.5t298.5 81.5q177 0 271.5 -83t94.5 -238v-723h-135zM633 500
l-156 -25q-104 -16 -162 -53q-65 -38 -65 -139q0 -88 56 -133.5t151 -45.5q89 0 167.5 38.5t130.5 118t52 183.5v103q-49 -28 -174 -47zM395 1421q0 84 53 136.5t134 52.5q83 0 136.5 -52.5t53.5 -136.5q0 -82 -54 -135t-136 -53q-78 0 -132.5 54.5t-54.5 133.5zM684 1421
q0 44 -29.5 74.5t-72.5 30.5t-71 -30t-28 -75t28.5 -75.5t70.5 -30.5q43 0 72.5 31t29.5 75z" />
    <glyph glyph-name="ae" unicode="&#xe6;" horiz-adv-x="1832" 
d="M1726 549v-70h-782q0 -184 98 -278q102 -97 244 -97q105 0 182.5 50t106.5 141h137q-36 -153 -155 -235.5t-279 -82.5q-139 0 -250.5 70t-167.5 199q-70 -139 -183 -204t-245 -65q-143 0 -234.5 81.5t-91.5 220.5q0 256 324 303l232 34q76 11 112.5 40t36.5 92
q0 82 -62.5 127t-179.5 45q-122 0 -194 -49.5t-90 -139.5h-144q26 150 140.5 231.5t298.5 81.5q261 0 333 -178q62 86 160 132t211 46q196 0 319 -127.5t123 -367.5zM948 598h637q0 150 -85.5 237t-221.5 87q-134 0 -226 -85.5t-104 -238.5zM807 444v103q-49 -28 -174 -47
l-156 -25q-104 -16 -162 -53q-65 -38 -65 -139q0 -88 56 -133.5t151 -45.5q89 0 167.5 38.5t130.5 118t52 183.5z" />
    <glyph glyph-name="ccedilla" unicode="&#xe7;" horiz-adv-x="1124" 
d="M881 358h137q-9 -157 -121 -260q-109 -100 -266 -118v-93q92 -5 145 -44.5t53 -104.5q0 -70 -54.5 -117t-145.5 -47q-115 0 -203 76l53 74q80 -62 152 -62q44 0 70 20t26 56q0 43 -46 62.5t-144 19.5v160q-199 12 -316 153q-115 142 -115 373q0 241 132 389.5t352 148.5
q178 0 297 -94q122 -96 131 -264h-135q-12 108 -94 172t-201 64q-155 0 -247.5 -111.5t-92.5 -300.5q0 -186 90.5 -295t245.5 -109q120 0 203.5 69t93.5 183z" />
    <glyph glyph-name="egrave" unicode="&#xe8;" horiz-adv-x="1132" 
d="M1026 479h-782q0 -184 98 -278q102 -97 244 -97q104 0 181.5 50t106.5 141h138q-36 -153 -155 -235.5t-279 -82.5q-96 0 -181 34.5t-150 99.5t-103 168t-38 231q0 130 38 233t104.5 168t152 99t183.5 34q196 0 319 -127.5t123 -367.5v-70zM248 598h637q0 150 -85.5 237
t-221.5 87q-134 0 -226 -85.5t-104 -238.5zM305 1495l121 88l227 -350h-114z" />
    <glyph glyph-name="eacute" unicode="&#xe9;" horiz-adv-x="1132" 
d="M879 1495l-234 -262h-115l228 350zM1026 479h-782q0 -184 98 -278q102 -97 244 -97q104 0 181.5 50t106.5 141h138q-36 -153 -155 -235.5t-279 -82.5q-96 0 -181 34.5t-150 99.5t-103 168t-38 231q0 130 38 233t104.5 168t152 99t183.5 34q196 0 319 -127.5t123 -367.5
v-70zM248 598h637q0 150 -85.5 237t-221.5 87q-134 0 -226 -85.5t-104 -238.5z" />
    <glyph glyph-name="ecircumflex" unicode="&#xea;" horiz-adv-x="1132" 
d="M1026 479h-782q0 -184 98 -278q102 -97 244 -97q104 0 181.5 50t106.5 141h138q-36 -153 -155 -235.5t-279 -82.5q-96 0 -181 34.5t-150 99.5t-103 168t-38 231q0 130 38 233t104.5 168t152 99t183.5 34q196 0 319 -127.5t123 -367.5v-70zM248 598h637q0 150 -85.5 237
t-221.5 87q-134 0 -226 -85.5t-104 -238.5zM721 1233l-150 186l-149 -186h-143l245 311h94l246 -311h-143z" />
    <glyph glyph-name="edieresis" unicode="&#xeb;" horiz-adv-x="1132" 
d="M1026 479h-782q0 -184 98 -278q102 -97 244 -97q104 0 181.5 50t106.5 141h138q-36 -153 -155 -235.5t-279 -82.5q-96 0 -181 34.5t-150 99.5t-103 168t-38 231q0 130 38 233t104.5 168t152 99t183.5 34q196 0 319 -127.5t123 -367.5v-70zM248 598h637q0 150 -85.5 237
t-221.5 87q-134 0 -226 -85.5t-104 -238.5zM485 1233h-163v178h163v-178zM854 1233h-164v178h164v-178z" />
    <glyph glyph-name="igrave" unicode="&#xec;" horiz-adv-x="487" 
d="M313 1026v-1026h-139v1026h139zM-57 1495l120 88l228 -350h-115z" />
    <glyph glyph-name="iacute" unicode="&#xed;" horiz-adv-x="487" 
d="M543 1495l-234 -262h-114l227 350zM313 1026v-1026h-139v1026h139z" />
    <glyph glyph-name="icircumflex" unicode="&#xee;" horiz-adv-x="487" 
d="M313 1026v-1026h-139v1026h139zM393 1233l-149 186l-150 -186h-143l246 311h94l246 -311h-144z" />
    <glyph glyph-name="idieresis" unicode="&#xef;" horiz-adv-x="487" 
d="M313 1026v-1026h-139v1026h139zM141 1233h-164v178h164v-178zM510 1233h-164v178h164v-178z" />
    <glyph glyph-name="eth" unicode="&#xf0;" horiz-adv-x="1220" 
d="M1114 707q0 -153 -28.5 -277t-78 -207.5t-118 -139.5t-145 -81t-162.5 -25q-209 0 -342.5 139t-133.5 343q0 199 127.5 329t327.5 130q135 0 245.5 -67.5t168.5 -197.5v56q0 343 -146 489l-190 -158l-74 86l170 142q-78 35 -162 35q-126 0 -201.5 -66t-76.5 -182h-148
q6 176 119.5 277.5t294.5 101.5q164 0 283 -76l145 121v-148l-55 -45q180 -189 180 -579zM918 444q0 146 -95 238q-94 94 -241 94q-145 0 -234 -92q-90 -93 -90 -238t90 -241t236 -96q145 0 239 94q95 95 95 241z" />
    <glyph glyph-name="ntilde" unicode="&#xf1;" horiz-adv-x="1198" 
d="M1030 702v-702h-139v686q0 106 -67 170t-179 64q-140 0 -234 -102.5t-94 -278.5v-539h-139v1026h139v-190q51 99 140.5 153.5t214.5 54.5q164 0 261 -90t97 -252zM754 1233q-60 0 -150 72q-65 53 -100 53q-67 0 -88 -117h-99q10 115 59.5 180.5t119.5 65.5q34 0 63 -15.5
t84 -56.5q38 -31 60.5 -44t44.5 -13q71 0 86 125h88q0 -115 -48 -182.5t-120 -67.5z" />
    <glyph glyph-name="ograve" unicode="&#xf2;" horiz-adv-x="1193" 
d="M106 512q0 242 136 387t354 145q219 0 355 -144.5t136 -389.5q0 -242 -136 -387.5t-353 -145.5q-219 0 -355.5 145t-136.5 390zM944 518q0 184 -99 290.5t-251 106.5q-156 0 -250 -110t-94 -295q0 -183 99 -292t251 -109q155 0 249.5 110t94.5 299zM299 1495l121 88
l227 -350h-115z" />
    <glyph glyph-name="oacute" unicode="&#xf3;" horiz-adv-x="1193" 
d="M887 1495l-234 -262h-114l227 350zM106 512q0 242 136 387t354 145q219 0 355 -144.5t136 -389.5q0 -242 -136 -387.5t-353 -145.5q-219 0 -355.5 145t-136.5 390zM944 518q0 184 -99 290.5t-251 106.5q-156 0 -250 -110t-94 -295q0 -183 99 -292t251 -109
q155 0 249.5 110t94.5 299z" />
    <glyph glyph-name="ocircumflex" unicode="&#xf4;" horiz-adv-x="1193" 
d="M106 512q0 242 136 387t354 145q219 0 355 -144.5t136 -389.5q0 -242 -136 -387.5t-353 -145.5q-219 0 -355.5 145t-136.5 390zM944 518q0 184 -99 290.5t-251 106.5q-156 0 -250 -110t-94 -295q0 -183 99 -292t251 -109q155 0 249.5 110t94.5 299zM748 1233l-150 186
l-149 -186h-144l246 311h94l246 -311h-143z" />
    <glyph glyph-name="otilde" unicode="&#xf5;" horiz-adv-x="1193" 
d="M106 512q0 242 136 387t354 145q219 0 355 -144.5t136 -389.5q0 -242 -136 -387.5t-353 -145.5q-219 0 -355.5 145t-136.5 390zM944 518q0 184 -99 290.5t-251 106.5q-156 0 -250 -110t-94 -295q0 -183 99 -292t251 -109q155 0 249.5 110t94.5 299zM709 1233
q-60 0 -150 72q-65 53 -100 53q-67 0 -88 -117h-99q10 115 59.5 180.5t119.5 65.5q34 0 63 -15.5t84 -56.5q38 -32 60 -44.5t44 -12.5q71 0 86 125h89q0 -115 -48 -182.5t-120 -67.5z" />
    <glyph glyph-name="odieresis" unicode="&#xf6;" horiz-adv-x="1193" 
d="M106 512q0 242 136 387t354 145q219 0 355 -144.5t136 -389.5q0 -242 -136 -387.5t-353 -145.5q-219 0 -355.5 145t-136.5 390zM944 518q0 184 -99 290.5t-251 106.5q-156 0 -250 -110t-94 -295q0 -183 99 -292t251 -109q155 0 249.5 110t94.5 299zM496 1233h-164v178
h164v-178zM864 1233h-164v178h164v-178z" />
    <glyph glyph-name="divide" unicode="&#xf7;" 
d="M526 868v183h176v-183h-176zM1026 705v-130h-823v130h823zM526 227v183h176v-183h-176z" />
    <glyph glyph-name="oslash" unicode="&#xf8;" horiz-adv-x="1193" 
d="M1087 510q0 -242 -136 -387.5t-353 -145.5q-151 0 -264 70l-119 -162l-90 68l121 166q-140 146 -140 393q0 242 136 387t354 145q155 0 268 -73l109 149l90 -65l-113 -156q137 -146 137 -389zM332 238l452 624q-83 53 -190 53q-156 0 -250 -110t-94 -295q0 -165 82 -272z
M944 518q0 159 -78 266l-450 -624q80 -51 184 -51q155 0 249.5 110t94.5 299z" />
    <glyph glyph-name="ugrave" unicode="&#xf9;" horiz-adv-x="1177" 
d="M999 0h-133v195q-53 -102 -141.5 -154.5t-200.5 -52.5q-158 0 -257 96t-99 264v678h139v-661q0 -119 67 -186.5t175 -67.5q133 0 222 101t89 284v530h139v-1026zM301 1495l121 88l227 -350h-114z" />
    <glyph glyph-name="uacute" unicode="&#xfa;" horiz-adv-x="1177" 
d="M999 0h-133v195q-53 -102 -141.5 -154.5t-200.5 -52.5q-158 0 -257 96t-99 264v678h139v-661q0 -119 67 -186.5t175 -67.5q133 0 222 101t89 284v530h139v-1026zM809 1495l-234 -262h-114l227 350z" />
    <glyph glyph-name="ucircumflex" unicode="&#xfb;" horiz-adv-x="1177" 
d="M999 0h-133v195q-53 -102 -141.5 -154.5t-200.5 -52.5q-158 0 -257 96t-99 264v678h139v-661q0 -119 67 -186.5t175 -67.5q133 0 222 101t89 284v530h139v-1026zM727 1233l-149 186l-150 -186h-143l245 311h95l245 -311h-143z" />
    <glyph glyph-name="udieresis" unicode="&#xfc;" horiz-adv-x="1177" 
d="M999 0h-133v195q-53 -102 -141.5 -154.5t-200.5 -52.5q-158 0 -257 96t-99 264v678h139v-661q0 -119 67 -186.5t175 -67.5q133 0 222 101t89 284v530h139v-1026zM487 1233h-163v178h163v-178zM856 1233h-164v178h164v-178z" />
    <glyph glyph-name="yacute" unicode="&#xfd;" horiz-adv-x="1001" 
d="M817 1026h139l-426 -1116q-51 -136 -128.5 -191t-217.5 -55h-55v123h57q87 0 143 38t87 126l22 63l-393 1012h148l311 -838zM752 1495l-234 -262h-115l228 350z" />
    <glyph glyph-name="thorn" unicode="&#xfe;" horiz-adv-x="1241" 
d="M1135 520q0 -131 -38.5 -234.5t-104.5 -167t-149 -96t-177 -32.5q-121 0 -210.5 50t-138.5 138v-571h-139v1849h139v-635q39 99 137.5 161t225.5 62q90 0 170 -32.5t144.5 -94.5t102.5 -164.5t38 -232.5zM991 514q0 193 -96 297q-93 100 -236 100q-68 0 -128.5 -24
t-108 -71.5t-75.5 -125.5t-28 -178q0 -191 94 -294t242 -103t242 103t94 296z" />
    <glyph glyph-name="ydieresis" unicode="&#xff;" horiz-adv-x="1001" 
d="M817 1026h139l-426 -1116q-51 -136 -128.5 -191t-217.5 -55h-55v123h57q87 0 143 38t87 126l22 63l-393 1012h148l311 -838zM412 1233h-164v178h164v-178zM780 1233h-164v178h164v-178z" />
    <glyph glyph-name="Amacron" unicode="&#x100;" horiz-adv-x="1474" 
d="M1239 0l-162 406h-684l-162 -406h-155l581 1434h160l582 -1434h-160zM444 535h582l-291 735zM1042 1589h-610v109h610v-109z" />
    <glyph glyph-name="amacron" unicode="&#x101;" horiz-adv-x="1114" 
d="M811 0v186q-55 -101 -158.5 -155t-220.5 -54q-143 0 -234.5 81.5t-91.5 220.5q0 256 324 303l232 34q76 11 112.5 40t36.5 92q0 82 -62.5 127t-179.5 45q-122 0 -194 -49.5t-90 -139.5h-144q26 150 140.5 231.5t298.5 81.5q177 0 271.5 -83t94.5 -238v-723h-135zM633 500
l-156 -25q-104 -16 -162 -53q-65 -38 -65 -139q0 -88 56 -133.5t151 -45.5q89 0 167.5 38.5t130.5 118t52 183.5v103q-49 -28 -174 -47zM868 1233h-610v108h610v-108z" />
    <glyph glyph-name="Abreve" unicode="&#x102;" horiz-adv-x="1474" 
d="M1239 0l-162 406h-684l-162 -406h-155l581 1434h160l582 -1434h-160zM444 535h582l-291 735zM958 1792q0 -89 -56.5 -146t-164.5 -57q-106 0 -162.5 57t-56.5 146q0 42 12 76h103q-10 -30 -10 -58q0 -127 114 -127q115 0 115 127q0 27 -8 58h102q12 -35 12 -76z" />
    <glyph glyph-name="abreve" unicode="&#x103;" horiz-adv-x="1114" 
d="M811 0v186q-55 -101 -158.5 -155t-220.5 -54q-143 0 -234.5 81.5t-91.5 220.5q0 256 324 303l232 34q76 11 112.5 40t36.5 92q0 82 -62.5 127t-179.5 45q-122 0 -194 -49.5t-90 -139.5h-144q26 150 140.5 231.5t298.5 81.5q177 0 271.5 -83t94.5 -238v-723h-135zM633 500
l-156 -25q-104 -16 -162 -53q-65 -38 -65 -139q0 -88 56 -133.5t151 -45.5q89 0 167.5 38.5t130.5 118t52 183.5v103q-49 -28 -174 -47zM795 1436q0 -89 -57 -146t-165 -57q-106 0 -162.5 57t-56.5 146q0 38 13 75h102q-10 -30 -10 -59q0 -125 114 -125q115 0 115 125
q0 28 -8 59h102q13 -37 13 -75z" />
    <glyph glyph-name="Aogonek" unicode="&#x104;" horiz-adv-x="1521" 
d="M1446 -227v-109q-114 11 -192 72.5t-78 146.5q0 77 61 123l-160 400h-684l-162 -406h-155l581 1434h160l582 -1434h-74q-45 -45 -45 -96q0 -57 48 -91.5t118 -39.5zM444 535h582l-291 735z" />
    <glyph glyph-name="aogonek" unicode="&#x105;" horiz-adv-x="1103" 
d="M1026 -227v-109q-114 11 -192 72.5t-78 146.5q0 73 55 119v184q-55 -101 -158.5 -155t-220.5 -54q-143 0 -234.5 81.5t-91.5 220.5q0 256 324 303l232 34q76 11 112.5 40t36.5 92q0 82 -62.5 127t-179.5 45q-122 0 -194 -49.5t-90 -139.5h-144q26 150 140.5 231.5
t298.5 81.5q177 0 271.5 -83t94.5 -238v-723h-41q-45 -45 -45 -96q0 -57 48 -91.5t118 -39.5zM807 444v103q-49 -28 -174 -47l-156 -25q-104 -16 -162 -53q-65 -38 -65 -139q0 -88 56 -133.5t151 -45.5q89 0 167.5 38.5t130.5 118t52 183.5z" />
    <glyph glyph-name="Cacute" unicode="&#x106;" horiz-adv-x="1525" 
d="M1399 1004h-154q-18 148 -145 237q-128 90 -297 90q-235 0 -379.5 -167.5t-144.5 -442.5q0 -178 58 -316.5t179 -221.5t291 -83q188 0 313 101q128 104 137 282h152q-8 -156 -92 -275.5t-220.5 -182t-301.5 -62.5q-158 -2 -286.5 57t-211.5 162.5t-127.5 241t-42.5 295.5
q0 222 86 392.5t241 263.5t355 93q155 0 281.5 -53.5t209.5 -160t99 -250.5zM1094 1851l-234 -262h-115l228 353z" />
    <glyph glyph-name="cacute" unicode="&#x107;" horiz-adv-x="1124" 
d="M575 -23q-215 0 -342 143.5t-127 385.5q0 241 132 389.5t352 148.5q178 0 297 -94q122 -96 131 -264h-135q-12 108 -94 172t-201 64q-155 0 -247.5 -111.5t-92.5 -300.5q0 -186 90.5 -295t245.5 -109q120 0 203.5 69t93.5 183h137q-12 -170 -140.5 -275.5t-302.5 -105.5z
M881 1495l-234 -262h-115l228 350z" />
    <glyph glyph-name="Ccircumflex" unicode="&#x108;" horiz-adv-x="1525" 
d="M1399 1004h-154q-18 148 -145 237q-128 90 -297 90q-235 0 -379.5 -167.5t-144.5 -442.5q0 -178 58 -316.5t179 -221.5t291 -83q188 0 313 101q128 104 137 282h152q-8 -156 -92 -275.5t-220.5 -182t-301.5 -62.5q-158 -2 -286.5 57t-211.5 162.5t-127.5 241t-42.5 295.5
q0 222 86 392.5t241 263.5t355 93q155 0 281.5 -53.5t209.5 -160t99 -250.5zM948 1589l-149 189l-150 -189h-143l246 312h94l246 -312h-144z" />
    <glyph glyph-name="ccircumflex" unicode="&#x109;" horiz-adv-x="1124" 
d="M575 -23q-215 0 -342 143.5t-127 385.5q0 241 132 389.5t352 148.5q178 0 297 -94q122 -96 131 -264h-135q-12 108 -94 172t-201 64q-155 0 -247.5 -111.5t-92.5 -300.5q0 -186 90.5 -295t245.5 -109q120 0 203.5 69t93.5 183h137q-12 -170 -140.5 -275.5t-302.5 -105.5z
M739 1233l-149 186l-150 -186h-143l246 311h94l246 -311h-144z" />
    <glyph glyph-name="Cdotaccent" unicode="&#x10a;" horiz-adv-x="1525" 
d="M1399 1004h-154q-18 148 -145 237q-128 90 -297 90q-235 0 -379.5 -167.5t-144.5 -442.5q0 -178 58 -316.5t179 -221.5t291 -83q188 0 313 101q128 104 137 282h152q-8 -156 -92 -275.5t-220.5 -182t-301.5 -62.5q-158 -2 -286.5 57t-211.5 162.5t-127.5 241t-42.5 295.5
q0 222 86 392.5t241 263.5t355 93q155 0 281.5 -53.5t209.5 -160t99 -250.5zM711 1589v203h194v-203h-194z" />
    <glyph glyph-name="cdotaccent" unicode="&#x10b;" horiz-adv-x="1124" 
d="M575 -23q-215 0 -342 143.5t-127 385.5q0 241 132 389.5t352 148.5q178 0 297 -94q122 -96 131 -264h-135q-12 108 -94 172t-201 64q-155 0 -247.5 -111.5t-92.5 -300.5q0 -186 90.5 -295t245.5 -109q120 0 203.5 69t93.5 183h137q-12 -170 -140.5 -275.5t-302.5 -105.5z
M506 1233v203h194v-203h-194z" />
    <glyph glyph-name="Ccaron" unicode="&#x10c;" horiz-adv-x="1525" 
d="M1399 1004h-154q-18 148 -145 237q-128 90 -297 90q-235 0 -379.5 -167.5t-144.5 -442.5q0 -178 58 -316.5t179 -221.5t291 -83q188 0 313 101q128 104 137 282h152q-8 -156 -92 -275.5t-220.5 -182t-301.5 -62.5q-158 -2 -286.5 57t-211.5 162.5t-127.5 241t-42.5 295.5
q0 222 86 392.5t241 263.5t355 93q155 0 281.5 -53.5t209.5 -160t99 -250.5zM952 1903h144l-246 -312h-94l-246 312h143l150 -189z" />
    <glyph glyph-name="ccaron" unicode="&#x10d;" horiz-adv-x="1124" 
d="M575 -23q-215 0 -342 143.5t-127 385.5q0 241 132 389.5t352 148.5q178 0 297 -94q122 -96 131 -264h-135q-12 108 -94 172t-201 64q-155 0 -247.5 -111.5t-92.5 -300.5q0 -186 90.5 -295t245.5 -109q120 0 203.5 69t93.5 183h137q-12 -170 -140.5 -275.5t-302.5 -105.5z
M438 1544l150 -186l149 186h144l-246 -311h-94l-246 311h143z" />
    <glyph glyph-name="Dcaron" unicode="&#x10e;" horiz-adv-x="1458" 
d="M1331 741q1 -114 -27 -222.5t-87.5 -203t-142.5 -165.5t-199.5 -111.5t-251.5 -38.5h-424v1434h450q163 0 294 -55.5t215 -151.5t128.5 -220.5t44.5 -265.5zM1182 731q0 117 -35 220t-101.5 182.5t-172 125.5t-236.5 46h-293v-1174h281q132 0 240 49.5t176 134
t104.5 191.5t36.5 225zM739 1903h144l-246 -312h-94l-246 312h143l150 -189z" />
    <glyph glyph-name="dcaron" unicode="&#x10f;" horiz-adv-x="1542" 
d="M1065 1456v-1456h-133v199q-43 -98 -139 -160t-226 -62q-203 0 -332 150t-129 387q0 238 129 384t334 146q122 0 217.5 -53t139.5 -139v604h139zM924 518q0 184 -93.5 293t-244.5 109q-153 0 -244.5 -110t-91.5 -296q0 -185 93 -296.5t243 -111.5q153 0 245.5 112
t92.5 300zM1356 1278h-92v190h202v-196q0 -152 -74 -231.5t-202 -90.5l-19 86q105 20 145 76.5t40 165.5z" />
    <glyph glyph-name="Dcroat" unicode="&#x110;" horiz-adv-x="1443" 
d="M1317 741q1 -114 -27.5 -222.5t-87.5 -203t-142.5 -165.5t-200 -111.5t-251.5 -38.5h-424v674h-211v110h211v650h451q163 0 294 -55.5t215 -151.5t128.5 -220.5t44.5 -265.5zM1167 731q0 117 -35 220t-101.5 182.5t-171.5 125.5t-236 46h-293v-521h366v-110h-366v-543
h280q132 0 240 49.5t176 134t104.5 191.5t36.5 225z" />
    <glyph glyph-name="dslash" unicode="&#x111;" horiz-adv-x="1273" 
d="M1198 1294v-106h-133v-1188h-133v199q-43 -98 -139 -160t-226 -62q-203 0 -332 150t-129 387q0 238 129 384t334 146q122 0 217.5 -53t139.5 -139v336h-262v106h262v162h139v-162h133zM924 518q0 184 -93.5 293t-244.5 109q-153 0 -244.5 -110t-91.5 -296
q0 -185 93 -296.5t243 -111.5q153 0 245.5 112t92.5 300z" />
    <glyph glyph-name="Emacron" unicode="&#x112;" horiz-adv-x="1241" 
d="M1135 0h-936v1434h897v-129h-752v-514h688v-132h-688v-528h791v-131zM973 1589h-611v109h611v-109z" />
    <glyph glyph-name="emacron" unicode="&#x113;" horiz-adv-x="1132" 
d="M1026 479h-782q0 -184 98 -278q102 -97 244 -97q104 0 181.5 50t106.5 141h138q-36 -153 -155 -235.5t-279 -82.5q-96 0 -181 34.5t-150 99.5t-103 168t-38 231q0 130 38 233t104.5 168t152 99t183.5 34q196 0 319 -127.5t123 -367.5v-70zM248 598h637q0 150 -85.5 237
t-221.5 87q-134 0 -226 -85.5t-104 -238.5zM891 1233h-610v108h610v-108z" />
    <glyph glyph-name="Ebreve" unicode="&#x114;" horiz-adv-x="1241" 
d="M1135 0h-936v1434h897v-129h-752v-514h688v-132h-688v-528h791v-131zM872 1792q0 -89 -56.5 -146t-164.5 -57q-106 0 -162.5 57t-56.5 146q0 42 12 76h103q-10 -30 -10 -58q0 -127 114 -127q115 0 115 127q0 27 -8 58h102q12 -35 12 -76z" />
    <glyph glyph-name="ebreve" unicode="&#x115;" horiz-adv-x="1132" 
d="M1026 479h-782q0 -184 98 -278q102 -97 244 -97q104 0 181.5 50t106.5 141h138q-36 -153 -155 -235.5t-279 -82.5q-96 0 -181 34.5t-150 99.5t-103 168t-38 231q0 130 38 233t104.5 168t152 99t183.5 34q196 0 319 -127.5t123 -367.5v-70zM248 598h637q0 150 -85.5 237
t-221.5 87q-134 0 -226 -85.5t-104 -238.5zM809 1436q0 -89 -56.5 -146t-164.5 -57q-106 0 -162.5 57t-56.5 146q0 40 12 75h102q-10 -30 -10 -59q0 -125 115 -125q114 0 114 125q0 28 -8 59h103q12 -34 12 -75z" />
    <glyph glyph-name="Edotaccent" unicode="&#x116;" horiz-adv-x="1241" 
d="M1135 0h-936v1434h897v-129h-752v-514h688v-132h-688v-528h791v-131zM571 1589v203h195v-203h-195z" />
    <glyph glyph-name="edotaccent" unicode="&#x117;" horiz-adv-x="1132" 
d="M1026 479h-782q0 -184 98 -278q102 -97 244 -97q104 0 181.5 50t106.5 141h138q-36 -153 -155 -235.5t-279 -82.5q-96 0 -181 34.5t-150 99.5t-103 168t-38 231q0 130 38 233t104.5 168t152 99t183.5 34q196 0 319 -127.5t123 -367.5v-70zM248 598h637q0 150 -85.5 237
t-221.5 87q-134 0 -226 -85.5t-104 -238.5zM477 1233v203h195v-203h-195z" />
    <glyph glyph-name="Eogonek" unicode="&#x118;" horiz-adv-x="1241" 
d="M969 -96q0 -57 48 -91.5t118 -39.5v-109q-114 11 -192.5 72.5t-78.5 146.5q0 69 54 117h-719v1434h897v-129h-752v-514h688v-132h-688v-528h791v-131h-121q-45 -45 -45 -96z" />
    <glyph glyph-name="eogonek" unicode="&#x119;" horiz-adv-x="1132" 
d="M1026 549v-70h-782q0 -184 98 -278q102 -97 244 -97q104 0 181.5 50t106.5 141h138q-36 -153 -155 -235.5t-279 -82.5h-15q-24 -30 -24 -73q0 -57 48 -91.5t118 -39.5v-109q-114 11 -192.5 72.5t-78.5 146.5q0 58 41 105q-167 33 -268 169.5t-101 352.5q0 130 38 233
t104.5 168t152 99t183.5 34q196 0 319 -127.5t123 -367.5zM248 598h637q0 150 -85.5 237t-221.5 87q-134 0 -226 -85.5t-104 -238.5z" />
    <glyph glyph-name="Ecaron" unicode="&#x11a;" horiz-adv-x="1241" 
d="M1135 0h-936v1434h897v-129h-752v-514h688v-132h-688v-528h791v-131zM819 1903h144l-246 -312h-94l-246 312h143l150 -189z" />
    <glyph glyph-name="ecaron" unicode="&#x11b;" horiz-adv-x="1132" 
d="M1026 479h-782q0 -184 98 -278q102 -97 244 -97q104 0 181.5 50t106.5 141h138q-36 -153 -155 -235.5t-279 -82.5q-96 0 -181 34.5t-150 99.5t-103 168t-38 231q0 130 38 233t104.5 168t152 99t183.5 34q196 0 319 -127.5t123 -367.5v-70zM248 598h637q0 150 -85.5 237
t-221.5 87q-134 0 -226 -85.5t-104 -238.5zM420 1544l149 -186l150 186h143l-246 -311h-94l-246 311h144z" />
    <glyph glyph-name="Gcircumflex" unicode="&#x11c;" horiz-adv-x="1589" 
d="M778 586v131h623v-717h-135v223q-63 -118 -191.5 -189t-292.5 -71q-122 -2 -228 36.5t-184 108.5t-133.5 164.5t-83 208t-26.5 236.5q0 218 86.5 389.5t241.5 266.5t352 95q152 0 280 -53.5t213 -160.5t101 -250h-154q-21 149 -143 237q-125 90 -295 90
q-240 0 -386.5 -164t-146.5 -442q0 -174 60 -315t180.5 -226.5t282.5 -85.5q206 0 335.5 132.5t129.5 355.5h-486zM946 1589l-149 189l-150 -189h-143l246 312h94l246 -312h-144z" />
    <glyph glyph-name="gcircumflex" unicode="&#x11d;" horiz-adv-x="1224" 
d="M1057 1026v-981q0 -223 -125.5 -342t-339.5 -119q-178 0 -311 92q-131 90 -152 263h141q18 -108 99 -169t223 -61q154 0 242 83.5t88 246.5v203q-52 -102 -148.5 -152.5t-214.5 -50.5q-199 0 -326 133t-127 369q0 119 36 215.5t98.5 158.5t145.5 95.5t179 33.5
q120 0 212.5 -49t142.5 -135v166h137zM913 541q0 181 -91.5 282t-237.5 101q-143 0 -241.5 -101.5t-98.5 -279.5t96.5 -278.5t241.5 -100.5q141 0 235 94q96 96 96 283zM731 1233l-149 186l-150 -186h-143l246 311h94l245 -311h-143z" />
    <glyph glyph-name="Gbreve" unicode="&#x11e;" horiz-adv-x="1589" 
d="M778 586v131h623v-717h-135v223q-63 -118 -191.5 -189t-292.5 -71q-122 -2 -228 36.5t-184 108.5t-133.5 164.5t-83 208t-26.5 236.5q0 218 86.5 389.5t241.5 266.5t352 95q152 0 280 -53.5t213 -160.5t101 -250h-154q-21 149 -143 237q-125 90 -295 90
q-240 0 -386.5 -164t-146.5 -442q0 -174 60 -315t180.5 -226.5t282.5 -85.5q206 0 335.5 132.5t129.5 355.5h-486zM1016 1792q0 -89 -56.5 -146t-164.5 -57q-106 0 -163 57t-57 146q0 39 13 76h102q-10 -30 -10 -58q0 -127 115 -127q114 0 114 127q0 27 -8 58h103
q12 -35 12 -76z" />
    <glyph glyph-name="gbreve" unicode="&#x11f;" horiz-adv-x="1224" 
d="M1057 1026v-981q0 -223 -125.5 -342t-339.5 -119q-178 0 -311 92q-131 90 -152 263h141q18 -108 99 -169t223 -61q154 0 242 83.5t88 246.5v203q-52 -102 -148.5 -152.5t-214.5 -50.5q-199 0 -326 133t-127 369q0 119 36 215.5t98.5 158.5t145.5 95.5t179 33.5
q120 0 212.5 -49t142.5 -135v166h137zM913 541q0 181 -91.5 282t-237.5 101q-143 0 -241.5 -101.5t-98.5 -279.5t96.5 -278.5t241.5 -100.5q141 0 235 94q96 96 96 283zM809 1436q0 -89 -56.5 -146t-164.5 -57q-106 0 -162.5 57t-56.5 146q0 40 12 75h102q-10 -30 -10 -59
q0 -125 115 -125q114 0 114 125q0 28 -8 59h103q12 -34 12 -75z" />
    <glyph glyph-name="Gdotaccent" unicode="&#x120;" horiz-adv-x="1589" 
d="M778 586v131h623v-717h-135v223q-63 -118 -191.5 -189t-292.5 -71q-122 -2 -228 36.5t-184 108.5t-133.5 164.5t-83 208t-26.5 236.5q0 218 86.5 389.5t241.5 266.5t352 95q152 0 280 -53.5t213 -160.5t101 -250h-154q-21 149 -143 237q-125 90 -295 90
q-240 0 -386.5 -164t-146.5 -442q0 -174 60 -315t180.5 -226.5t282.5 -85.5q206 0 335.5 132.5t129.5 355.5h-486zM692 1589v203h195v-203h-195z" />
    <glyph glyph-name="gdotaccent" unicode="&#x121;" horiz-adv-x="1224" 
d="M1057 1026v-981q0 -223 -125.5 -342t-339.5 -119q-178 0 -311 92q-131 90 -152 263h141q18 -108 99 -169t223 -61q154 0 242 83.5t88 246.5v203q-52 -102 -148.5 -152.5t-214.5 -50.5q-199 0 -326 133t-127 369q0 119 36 215.5t98.5 158.5t145.5 95.5t179 33.5
q120 0 212.5 -49t142.5 -135v166h137zM913 541q0 181 -91.5 282t-237.5 101q-143 0 -241.5 -101.5t-98.5 -279.5t96.5 -278.5t241.5 -100.5q141 0 235 94q96 96 96 283zM504 1233v203h194v-203h-194z" />
    <glyph glyph-name="uni0122" unicode="&#x122;" horiz-adv-x="1589" 
d="M778 586v131h623v-717h-135v223q-63 -118 -191.5 -189t-292.5 -71q-122 -2 -228 36.5t-184 108.5t-133.5 164.5t-83 208t-26.5 236.5q0 218 86.5 389.5t241.5 266.5t352 95q152 0 280 -53.5t213 -160.5t101 -250h-154q-21 149 -143 237q-125 90 -295 90
q-240 0 -386.5 -164t-146.5 -442q0 -174 60 -315t180.5 -226.5t282.5 -85.5q206 0 335.5 132.5t129.5 355.5h-486zM758 -350h-92v190h202v-196q0 -152 -74 -231.5t-202 -90.5l-19 86q105 20 145 76.5t40 165.5z" />
    <glyph glyph-name="uni0123" unicode="&#x123;" horiz-adv-x="1224" 
d="M563 1403h92v-191h-202v197q0 152 74 231.5t202 90.5l19 -86q-105 -20 -145 -76.5t-40 -165.5zM1057 1026v-981q0 -223 -125.5 -342t-339.5 -119q-178 0 -311 92q-131 90 -152 263h141q18 -108 99 -169t223 -61q154 0 242 83.5t88 246.5v203q-52 -102 -148.5 -152.5
t-214.5 -50.5q-199 0 -326 133t-127 369q0 119 36 215.5t98.5 158.5t145.5 95.5t179 33.5q120 0 212.5 -49t142.5 -135v166h137zM913 541q0 181 -91.5 282t-237.5 101q-143 0 -241.5 -101.5t-98.5 -279.5t96.5 -278.5t241.5 -100.5q141 0 235 94q96 96 96 283z" />
    <glyph glyph-name="Hcircumflex" unicode="&#x124;" horiz-adv-x="1472" 
d="M1274 1434v-1434h-146v657h-784v-657h-145v1434h145v-648h784v648h146zM887 1589l-150 189l-149 -189h-144l246 312h94l246 -312h-143z" />
    <glyph glyph-name="hcircumflex" unicode="&#x125;" horiz-adv-x="1198" 
d="M1030 702v-702h-139v686q0 106 -67 170t-179 64q-140 0 -234 -102.5t-94 -278.5v-539h-139v1456h139v-629q108 217 355 217q164 0 261 -90t97 -252zM834 1233l-150 186l-149 -186h-144l246 311h94l246 -311h-143z" />
    <glyph glyph-name="Hbar" unicode="&#x126;" horiz-adv-x="1579" 
d="M1544 1110v-100h-217v-1010h-145v657h-785v-657h-145v1010h-217v100h217v324h145v-324h785v324h145v-324h217zM1182 786v224h-785v-224h785z" />
    <glyph glyph-name="hbar" unicode="&#x127;" horiz-adv-x="1261" 
d="M1094 702v-702h-140v686q0 106 -66.5 170t-178.5 64q-140 0 -234 -102.5t-94 -278.5v-539h-139v1188h-166v106h166v162h139v-162h227v-106h-227v-361q108 217 354 217q164 0 261.5 -90t97.5 -252z" />
    <glyph glyph-name="Itilde" unicode="&#x128;" horiz-adv-x="563" 
d="M354 1434v-1434h-145v1434h145zM426 1589q-34 0 -63 15t-87 57q-68 55 -100 55q-67 0 -88 -117h-98q10 114 59 179t119 65q34 0 63.5 -15.5t83.5 -55.5q40 -32 61.5 -44t43.5 -12q71 0 86 123h88q0 -115 -48 -182.5t-120 -67.5z" />
    <glyph glyph-name="itilde" unicode="&#x129;" horiz-adv-x="487" 
d="M313 1026v-1026h-139v1026h139zM375 1233q-60 0 -150 72q-65 53 -100 53q-67 0 -88 -117h-98q10 115 59 180.5t119 65.5q34 0 63 -15.5t84 -56.5q38 -31 60.5 -44t44.5 -13q71 0 86 125h88q0 -115 -48 -182.5t-120 -67.5z" />
    <glyph glyph-name="Imacron" unicode="&#x12a;" horiz-adv-x="563" 
d="M354 1434v-1434h-145v1434h145zM588 1589h-611v109h611v-109z" />
    <glyph glyph-name="imacron" unicode="&#x12b;" horiz-adv-x="487" 
d="M313 1026v-1026h-139v1026h139zM549 1233h-610v108h610v-108z" />
    <glyph glyph-name="Iogonek" unicode="&#x12e;" horiz-adv-x="563" 
d="M408 -227v-109q-114 11 -192.5 72.5t-78.5 146.5q0 86 72 131v1420h145v-1434h-67q-45 -45 -45 -96q0 -57 48 -91.5t118 -39.5z" />
    <glyph glyph-name="iogonek" unicode="&#x12f;" horiz-adv-x="485" 
d="M322 1454v-184h-158v184h158zM381 -227v-109q-114 11 -192 72.5t-78 146.5q0 80 63 125v1018h139v-1026h-53q-45 -45 -45 -96q0 -57 48 -91.5t118 -39.5z" />
    <glyph glyph-name="Idot" unicode="&#x130;" horiz-adv-x="563" 
d="M354 1434v-1434h-145v1434h145zM184 1589v203h195v-203h-195z" />
    <glyph glyph-name="dotlessi" unicode="&#x131;" horiz-adv-x="485" 
d="M313 1026v-1026h-139v1026h139z" />
    <glyph glyph-name="IJ" unicode="&#x132;" horiz-adv-x="1607" 
d="M354 1434v-1434h-145v1434h145zM1430 1434v-1047q0 -203 -108 -313.5t-290 -110.5q-176 0 -289.5 106t-113.5 291v123h145v-118q0 -128 69.5 -198.5t188.5 -70.5q117 0 184.5 72.5t67.5 206.5v1059h146z" />
    <glyph glyph-name="ij" unicode="&#x133;" horiz-adv-x="987" 
d="M164 1270v184h158v-184h-158zM174 0v1026h139v-1026h-139zM676 1272v182h158v-182h-158zM686 1026h139v-1153q0 -146 -65.5 -206t-192.5 -60h-78v123h54q80 0 111.5 35t31.5 112v1149z" />
    <glyph glyph-name="Jcircumflex" unicode="&#x134;" horiz-adv-x="1044" 
d="M866 1434v-1047q0 -203 -107.5 -313.5t-289.5 -110.5q-176 0 -289.5 106t-113.5 291v123h145v-118q0 -128 69.5 -198.5t188.5 -70.5q117 0 184.5 72.5t67.5 206.5v1059h145zM928 1589l-150 189l-149 -189h-144l246 312h94l246 -312h-143z" />
    <glyph glyph-name="jcircumflex" unicode="&#x135;" horiz-adv-x="501" 
d="M418 1233l-150 186l-149 -186h-144l246 311h94l246 -311h-143zM4 -393v123h53q80 0 112 35t32 112v1149h139v-1153q0 -146 -65.5 -206t-192.5 -60h-78z" />
    <glyph glyph-name="uni0136" unicode="&#x136;" horiz-adv-x="1343" 
d="M1106 0l-528 727l-234 -250v-477h-145v1434h145v-768l703 768h188l-555 -594l608 -840h-182zM639 -350h-92v190h203v-196q0 -152 -74.5 -231.5t-202.5 -90.5l-18 86q105 19 144.5 76t39.5 166z" />
    <glyph glyph-name="uni0137" unicode="&#x137;" horiz-adv-x="1118" 
d="M1053 0h-164l-385 496l-187 -191v-305h-139v1456h139v-977l525 547h182l-424 -432zM545 -350h-92v190h202v-196q0 -152 -74 -231.5t-202 -90.5l-19 86q105 20 145 76.5t40 165.5z" />
    <glyph glyph-name="kgreenlandic" unicode="&#x138;" horiz-adv-x="1118" 
d="M1053 0h-164l-385 496l-187 -191v-305h-139v1026h139v-547l525 547h182l-424 -432z" />
    <glyph glyph-name="Lacute" unicode="&#x139;" horiz-adv-x="1142" 
d="M1067 131v-131h-868v1434h145v-1303h723zM569 1851l-233 -262h-115l228 353z" />
    <glyph glyph-name="lacute" unicode="&#x13a;" horiz-adv-x="495" 
d="M317 1456v-1456h-139v1456h139zM543 1851l-234 -262h-114l227 353z" />
    <glyph glyph-name="uni013B" unicode="&#x13b;" horiz-adv-x="1142" 
d="M1067 131v-131h-868v1434h145v-1303h723zM604 -350h-92v190h203v-196q0 -152 -74.5 -231.5t-202.5 -90.5l-18 86q105 19 144.5 76t39.5 166z" />
    <glyph glyph-name="uni013C" unicode="&#x13c;" horiz-adv-x="485" 
d="M317 1456v-1456h-139v1456h139zM233 -332h-92v191h203v-197q0 -152 -74 -231t-202 -90l-19 86q105 20 144.5 76t39.5 165z" />
    <glyph glyph-name="Lcaron" unicode="&#x13d;" horiz-adv-x="1267" 
d="M1067 131v-131h-868v1434h145v-1303h723zM1096 1278h-92v190h202v-196q0 -152 -74 -231.5t-202 -90.5l-19 86q105 20 145 76.5t40 165.5z" />
    <glyph glyph-name="lcaron" unicode="&#x13e;" horiz-adv-x="829" 
d="M317 1456v-1456h-139v1456h139zM643 1278h-92v190h203v-196q0 -152 -74.5 -231.5t-202.5 -90.5l-18 86q105 19 144.5 76t39.5 166z" />
    <glyph glyph-name="Ldot" unicode="&#x13f;" horiz-adv-x="1142" 
d="M1067 131v-131h-868v1434h145v-1303h723zM872 823v203h195v-203h-195z" />
    <glyph glyph-name="ldot" unicode="&#x140;" horiz-adv-x="786" 
d="M317 1456v-1456h-139v1456h139zM516 823v203h195v-203h-195z" />
    <glyph glyph-name="Lslash" unicode="&#x141;" horiz-adv-x="1208" 
d="M410 131h723v-131h-869v545l-229 -121v119l229 121v770h146v-695l426 224v-119l-426 -223v-490z" />
    <glyph glyph-name="lslash" unicode="&#x142;" horiz-adv-x="487" 
d="M487 877v-119l-184 -96v-662h-139v588l-164 -86v119l164 86v749h139v-676z" />
    <glyph glyph-name="Nacute" unicode="&#x143;" horiz-adv-x="1466" 
d="M1268 1434v-1434h-156l-772 1233v-1233h-141v1434h186l743 -1201v1201h140zM1020 1851l-234 -262h-114l227 353z" />
    <glyph glyph-name="nacute" unicode="&#x144;" horiz-adv-x="1198" 
d="M1030 702v-702h-139v686q0 106 -67 170t-179 64q-140 0 -234 -102.5t-94 -278.5v-539h-139v1026h139v-190q51 99 140.5 153.5t214.5 54.5q164 0 261 -90t97 -252zM934 1495l-234 -262h-114l227 350z" />
    <glyph glyph-name="uni0145" unicode="&#x145;" horiz-adv-x="1466" 
d="M1268 1434v-1434h-156l-772 1233v-1233h-141v1434h186l743 -1201v1201h140zM684 -350h-92v190h203v-196q0 -152 -74.5 -231.5t-202.5 -90.5l-18 86q105 19 144.5 76t39.5 166z" />
    <glyph glyph-name="uni0146" unicode="&#x146;" horiz-adv-x="1198" 
d="M1030 702v-702h-139v686q0 106 -67 170t-179 64q-140 0 -234 -102.5t-94 -278.5v-539h-139v1026h139v-190q51 99 140.5 153.5t214.5 54.5q164 0 261 -90t97 -252zM569 -350h-92v190h203v-196q0 -152 -74.5 -231.5t-202.5 -90.5l-18 86q105 19 144.5 76t39.5 166z" />
    <glyph glyph-name="Ncaron" unicode="&#x147;" horiz-adv-x="1466" 
d="M1268 1434v-1434h-156l-772 1233v-1233h-141v1434h186l743 -1201v1201h140zM899 1903h143l-245 -312h-95l-245 312h143l150 -189z" />
    <glyph glyph-name="ncaron" unicode="&#x148;" horiz-adv-x="1198" 
d="M1030 702v-702h-139v686q0 106 -67 170t-179 64q-140 0 -234 -102.5t-94 -278.5v-539h-139v1026h139v-190q51 99 140.5 153.5t214.5 54.5q164 0 261 -90t97 -252zM487 1544l150 -186l149 186h144l-246 -311h-94l-246 311h143z" />
    <glyph glyph-name="napostrophe" unicode="&#x149;" horiz-adv-x="1538" 
d="M1370 702v-702h-139v686q0 106 -67 170t-179 64q-140 0 -234 -102.5t-94 -278.5v-539h-139v1026h139v-190q51 99 140.5 153.5t214.5 54.5q164 0 261 -90t97 -252zM260 1278h-92v190h203v-196q0 -152 -74.5 -231.5t-202.5 -90.5l-18 86q105 19 144.5 76t39.5 166z" />
    <glyph glyph-name="Eng" unicode="&#x14a;" horiz-adv-x="1466" 
d="M1128 1434h140v-1561q0 -148 -64.5 -207t-193.5 -59h-76v123h53q79 0 110 34.5t31 112.5v127l-788 1229v-1233h-141v1434h186l743 -1170v1170z" />
    <glyph glyph-name="eng" unicode="&#x14b;" horiz-adv-x="1183" 
d="M1030 702v-829q0 -146 -65.5 -206t-192.5 -60h-78v123h54q80 0 111.5 35t31.5 112v809q0 106 -67 170t-179 64q-140 0 -234 -102.5t-94 -278.5v-539h-139v1026h139v-190q51 99 140.5 153.5t214.5 54.5q164 0 261 -90t97 -252z" />
    <glyph glyph-name="Omacron" unicode="&#x14c;" horiz-adv-x="1642" 
d="M1516 717q1 -122 -28.5 -235t-89 -208t-142 -165t-195 -109t-240.5 -37q-160 -2 -293 58t-220.5 164.5t-135 241.5t-45.5 290q-2 152 45.5 288.5t135 240.5t220.5 164t293 58q128 2 240.5 -37t195 -109t142 -164.5t89 -207t28.5 -233.5zM1364 719q0 129 -35.5 239.5
t-102.5 194t-171.5 131t-233.5 47.5q-172 0 -296.5 -83t-185 -219.5t-60.5 -309.5q0 -129 36.5 -241t103.5 -196.5t171 -133t231 -48.5q169 0 294 84t187 223t62 312zM1126 1589h-610v109h610v-109z" />
    <glyph glyph-name="omacron" unicode="&#x14d;" horiz-adv-x="1193" 
d="M106 512q0 242 136 387t354 145q219 0 355 -144.5t136 -389.5q0 -242 -136 -387.5t-353 -145.5q-219 0 -355.5 145t-136.5 390zM944 518q0 184 -99 290.5t-251 106.5q-156 0 -250 -110t-94 -295q0 -183 99 -292t251 -109q155 0 249.5 110t94.5 299zM903 1233h-610v108
h610v-108z" />
    <glyph glyph-name="Obreve" unicode="&#x14e;" horiz-adv-x="1642" 
d="M1516 717q1 -122 -28.5 -235t-89 -208t-142 -165t-195 -109t-240.5 -37q-160 -2 -293 58t-220.5 164.5t-135 241.5t-45.5 290q-2 152 45.5 288.5t135 240.5t220.5 164t293 58q128 2 240.5 -37t195 -109t142 -164.5t89 -207t28.5 -233.5zM1364 719q0 129 -35.5 239.5
t-102.5 194t-171.5 131t-233.5 47.5q-172 0 -296.5 -83t-185 -219.5t-60.5 -309.5q0 -129 36.5 -241t103.5 -196.5t171 -133t231 -48.5q169 0 294 84t187 223t62 312zM1042 1792q0 -89 -56.5 -146t-164.5 -57q-106 0 -162.5 57t-56.5 146q0 42 12 76h103q-10 -30 -10 -58
q0 -127 114 -127q115 0 115 127q0 27 -8 58h102q12 -35 12 -76z" />
    <glyph glyph-name="obreve" unicode="&#x14f;" horiz-adv-x="1193" 
d="M106 512q0 242 136 387t354 145q219 0 355 -144.5t136 -389.5q0 -242 -136 -387.5t-353 -145.5q-219 0 -355.5 145t-136.5 390zM944 518q0 184 -99 290.5t-251 106.5q-156 0 -250 -110t-94 -295q0 -183 99 -292t251 -109q155 0 249.5 110t94.5 299zM817 1436
q0 -89 -56.5 -146t-164.5 -57q-106 0 -162.5 57t-56.5 146q0 40 12 75h103q-11 -33 -11 -59q0 -125 115 -125t115 125q0 24 -9 59h103q12 -34 12 -75z" />
    <glyph glyph-name="Ohungarumlaut" unicode="&#x150;" horiz-adv-x="1642" 
d="M1516 717q1 -122 -28.5 -235t-89 -208t-142 -165t-195 -109t-240.5 -37q-160 -2 -293 58t-220.5 164.5t-135 241.5t-45.5 290q-2 152 45.5 288.5t135 240.5t220.5 164t293 58q128 2 240.5 -37t195 -109t142 -164.5t89 -207t28.5 -233.5zM1364 719q0 129 -35.5 239.5
t-102.5 194t-171.5 131t-233.5 47.5q-172 0 -296.5 -83t-185 -219.5t-60.5 -309.5q0 -129 36.5 -241t103.5 -196.5t171 -133t231 -48.5q169 0 294 84t187 223t62 312zM852 1896l-104 -307h-107l82 307h129zM1100 1894l-103 -305h-108l82 305h129z" />
    <glyph glyph-name="ohungarumlaut" unicode="&#x151;" horiz-adv-x="1193" 
d="M106 512q0 242 136 387t354 145q219 0 355 -144.5t136 -389.5q0 -242 -136 -387.5t-353 -145.5q-219 0 -355.5 145t-136.5 390zM944 518q0 184 -99 290.5t-251 106.5q-156 0 -250 -110t-94 -295q0 -183 99 -292t251 -109q155 0 249.5 110t94.5 299zM629 1538l-105 -305
h-106l82 305h129zM877 1538l-105 -305h-106l82 305h129z" />
    <glyph glyph-name="OE" unicode="&#x152;" horiz-adv-x="2244" 
d="M2138 131v-131h-1083q-104 -37 -232 -37q-124 -2 -235 37t-194.5 110t-145 166t-92.5 208t-29 233q-1 150 48 287.5t138 241.5t222 164.5t288 57.5q122 0 228 -34h1048v-129h-825q104 -92 165.5 -225t73.5 -289h523v-132h-523q-11 -159 -71.5 -295.5t-165.5 -232.5h862z
M827 102q123 0 225.5 48.5t170 132.5t104.5 194.5t37 235.5q0 128 -38 240.5t-106.5 196.5t-171.5 132.5t-227 48.5q-164 0 -289 -83t-189 -220.5t-64 -306.5q0 -170 65 -310t191.5 -224.5t291.5 -84.5z" />
    <glyph glyph-name="oe" unicode="&#x153;" horiz-adv-x="1974" 
d="M1868 549v-70h-783q0 -184 99 -278q102 -97 243 -97q105 0 184.5 50.5t108.5 140.5h133q-36 -153 -155 -235.5t-279 -82.5q-130 0 -236 61.5t-167 176.5q-61 -115 -169.5 -176.5t-248.5 -61.5q-219 0 -355.5 145t-136.5 390q0 242 136 387t354 145q141 0 250 -62
t170 -177q60 116 168.5 177.5t240.5 61.5q196 0 319.5 -127.5t123.5 -367.5zM1090 598h636q0 150 -85.5 237t-221.5 87q-134 0 -225.5 -85.5t-103.5 -238.5zM944 518q0 184 -99 290.5t-251 106.5q-156 0 -250 -110t-94 -295q0 -183 99 -292t251 -109q155 0 249.5 110
t94.5 299z" />
    <glyph glyph-name="Racute" unicode="&#x154;" horiz-adv-x="1327" 
d="M1262 0h-170l-392 621h-358v-621h-143v1434h530q104 0 189.5 -31.5t140.5 -85.5t85 -124.5t30 -150.5q0 -131 -84 -247q-80 -111 -232 -152zM342 750h377q142 0 226.5 83.5t84.5 202.5q0 116 -78.5 192.5t-214.5 76.5h-395v-555zM889 1851l-234 -262h-114l227 353z" />
    <glyph glyph-name="racute" unicode="&#x155;" horiz-adv-x="745" 
d="M690 1038v-133h-33q-166 0 -253 -91t-87 -269v-545h-139v1026h137v-188q35 97 121 148.5t209 51.5h45zM721 1495l-234 -262h-114l227 350z" />
    <glyph glyph-name="uni0156" unicode="&#x156;" horiz-adv-x="1327" 
d="M1262 0h-170l-392 621h-358v-621h-143v1434h530q104 0 189.5 -31.5t140.5 -85.5t85 -124.5t30 -150.5q0 -131 -84 -247q-80 -111 -232 -152zM342 750h377q142 0 226.5 83.5t84.5 202.5q0 116 -78.5 192.5t-214.5 76.5h-395v-555zM666 -350h-93v190h203v-196
q0 -152 -74 -231.5t-202 -90.5l-19 86q105 20 145 76.5t40 165.5z" />
    <glyph glyph-name="uni0157" unicode="&#x157;" horiz-adv-x="745" 
d="M690 1038v-133h-33q-166 0 -253 -91t-87 -269v-545h-139v1026h137v-188q35 97 121 148.5t209 51.5h45zM242 -350h-92v190h202v-196q0 -152 -74 -231.5t-202 -90.5l-19 86q105 20 145 76.5t40 165.5z" />
    <glyph glyph-name="Rcaron" unicode="&#x158;" horiz-adv-x="1327" 
d="M1262 0h-170l-392 621h-358v-621h-143v1434h530q104 0 189.5 -31.5t140.5 -85.5t85 -124.5t30 -150.5q0 -131 -84 -247q-80 -111 -232 -152zM342 750h377q142 0 226.5 83.5t84.5 202.5q0 116 -78.5 192.5t-214.5 76.5h-395v-555zM778 1903h144l-246 -312h-94l-246 312
h143l150 -189z" />
    <glyph glyph-name="rcaron" unicode="&#x159;" horiz-adv-x="745" 
d="M690 1038v-133h-33q-166 0 -253 -91t-87 -269v-545h-139v1026h137v-188q35 97 121 148.5t209 51.5h45zM258 1544l150 -186l149 186h143l-245 -311h-95l-245 311h143z" />
    <glyph glyph-name="Sacute" unicode="&#x15a;" horiz-adv-x="1277" 
d="M674 -37q-152 0 -276.5 58t-200.5 172t-80 264h155q6 -180 121 -269q119 -90 281 -90q150 0 243 70t93 190q0 89 -54 146q-50 51 -120 78.5t-215 62.5q-89 21 -153 42t-125.5 54.5t-99.5 76t-61.5 104.5t-25.5 141q0 191 135 299q132 106 352 106q210 0 348 -102
q141 -102 150 -299h-152q-4 131 -98.5 200.5t-247.5 69.5q-155 0 -248.5 -71t-93.5 -199q0 -93 47 -149q47 -51 117.5 -80t212.5 -62q170 -41 252 -76q106 -41 168.5 -122t62.5 -205q0 -128 -65.5 -222.5t-174.5 -141t-247 -46.5zM924 1851l-234 -262h-115l228 353z" />
    <glyph glyph-name="sacute" unicode="&#x15b;" horiz-adv-x="1032" 
d="M936 291q0 -154 -115 -234t-280 -80q-176 0 -303 89t-142 249h150q17 -103 97.5 -158t199.5 -55q108 0 178 45.5t70 124.5q0 74 -58 110t-182 56q-130 19 -225 47q-91 28 -148 90.5t-57 165.5q0 144 107 223.5t280 79.5q174 0 284 -81t117 -226h-145q-7 88 -79.5 136.5
t-182.5 48.5q-107 0 -171.5 -46.5t-64.5 -125.5q2 -24 7 -42.5t15.5 -34t21 -26.5t31.5 -21t37.5 -16t48.5 -13.5t54.5 -11.5t65.5 -12q118 -20 203 -43q186 -55 186 -239zM780 1495l-233 -262h-115l227 350z" />
    <glyph glyph-name="Scircumflex" unicode="&#x15c;" horiz-adv-x="1277" 
d="M674 -37q-152 0 -276.5 58t-200.5 172t-80 264h155q6 -180 121 -269q119 -90 281 -90q150 0 243 70t93 190q0 89 -54 146q-50 51 -120 78.5t-215 62.5q-89 21 -153 42t-125.5 54.5t-99.5 76t-61.5 104.5t-25.5 141q0 191 135 299q132 106 352 106q210 0 348 -102
q141 -102 150 -299h-152q-4 131 -98.5 200.5t-247.5 69.5q-155 0 -248.5 -71t-93.5 -199q0 -93 47 -149q47 -51 117.5 -80t212.5 -62q170 -41 252 -76q106 -41 168.5 -122t62.5 -205q0 -128 -65.5 -222.5t-174.5 -141t-247 -46.5zM772 1589l-149 189l-150 -189h-143l245 312
h95l245 -312h-143z" />
    <glyph glyph-name="scircumflex" unicode="&#x15d;" horiz-adv-x="1032" 
d="M936 291q0 -154 -115 -234t-280 -80q-176 0 -303 89t-142 249h150q17 -103 97.5 -158t199.5 -55q108 0 178 45.5t70 124.5q0 74 -58 110t-182 56q-130 19 -225 47q-91 28 -148 90.5t-57 165.5q0 144 107 223.5t280 79.5q174 0 284 -81t117 -226h-145q-7 88 -79.5 136.5
t-182.5 48.5q-107 0 -171.5 -46.5t-64.5 -125.5q2 -24 7 -42.5t15.5 -34t21 -26.5t31.5 -21t37.5 -16t48.5 -13.5t54.5 -11.5t65.5 -12q118 -20 203 -43q186 -55 186 -239zM666 1233l-150 186l-149 -186h-144l246 311h94l246 -311h-143z" />
    <glyph glyph-name="Scedilla" unicode="&#x15e;" horiz-adv-x="1277" 
d="M713 -37v-76q92 -5 145 -44.5t53 -104.5q0 -70 -54.5 -117t-145.5 -47q-115 0 -203 76l53 74q80 -62 152 -62q44 0 70 20t26 56q0 43 -46 62.5t-145 19.5v145q-212 15 -353.5 148t-147.5 344h155q6 -180 121 -269q119 -90 281 -90q150 0 243 70t93 190q0 89 -54 146
q-50 51 -120 78.5t-215 62.5q-89 21 -153 42t-125.5 54.5t-99.5 76t-61.5 104.5t-25.5 141q0 191 135 299q132 106 352 106q210 0 348 -102q141 -102 150 -299h-152q-4 131 -98.5 200.5t-247.5 69.5q-155 0 -248.5 -71t-93.5 -199q0 -93 47 -149q47 -51 117.5 -80t212.5 -62
q170 -41 252 -76q106 -41 168.5 -122t62.5 -205q0 -184 -127 -293q-126 -105 -321 -117z" />
    <glyph glyph-name="scedilla" unicode="&#x15f;" horiz-adv-x="1032" 
d="M588 -20v-93q92 -5 145 -44.5t53 -104.5q0 -70 -54.5 -117t-145.5 -47q-115 0 -203 76l53 74q80 -62 152 -62q44 0 70 20t26 56q0 43 -46 62.5t-144 19.5v160q-165 12 -275 101t-123 234h150q17 -103 97.5 -158t199.5 -55q108 0 178 45.5t70 124.5q0 74 -58 110t-182 56
q-130 19 -225 47q-91 28 -148 90.5t-57 165.5q0 144 107 223.5t280 79.5q174 0 284 -81t117 -226h-145q-7 88 -79.5 136.5t-182.5 48.5q-107 0 -171.5 -46.5t-64.5 -125.5q2 -24 7 -42.5t15.5 -34t21 -26.5t31.5 -21t37.5 -16t48.5 -13.5t54.5 -11.5t65.5 -12
q118 -20 203 -43q186 -55 186 -239q0 -137 -95.5 -218t-252.5 -93z" />
    <glyph glyph-name="Scaron" unicode="&#x160;" horiz-adv-x="1277" 
d="M674 -37q-152 0 -276.5 58t-200.5 172t-80 264h155q6 -180 121 -269q119 -90 281 -90q150 0 243 70t93 190q0 89 -54 146q-50 51 -120 78.5t-215 62.5q-89 21 -153 42t-125.5 54.5t-99.5 76t-61.5 104.5t-25.5 141q0 191 135 299q132 106 352 106q210 0 348 -102
q141 -102 150 -299h-152q-4 131 -98.5 200.5t-247.5 69.5q-155 0 -248.5 -71t-93.5 -199q0 -93 47 -149q47 -51 117.5 -80t212.5 -62q170 -41 252 -76q106 -41 168.5 -122t62.5 -205q0 -128 -65.5 -222.5t-174.5 -141t-247 -46.5zM805 1903h143l-246 -312h-94l-246 312h144
l149 -189z" />
    <glyph glyph-name="scaron" unicode="&#x161;" horiz-adv-x="1032" 
d="M936 291q0 -154 -115 -234t-280 -80q-176 0 -303 89t-142 249h150q17 -103 97.5 -158t199.5 -55q108 0 178 45.5t70 124.5q0 74 -58 110t-182 56q-130 19 -225 47q-91 28 -148 90.5t-57 165.5q0 144 107 223.5t280 79.5q174 0 284 -81t117 -226h-145q-7 88 -79.5 136.5
t-182.5 48.5q-107 0 -171.5 -46.5t-64.5 -125.5q2 -24 7 -42.5t15.5 -34t21 -26.5t31.5 -21t37.5 -16t48.5 -13.5t54.5 -11.5t65.5 -12q118 -20 203 -43q186 -55 186 -239zM365 1544l149 -186l150 186h143l-246 -311h-94l-246 311h144z" />
    <glyph glyph-name="uni0162" unicode="&#x162;" horiz-adv-x="1216" 
d="M680 0h-51v-113q92 -5 145 -44.5t53 -104.5q0 -70 -54.5 -117t-145.5 -47q-115 0 -203 76l53 74q80 -62 152 -62q44 0 70 20t26 56q0 43 -46 62.5t-144 19.5v1485h-490v129h1126v-129h-491v-1305z" />
    <glyph glyph-name="uni0163" unicode="&#x163;" horiz-adv-x="741" 
d="M662 -242q0 -70 -55 -117t-146 -47q-115 0 -203 76l53 74q79 -61 152 -61q44 0 70 19.5t26 55.5q0 43 -46 62.5t-144 19.5v180q-121 49 -121 240v641h-203v125h203v291l139 39v-330h248v-125h-248v-631q0 -76 31 -109.5t110 -33.5h127v-127h-149q-33 0 -43 2v-94
q91 -5 145 -45t54 -105z" />
    <glyph glyph-name="Tcaron" unicode="&#x164;" horiz-adv-x="1216" 
d="M1171 1434v-129h-491v-1305h-145v1305h-490v129h1126zM758 1903h143l-246 -312h-94l-246 312h144l149 -189z" />
    <glyph glyph-name="tcaron" unicode="&#x165;" horiz-adv-x="1073" 
d="M655 127v-127h-149q-125 0 -191 51q-67 52 -67 209v641h-203v125h203v291l139 39v-330h248v-125h-248v-631q0 -76 31 -109.5t110 -33.5h127zM887 1268h-92v190h202v-196q0 -152 -74 -231.5t-202 -90.5l-19 86q105 20 145 76.5t40 165.5z" />
    <glyph glyph-name="Tbar" unicode="&#x166;" horiz-adv-x="1216" 
d="M1171 1305h-491v-385h373v-103h-373v-817h-145v817h-369v103h369v385h-490v129h1126v-129z" />
    <glyph glyph-name="tbar" unicode="&#x167;" horiz-adv-x="741" 
d="M528 127h127v-127h-149q-125 0 -191 51q-67 52 -67 209v287h-203v123h203v231h-203v125h203v291l139 39v-330h248v-125h-248v-231h248v-123h-248v-277q0 -76 31 -109.5t110 -33.5z" />
    <glyph glyph-name="Utilde" unicode="&#x168;" horiz-adv-x="1443" 
d="M1122 1434h144v-934q0 -254 -146.5 -395.5t-396.5 -141.5q-245 0 -395 141.5t-150 395.5v934h146v-920q0 -202 108.5 -309t296.5 -107q182 0 287.5 100.5t105.5 290.5v945zM870 1589q-34 0 -62 15t-87 57q-68 55 -100 55q-68 0 -89 -117h-98q10 114 59 179t119 65
q34 0 64.5 -15.5t83.5 -55.5q40 -32 61 -44t43 -12q71 0 86 123h88q0 -115 -48 -182.5t-120 -67.5z" />
    <glyph glyph-name="utilde" unicode="&#x169;" horiz-adv-x="1177" 
d="M999 0h-133v195q-53 -102 -141.5 -154.5t-200.5 -52.5q-158 0 -257 96t-99 264v678h139v-661q0 -119 67 -186.5t175 -67.5q133 0 222 101t89 284v530h139v-1026zM727 1233q-35 0 -68 17t-81 55q-65 53 -101 53q-67 0 -88 -117h-98q10 115 59 180.5t119 65.5
q34 0 63 -15.5t84 -56.5q38 -31 60.5 -44t44.5 -13q71 0 86 125h88q0 -115 -48 -182.5t-120 -67.5z" />
    <glyph glyph-name="Umacron" unicode="&#x16a;" horiz-adv-x="1443" 
d="M1122 1434h144v-934q0 -254 -146.5 -395.5t-396.5 -141.5q-245 0 -395 141.5t-150 395.5v934h146v-920q0 -202 108.5 -309t296.5 -107q182 0 287.5 100.5t105.5 290.5v945zM1028 1589h-610v109h610v-109z" />
    <glyph glyph-name="umacron" unicode="&#x16b;" horiz-adv-x="1177" 
d="M999 0h-133v195q-53 -102 -141.5 -154.5t-200.5 -52.5q-158 0 -257 96t-99 264v678h139v-661q0 -119 67 -186.5t175 -67.5q133 0 222 101t89 284v530h139v-1026zM899 1233h-610v108h610v-108z" />
    <glyph glyph-name="Ubreve" unicode="&#x16c;" horiz-adv-x="1443" 
d="M1122 1434h144v-934q0 -254 -146.5 -395.5t-396.5 -141.5q-245 0 -395 141.5t-150 395.5v934h146v-920q0 -202 108.5 -309t296.5 -107q182 0 287.5 100.5t105.5 290.5v945zM942 1792q0 -89 -56.5 -146t-164.5 -57q-106 0 -162.5 57t-56.5 146q0 42 12 76h102
q-10 -30 -10 -58q0 -127 115 -127t115 127q0 24 -9 58h103q12 -35 12 -76z" />
    <glyph glyph-name="ubreve" unicode="&#x16d;" horiz-adv-x="1177" 
d="M999 0h-133v195q-53 -102 -141.5 -154.5t-200.5 -52.5q-158 0 -257 96t-99 264v678h139v-661q0 -119 67 -186.5t175 -67.5q133 0 222 101t89 284v530h139v-1026zM815 1436q0 -89 -56.5 -146t-164.5 -57q-106 0 -162.5 57t-56.5 146q0 40 12 75h102q-10 -30 -10 -59
q0 -125 115 -125t115 125q0 24 -9 59h103q12 -34 12 -75z" />
    <glyph glyph-name="Uring" unicode="&#x16e;" horiz-adv-x="1443" 
d="M1122 1434h144v-934q0 -254 -146.5 -395.5t-396.5 -141.5q-245 0 -395 141.5t-150 395.5v934h146v-920q0 -202 108.5 -309t296.5 -107q182 0 287.5 100.5t105.5 290.5v945zM535 1759q0 84 52.5 135.5t133.5 51.5q83 0 136.5 -51.5t53.5 -135.5q0 -82 -54 -136t-136 -54
q-80 0 -133 54t-53 136zM823 1759q0 44 -29.5 74.5t-72.5 30.5q-42 0 -70 -30t-28 -75t28 -76.5t70 -31.5q43 0 72.5 32t29.5 76z" />
    <glyph glyph-name="uring" unicode="&#x16f;" horiz-adv-x="1177" 
d="M999 0h-133v195q-53 -102 -141.5 -154.5t-200.5 -52.5q-158 0 -257 96t-99 264v678h139v-661q0 -119 67 -186.5t175 -67.5q133 0 222 101t89 284v530h139v-1026zM399 1421q0 84 53 136.5t134 52.5q83 0 136.5 -52.5t53.5 -136.5q0 -82 -54 -135t-136 -53
q-78 0 -132.5 54.5t-54.5 133.5zM688 1421q0 44 -29.5 74.5t-72.5 30.5t-71 -30t-28 -75t28.5 -75.5t70.5 -30.5q43 0 72.5 31t29.5 75z" />
    <glyph glyph-name="Uhungarumlaut" unicode="&#x170;" horiz-adv-x="1443" 
d="M1122 1434h144v-934q0 -254 -146.5 -395.5t-396.5 -141.5q-245 0 -395 141.5t-150 395.5v934h146v-920q0 -202 108.5 -309t296.5 -107q182 0 287.5 100.5t105.5 290.5v945zM741 1896l-104 -307h-107l82 307h129zM989 1894l-102 -305h-109l82 305h129z" />
    <glyph glyph-name="uhungarumlaut" unicode="&#x171;" horiz-adv-x="1177" 
d="M999 0h-133v195q-53 -102 -141.5 -154.5t-200.5 -52.5q-158 0 -257 96t-99 264v678h139v-661q0 -119 67 -186.5t175 -67.5q133 0 222 101t89 284v530h139v-1026zM614 1538l-104 -305h-107l82 305h129zM862 1538l-104 -305h-107l82 305h129z" />
    <glyph glyph-name="Uogonek" unicode="&#x172;" horiz-adv-x="1443" 
d="M1122 1434h144v-934q0 -250 -143 -391t-388 -146q-14 -25 -14 -59q0 -57 48 -91.5t118 -39.5v-109q-114 11 -192.5 72.5t-78.5 146.5q0 42 25 84q-215 25 -339 163.5t-124 369.5v934h146v-920q0 -202 108.5 -309t296.5 -107q182 0 287.5 100.5t105.5 290.5v945z" />
    <glyph glyph-name="uogonek" unicode="&#x173;" horiz-adv-x="1177" 
d="M1073 -227v-109q-114 11 -192 72.5t-78 146.5q0 80 63 125v187q-53 -102 -141.5 -154.5t-200.5 -52.5q-158 0 -257 96t-99 264v678h139v-661q0 -119 67 -186.5t175 -67.5q133 0 222 101t89 284v530h139v-1026h-47q-45 -45 -45 -96q0 -57 48 -91.5t118 -39.5z" />
    <glyph glyph-name="Wcircumflex" unicode="&#x174;" horiz-adv-x="1949" 
d="M1874 1434l-381 -1434h-147l-369 1223l-369 -1223h-149l-383 1434h153l308 -1235l368 1235h150l366 -1241l308 1241h145zM1124 1589l-149 189l-150 -189h-143l246 312h94l246 -312h-144z" />
    <glyph glyph-name="wcircumflex" unicode="&#x175;" horiz-adv-x="1628" 
d="M1573 1026l-344 -1026h-139l-277 817l-276 -817h-138l-344 1026h144l272 -842l270 842h142l280 -844l267 844h143zM965 1233l-150 186l-149 -186h-144l246 311h94l246 -311h-143z" />
    <glyph glyph-name="Ycircumflex" unicode="&#x176;" horiz-adv-x="1288" 
d="M1055 1434h168l-506 -871v-563h-146v563l-505 871h172l409 -742zM795 1589l-150 189l-149 -189h-144l246 312h94l246 -312h-143z" />
    <glyph glyph-name="ycircumflex" unicode="&#x177;" horiz-adv-x="1001" 
d="M817 1026h139l-426 -1116q-51 -136 -128.5 -191t-217.5 -55h-55v123h57q87 0 143 38t87 126l22 63l-393 1012h148l311 -838zM655 1233l-149 186l-150 -186h-143l246 311h94l246 -311h-144z" />
    <glyph glyph-name="Ydieresis" unicode="&#x178;" horiz-adv-x="1288" 
d="M1055 1434h168l-506 -871v-563h-146v563l-505 871h172l409 -742zM543 1589h-168v183h168v-183zM913 1589h-168v183h168v-183z" />
    <glyph glyph-name="Zacute" unicode="&#x179;" horiz-adv-x="1312" 
d="M127 0v129l889 1176h-864v129h1036v-129l-885 -1174h903v-131h-1079zM942 1851l-233 -262h-115l227 353z" />
    <glyph glyph-name="zacute" unicode="&#x17a;" horiz-adv-x="1050" 
d="M117 0v127l647 774h-637v125h807v-125l-649 -774h647v-127h-815zM799 1495l-234 -262h-114l227 350z" />
    <glyph glyph-name="Zdotaccent" unicode="&#x17b;" horiz-adv-x="1312" 
d="M127 0v129l889 1176h-864v129h1036v-129l-885 -1174h903v-131h-1079zM588 1589v203h194v-203h-194z" />
    <glyph glyph-name="zdotaccent" unicode="&#x17c;" horiz-adv-x="1050" 
d="M117 0v127l647 774h-637v125h807v-125l-649 -774h647v-127h-815zM459 1233v203h194v-203h-194z" />
    <glyph glyph-name="Zcaron" unicode="&#x17d;" horiz-adv-x="1312" 
d="M127 0v129l889 1176h-864v129h1036v-129l-885 -1174h903v-131h-1079zM815 1903h143l-245 -312h-95l-245 312h143l150 -189z" />
    <glyph glyph-name="zcaron" unicode="&#x17e;" horiz-adv-x="1050" 
d="M117 0v127l647 774h-637v125h807v-125l-649 -774h647v-127h-815zM416 1544l149 -186l150 186h143l-246 -311h-94l-246 311h144z" />
    <glyph glyph-name="longs" unicode="&#x17f;" horiz-adv-x="694" 
d="M639 1331h-113q-80 0 -110.5 -33.5t-30.5 -113.5v-1184h-139v901h-170v125h170v162q0 146 66 207t192 61h135v-125z" />
    <glyph glyph-name="florin" unicode="&#x192;" horiz-adv-x="1050" 
d="M680 1184l-35 -158h221l-28 -125h-222l-151 -657q-30 -131 -105.5 -187.5t-197.5 -56.5h-86l28 123h58q75 0 115.5 38.5t58.5 117.5l141 622h-170l29 125h170l39 176q30 140 101.5 197t203.5 57h145l-28 -125h-109q-88 0 -124 -32t-54 -115z" />
    <glyph glyph-name="Aringacute" unicode="&#x1fa;" horiz-adv-x="1474" 
d="M985 2177l-186 -209h-92l182 281zM559 1708q0 78 50.5 128t125.5 50q80 0 131.5 -49.5t51.5 -128.5q0 -78 -52.5 -129t-130.5 -51q-74 0 -125 51.5t-51 128.5zM834 1708q0 42 -29 71t-70 29q-39 0 -65.5 -29t-26.5 -71q0 -43 27 -72.5t65 -29.5q41 0 70 30t29 72zM1239 0
l-162 406h-684l-162 -406h-155l581 1434h160l582 -1434h-160zM444 535h582l-291 735z" />
    <glyph glyph-name="aringacute" unicode="&#x1fb;" horiz-adv-x="1103" 
d="M827 1810l-211 -237h-102l205 317zM410 1313q0 74 47.5 121t120.5 47q75 0 123.5 -46.5t48.5 -121.5q0 -73 -49 -122.5t-123 -49.5q-72 0 -120 49t-48 123zM670 1313q0 38 -27 66t-65 28t-63.5 -26.5t-25.5 -67.5t26 -70t63 -29q38 0 65 29t27 70zM811 0v186
q-55 -101 -158.5 -155t-220.5 -54q-143 0 -234.5 81.5t-91.5 220.5q0 256 324 303l232 34q76 11 112.5 40t36.5 92q0 82 -62.5 127t-179.5 45q-122 0 -194 -49.5t-90 -139.5h-144q26 150 140.5 231.5t298.5 81.5q177 0 271.5 -83t94.5 -238v-723h-135zM633 500l-156 -25
q-104 -16 -162 -53q-65 -38 -65 -139q0 -88 56 -133.5t151 -45.5q89 0 167.5 38.5t130.5 118t52 183.5v103q-49 -28 -174 -47z" />
    <glyph glyph-name="AEacute" unicode="&#x1fc;" horiz-adv-x="2088" 
d="M1192 131h790v-131h-935v422h-596l-224 -422h-151l768 1434h1100v-129h-752v-514h688v-132h-688v-528zM522 553h525v752h-125zM1434 1851l-234 -262h-115l228 353z" />
    <glyph glyph-name="aeacute" unicode="&#x1fd;" horiz-adv-x="1826" 
d="M1726 549v-70h-782q0 -184 98 -278q102 -97 244 -97q105 0 182.5 50t106.5 141h137q-36 -153 -155 -235.5t-279 -82.5q-139 0 -250.5 70t-167.5 199q-70 -139 -183 -204t-245 -65q-143 0 -234.5 81.5t-91.5 220.5q0 256 324 303l232 34q76 11 112.5 40t36.5 92
q0 82 -62.5 127t-179.5 45q-122 0 -194 -49.5t-90 -139.5h-144q26 150 140.5 231.5t298.5 81.5q261 0 333 -178q62 86 160 132t211 46q196 0 319 -127.5t123 -367.5zM948 598h637q0 150 -85.5 237t-221.5 87q-134 0 -226 -85.5t-104 -238.5zM807 444v103q-49 -28 -174 -47
l-156 -25q-104 -16 -162 -53q-65 -38 -65 -139q0 -88 56 -133.5t151 -45.5q89 0 167.5 38.5t130.5 118t52 183.5zM1190 1495l-234 -262h-114l227 350z" />
    <glyph glyph-name="Oslashacute" unicode="&#x1fe;" horiz-adv-x="1642" 
d="M1516 717q1 -122 -28.5 -235t-89 -208t-142 -165t-195 -109t-240.5 -37q-222 0 -393 115l-119 -164l-90 68l121 168q-103 103 -158 250.5t-55 316.5q-2 152 45.5 288.5t135 240.5t220.5 164t293 58q226 0 393 -112l121 166l90 -68l-125 -172q104 -102 160 -249.5
t56 -315.5zM428 270l705 971q-131 90 -312 90q-172 0 -296.5 -83t-185 -219.5t-60.5 -309.5q0 -132 38 -248.5t111 -200.5zM1364 719q0 273 -147 446l-705 -972q134 -93 309 -93q169 0 294 84t187 223t62 312zM1128 1851l-233 -262h-115l228 353z" />
    <glyph glyph-name="oslashacute" unicode="&#x1ff;" horiz-adv-x="1193" 
d="M1087 510q0 -242 -136 -387.5t-353 -145.5q-151 0 -264 70l-119 -162l-90 68l121 166q-140 146 -140 393q0 242 136 387t354 145q155 0 268 -73l109 149l90 -65l-113 -156q137 -146 137 -389zM332 238l452 624q-83 53 -190 53q-156 0 -250 -110t-94 -295q0 -165 82 -272z
M944 518q0 159 -78 266l-450 -624q80 -51 184 -51q155 0 249.5 110t94.5 299zM840 1495l-234 -262h-114l227 350z" />
    <glyph glyph-name="uni0218" unicode="&#x218;" horiz-adv-x="1277" 
d="M674 -37q-152 0 -276.5 58t-200.5 172t-80 264h155q6 -180 121 -269q119 -90 281 -90q150 0 243 70t93 190q0 89 -54 146q-50 51 -120 78.5t-215 62.5q-89 21 -153 42t-125.5 54.5t-99.5 76t-61.5 104.5t-25.5 141q0 191 135 299q132 106 352 106q210 0 348 -102
q141 -102 150 -299h-152q-4 131 -98.5 200.5t-247.5 69.5q-155 0 -248.5 -71t-93.5 -199q0 -93 47 -149q47 -51 117.5 -80t212.5 -62q170 -41 252 -76q106 -41 168.5 -122t62.5 -205q0 -128 -65.5 -222.5t-174.5 -141t-247 -46.5zM653 -350h-92v190h203v-196
q0 -152 -74.5 -231.5t-202.5 -90.5l-18 86q105 19 144.5 76t39.5 166z" />
    <glyph glyph-name="uni0219" unicode="&#x219;" horiz-adv-x="1032" 
d="M936 291q0 -154 -115 -234t-280 -80q-176 0 -303 89t-142 249h150q17 -103 97.5 -158t199.5 -55q108 0 178 45.5t70 124.5q0 74 -58 110t-182 56q-130 19 -225 47q-91 28 -148 90.5t-57 165.5q0 144 107 223.5t280 79.5q174 0 284 -81t117 -226h-145q-7 88 -79.5 136.5
t-182.5 48.5q-107 0 -171.5 -46.5t-64.5 -125.5q2 -24 7 -42.5t15.5 -34t21 -26.5t31.5 -21t37.5 -16t48.5 -13.5t54.5 -11.5t65.5 -12q118 -20 203 -43q186 -55 186 -239zM516 -350h-92v190h203v-196q0 -152 -74.5 -231.5t-202.5 -90.5l-18 86q105 19 144.5 76t39.5 166z
" />
    <glyph glyph-name="uni021A" unicode="&#x21a;" horiz-adv-x="1216" 
d="M1171 1434v-129h-491v-1305h-145v1305h-490v129h1126zM590 -350h-92v190h202v-196q0 -152 -74 -231.5t-202 -90.5l-18 86q105 19 144.5 76t39.5 166z" />
    <glyph glyph-name="uni021B" unicode="&#x21b;" horiz-adv-x="741" 
d="M655 127v-127h-149q-125 0 -191 51q-67 52 -67 209v641h-203v125h203v291l139 39v-330h248v-125h-248v-631q0 -76 31 -109.5t110 -33.5h127zM461 -350h-92v190h202v-196q0 -152 -74 -231.5t-202 -90.5l-19 86q105 20 145 76.5t40 165.5z" />
    <glyph glyph-name="circumflex" unicode="&#x2c6;" horiz-adv-x="585" 
d="M442 1233l-149 186l-150 -186h-143l246 311h94l246 -311h-144z" />
    <glyph glyph-name="caron" unicode="&#x2c7;" horiz-adv-x="585" 
d="M143 1544l150 -186l149 186h144l-246 -311h-94l-246 311h143z" />
    <glyph glyph-name="uni02C9" unicode="&#x2c9;" horiz-adv-x="610" 
d="M610 1589h-610v109h610v-109z" />
    <glyph glyph-name="breve" unicode="&#x2d8;" horiz-adv-x="440" 
d="M440 1436q0 -89 -56.5 -146t-164.5 -57q-106 0 -162.5 57t-56.5 146q0 40 12 75h103q-11 -33 -11 -59q0 -125 115 -125t115 125q0 28 -8 59h102q12 -35 12 -75z" />
    <glyph glyph-name="dotaccent" unicode="&#x2d9;" horiz-adv-x="194" 
d="M0 1233v203h195v-203h-195z" />
    <glyph glyph-name="ring" unicode="&#x2da;" horiz-adv-x="376" 
d="M0 1421q0 84 53 136.5t133 52.5q83 0 137 -52.5t54 -136.5q0 -81 -54.5 -134.5t-136.5 -53.5q-78 0 -132 54.5t-54 133.5zM289 1421q0 44 -30 74.5t-73 30.5q-42 0 -70 -30t-28 -75t28 -75.5t70 -30.5q43 0 73 31t30 75z" />
    <glyph glyph-name="ogonek" unicode="&#x2db;" horiz-adv-x="270" 
d="M0 -117q0 86 72 131h96q-64 -48 -64 -110q0 -57 48 -91.5t118 -39.5v-109q-114 11 -192 72.5t-78 146.5z" />
    <glyph glyph-name="tilde" unicode="&#x2dc;" horiz-adv-x="604" 
d="M436 1233q-35 0 -68 17t-81 55q-65 53 -101 53q-67 0 -88 -117h-98q10 115 59 180.5t119 65.5q34 0 64 -16t84 -56q38 -32 60 -44.5t44 -12.5q71 0 86 125h88q0 -115 -48 -182.5t-120 -67.5z" />
    <glyph glyph-name="hungarumlaut" unicode="&#x2dd;" horiz-adv-x="458" 
d="M211 1538l-105 -305h-106l82 305h129zM459 1538l-105 -305h-106l82 305h129z" />
    <glyph glyph-name="uni0394" unicode="&#x394;" horiz-adv-x="1411" 
d="M1335 113v-113h-1259v113l571 1321h117zM213 123h981l-489 1130z" />
    <glyph glyph-name="uni0394" unicode="&#x3b4;" horiz-adv-x="1411" 
d="M1335 113v-113h-1259v113l571 1321h117zM213 123h981l-489 1130z" />
    <glyph glyph-name="uni03A9" unicode="&#x3a9;" horiz-adv-x="1581" 
d="M987 274v-141h316v-133h-443v362q107 18 194.5 66.5t143 117t85.5 149.5t30 167q0 94 -35.5 180t-100.5 153t-165 106.5t-221 39.5t-221.5 -39.5t-165.5 -106.5t-100.5 -153t-35.5 -180q0 -86 30 -167t85.5 -149.5t143 -117t194.5 -66.5v-362h-442v133h315v141
q-206 46 -336.5 208t-130.5 378q0 266 186 437t478 171t477.5 -171t185.5 -437q0 -216 -130.5 -378t-336.5 -208z" />
    <glyph glyph-name="uni03A9" unicode="&#x3c9;" horiz-adv-x="1581" 
d="M987 274v-141h316v-133h-443v362q107 18 194.5 66.5t143 117t85.5 149.5t30 167q0 94 -35.5 180t-100.5 153t-165 106.5t-221 39.5t-221.5 -39.5t-165.5 -106.5t-100.5 -153t-35.5 -180q0 -86 30 -167t85.5 -149.5t143 -117t194.5 -66.5v-362h-442v133h315v141
q-206 46 -336.5 208t-130.5 378q0 266 186 437t478 171t477.5 -171t185.5 -437q0 -216 -130.5 -378t-336.5 -208z" />
    <glyph glyph-name="uni03BC" unicode="&#x3bc;" horiz-adv-x="1255" 
d="M1139 119v-119h-74q-85 0 -133.5 34.5t-65.5 106.5q-95 -164 -309 -164q-157 0 -240 95v-465h-139v1419h139v-639q0 -140 66 -214.5t188 -74.5q132 0 211.5 87.5t79.5 250.5v590h137v-797q0 -60 21.5 -85t71.5 -25h47z" />
    <glyph glyph-name="pi" unicode="&#x3c0;" horiz-adv-x="1296" 
d="M946 907v-637q0 -76 31 -109.5t110 -33.5h70v-127h-92q-129 0 -193.5 61t-64.5 209v637h-338v-907h-139v907h-295v119h842q124 0 226.5 20.5t158.5 53.5v-131q-54 -29 -143.5 -45.5t-172.5 -16.5z" />
    <glyph glyph-name="uni1E02" unicode="&#x1e02;" horiz-adv-x="1363" 
d="M1247 412q0 -80 -31.5 -154t-89.5 -131.5t-147.5 -92t-196.5 -34.5h-583v1434h608q90 0 163 -27t119 -73t70.5 -105t24.5 -125q0 -102 -56.5 -192.5t-154.5 -139.5q131 -42 202.5 -139.5t71.5 -220.5zM344 821h397q138 0 217.5 75.5t79.5 180.5q0 98 -69 163t-189 65
h-436v-484zM1094 414q0 121 -80 200.5t-217 79.5h-453v-563h438q145 0 228.5 81t83.5 202zM549 1589v203h194v-203h-194z" />
    <glyph glyph-name="uni1E03" unicode="&#x1e03;" horiz-adv-x="1241" 
d="M1135 520q0 -242 -129.5 -392.5t-335.5 -150.5q-126 0 -220.5 58t-138.5 153v-188h-133v1456h139v-637q42 101 139.5 163t227.5 62q200 0 325.5 -144t125.5 -380zM993 512q0 184 -90.5 291.5t-243.5 107.5q-154 0 -248 -110t-94 -297q0 -183 93 -293.5t243 -110.5
q154 0 247 112t93 300zM602 1233v203h195v-203h-195z" />
    <glyph glyph-name="uni1E0A" unicode="&#x1e0a;" horiz-adv-x="1458" 
d="M1331 741q1 -114 -27 -222.5t-87.5 -203t-142.5 -165.5t-199.5 -111.5t-251.5 -38.5h-424v1434h450q163 0 294 -55.5t215 -151.5t128.5 -220.5t44.5 -265.5zM1182 731q0 117 -35 220t-101.5 182.5t-172 125.5t-236.5 46h-293v-1174h281q132 0 240 49.5t176 134
t104.5 191.5t36.5 225zM496 1589v203h194v-203h-194z" />
    <glyph glyph-name="uni1E0B" unicode="&#x1e0b;" horiz-adv-x="1243" 
d="M1065 1456v-1456h-133v199q-43 -98 -139 -160t-226 -62q-203 0 -332 150t-129 387q0 238 129 384t334 146q122 0 217.5 -53t139.5 -139v604h139zM924 518q0 184 -93.5 293t-244.5 109q-153 0 -244.5 -110t-91.5 -296q0 -185 93 -296.5t243 -111.5q153 0 245.5 112
t92.5 300zM432 1233v203h195v-203h-195z" />
    <glyph glyph-name="uni1E1E" unicode="&#x1e1e;" horiz-adv-x="1140" 
d="M344 659v-659h-145v1434h897v-129h-752v-514h688v-132h-688zM588 1589v203h194v-203h-194z" />
    <glyph glyph-name="uni1E1F" unicode="&#x1e1f;" horiz-adv-x="673" 
d="M639 1331h-113q-80 0 -110.5 -33.5t-30.5 -113.5v-158h227v-125h-227v-901h-139v901h-170v125h170v162q0 146 66 207t192 61h135v-125zM385 1589v203h195v-203h-195z" />
    <glyph glyph-name="uni1E40" unicode="&#x1e40;" horiz-adv-x="1753" 
d="M1554 1434v-1434h-143v1251l-481 -1251h-115l-477 1251v-1251h-139v1434h217l458 -1217l463 1217h217zM780 1589v203h195v-203h-195z" />
    <glyph glyph-name="uni1E41" unicode="&#x1e41;" horiz-adv-x="1755" 
d="M178 0v1026h137v-170q41 91 119.5 139.5t179.5 48.5q116 0 198.5 -57.5t107.5 -155.5q38 97 124.5 155t210.5 58q150 0 241 -81.5t91 -227.5v-735h-139v686q0 114 -59 175t-158 61q-124 0 -201.5 -90.5t-77.5 -245.5v-586h-139v686q0 113 -58 174.5t-157 61.5
q-122 0 -201.5 -91t-79.5 -245v-586h-139zM805 1233v203h194v-203h-194z" />
    <glyph glyph-name="uni1E56" unicode="&#x1e56;" horiz-adv-x="1261" 
d="M1176 1034q0 -84 -30 -160.5t-86 -136.5t-144 -95.5t-195 -35.5h-379v-606h-143v1434h546q101 0 183.5 -32.5t136 -88t82.5 -127.5t29 -152zM1030 1022q0 122 -82 202.5t-221 80.5h-385v-572h379q144 0 226.5 84.5t82.5 204.5zM514 1589v203h195v-203h-195z" />
    <glyph glyph-name="uni1E57" unicode="&#x1e57;" horiz-adv-x="1241" 
d="M1135 520q0 -131 -38.5 -234.5t-104.5 -167t-149 -96t-177 -32.5q-121 0 -210.5 50t-138.5 138v-571h-139v1419h135v-215q36 101 136.5 167t230.5 66q90 0 170 -32.5t144.5 -94.5t102.5 -164.5t38 -232.5zM991 514q0 193 -96 297q-93 100 -236 100q-68 0 -128.5 -24
t-108 -71.5t-75.5 -125.5t-28 -178q0 -191 94 -294t242 -103t242 103t94 296zM573 1233v203h195v-203h-195z" />
    <glyph glyph-name="uni1E60" unicode="&#x1e60;" horiz-adv-x="1277" 
d="M674 -37q-152 0 -276.5 58t-200.5 172t-80 264h155q6 -180 121 -269q119 -90 281 -90q150 0 243 70t93 190q0 89 -54 146q-50 51 -120 78.5t-215 62.5q-89 21 -153 42t-125.5 54.5t-99.5 76t-61.5 104.5t-25.5 141q0 191 135 299q132 106 352 106q210 0 348 -102
q141 -102 150 -299h-152q-4 131 -98.5 200.5t-247.5 69.5q-155 0 -248.5 -71t-93.5 -199q0 -93 47 -149q47 -51 117.5 -80t212.5 -62q170 -41 252 -76q106 -41 168.5 -122t62.5 -205q0 -128 -65.5 -222.5t-174.5 -141t-247 -46.5zM535 1589v203h194v-203h-194z" />
    <glyph glyph-name="uni1E61" unicode="&#x1e61;" horiz-adv-x="1032" 
d="M936 291q0 -154 -115 -234t-280 -80q-176 0 -303 89t-142 249h150q17 -103 97.5 -158t199.5 -55q108 0 178 45.5t70 124.5q0 74 -58 110t-182 56q-130 19 -225 47q-91 28 -148 90.5t-57 165.5q0 144 107 223.5t280 79.5q174 0 284 -81t117 -226h-145q-7 88 -79.5 136.5
t-182.5 48.5q-107 0 -171.5 -46.5t-64.5 -125.5q2 -24 7 -42.5t15.5 -34t21 -26.5t31.5 -21t37.5 -16t48.5 -13.5t54.5 -11.5t65.5 -12q118 -20 203 -43q186 -55 186 -239zM436 1233v203h195v-203h-195z" />
    <glyph glyph-name="uni1E6A" unicode="&#x1e6a;" horiz-adv-x="1216" 
d="M1171 1434v-129h-491v-1305h-145v1305h-490v129h1126zM512 1589v203h195v-203h-195z" />
    <glyph glyph-name="uni1E6B" unicode="&#x1e6b;" horiz-adv-x="741" 
d="M655 127v-127h-149q-125 0 -191 51q-67 52 -67 209v641h-203v125h203v291l139 39v-330h248v-125h-248v-631q0 -76 31 -109.5t110 -33.5h127zM223 1434v202h195v-202h-195z" />
    <glyph glyph-name="Wgrave" unicode="&#x1e80;" horiz-adv-x="1949" 
d="M1874 1434l-381 -1434h-147l-369 1223l-369 -1223h-149l-383 1434h153l308 -1235l368 1235h150l366 -1241l308 1241h145zM684 1851l121 91l227 -353h-114z" />
    <glyph glyph-name="wgrave" unicode="&#x1e81;" horiz-adv-x="1628" 
d="M1573 1026l-344 -1026h-139l-277 817l-276 -817h-138l-344 1026h144l272 -842l270 842h142l280 -844l267 844h143zM504 1495l121 88l227 -350h-115z" />
    <glyph glyph-name="Wacute" unicode="&#x1e82;" horiz-adv-x="1949" 
d="M1874 1434l-381 -1434h-147l-369 1223l-369 -1223h-149l-383 1434h153l308 -1235l368 1235h150l366 -1241l308 1241h145zM1262 1851l-234 -262h-115l228 353z" />
    <glyph glyph-name="wacute" unicode="&#x1e83;" horiz-adv-x="1628" 
d="M1573 1026l-344 -1026h-139l-277 817l-276 -817h-138l-344 1026h144l272 -842l270 842h142l280 -844l267 844h143zM1096 1495l-234 -262h-114l227 350z" />
    <glyph glyph-name="Wdieresis" unicode="&#x1e84;" horiz-adv-x="1949" 
d="M1874 1434l-381 -1434h-147l-369 1223l-369 -1223h-149l-383 1434h153l308 -1235l368 1235h150l366 -1241l308 1241h145zM874 1589h-167v183h167v-183zM1245 1589h-168v183h168v-183z" />
    <glyph glyph-name="wdieresis" unicode="&#x1e85;" horiz-adv-x="1628" 
d="M1573 1026l-344 -1026h-139l-277 817l-276 -817h-138l-344 1026h144l272 -842l270 842h142l280 -844l267 844h143zM713 1233h-164v178h164v-178zM1081 1233h-163v178h163v-178z" />
    <glyph glyph-name="Ygrave" unicode="&#x1ef2;" horiz-adv-x="1288" 
d="M1055 1434h168l-506 -871v-563h-146v563l-505 871h172l409 -742zM371 1851l121 91l227 -353h-115z" />
    <glyph glyph-name="ygrave" unicode="&#x1ef3;" horiz-adv-x="1001" 
d="M817 1026h139l-426 -1116q-51 -136 -128.5 -191t-217.5 -55h-55v123h57q87 0 143 38t87 126l22 63l-393 1012h148l311 -838zM197 1495l120 88l228 -350h-115z" />
    <glyph glyph-name="endash" unicode="&#x2013;" horiz-adv-x="1146" 
d="M1051 539h-955v123h955v-123z" />
    <glyph glyph-name="emdash" unicode="&#x2014;" horiz-adv-x="2103" 
d="M2007 539h-1911v123h1911v-123z" />
    <glyph glyph-name="quoteleft" unicode="&#x2018;" horiz-adv-x="446" 
d="M186 1171h93v-190h-203v197q0 152 74 231t202 90l19 -86q-105 -20 -145 -76.5t-40 -165.5z" />
    <glyph glyph-name="quoteright" unicode="&#x2019;" horiz-adv-x="446" 
d="M260 1255h-92v191h203v-197q0 -152 -74.5 -231t-202.5 -90l-18 86q105 20 144.5 76t39.5 165z" />
    <glyph glyph-name="quotesinglbase" unicode="&#x201a;" horiz-adv-x="446" 
d="M260 12h-92v191h203v-197q0 -152 -74.5 -231t-202.5 -90l-18 86q105 20 144.5 76t39.5 165z" />
    <glyph glyph-name="quotedblleft" unicode="&#x201c;" horiz-adv-x="819" 
d="M186 1171h93v-190h-203v197q0 152 74 231t202 90l19 -86q-105 -20 -145 -76.5t-40 -165.5zM559 1171h92v-190h-202v197q0 152 74 231t202 90l18 -86q-105 -19 -144.5 -76t-39.5 -166z" />
    <glyph glyph-name="quotedblright" unicode="&#x201d;" horiz-adv-x="819" 
d="M260 1268h-92v190h203v-196q0 -152 -74.5 -231.5t-202.5 -90.5l-18 86q105 19 144.5 76t39.5 166zM633 1268h-92v190h202v-196q0 -152 -74 -231.5t-202 -90.5l-18 86q105 19 144.5 76t39.5 166z" />
    <glyph glyph-name="quotedblbase" unicode="&#x201e;" horiz-adv-x="821" 
d="M260 12h-92v191h203v-197q0 -152 -74.5 -231t-202.5 -90l-18 86q105 20 144.5 76t39.5 165zM635 12h-92v191h202v-197q0 -152 -74 -231t-202 -90l-18 86q105 20 144.5 76t39.5 165z" />
    <glyph glyph-name="dagger" unicode="&#x2020;" horiz-adv-x="1046" 
d="M453 858h-357v133h357v443h141v-443h356v-133h-356v-1048h-141v1048z" />
    <glyph glyph-name="daggerdbl" unicode="&#x2021;" horiz-adv-x="1046" 
d="M950 879h-356v-514h356v-134h-356v-421h-141v421h-357v134h357v514h-357v133h357v422h141v-422h356v-133z" />
    <glyph glyph-name="bullet" unicode="&#x2022;" horiz-adv-x="509" 
d="M117 453v280h276v-280h-276z" />
    <glyph glyph-name="ellipsis" unicode="&#x2026;" horiz-adv-x="1929" 
d="M250 0v199h190v-199h-190zM868 0v199h193v-199h-193zM1489 0v199h190v-199h-190z" />
    <glyph glyph-name="perthousand" unicode="&#x2030;" horiz-adv-x="2586" 
d="M2144 651q149 0 247.5 -95.5t98.5 -246.5q0 -147 -99 -244.5t-247 -97.5q-142 0 -240 97.5t-98 244.5q0 150 97.5 246t240.5 96zM2148 537q-94 0 -153.5 -63t-59.5 -163t59.5 -163.5t153.5 -63.5q91 0 152 64t61 163q0 98 -61 162t-152 64zM434 1460q149 0 247.5 -95.5
t98.5 -246.5q0 -147 -99 -244.5t-247 -97.5q-142 0 -240 97.5t-98 244.5q0 150 97.5 246t240.5 96zM1430 1434l-912 -1434h-141l913 1434h140zM438 1346q-94 0 -153.5 -63t-59.5 -163t59.5 -163.5t153.5 -63.5q91 0 152 64t61 163q0 98 -61 162t-152 64zM1358 651
q149 0 247.5 -95.5t98.5 -246.5q0 -147 -99 -244.5t-247 -97.5q-142 0 -240 97.5t-98 244.5q0 150 97.5 246t240.5 96zM1362 537q-94 0 -153.5 -63t-59.5 -163t59.5 -163.5t153.5 -63.5q91 0 152 64t61 163q0 98 -61 162t-152 64z" />
    <glyph glyph-name="guilsinglleft" unicode="&#x2039;" horiz-adv-x="720" 
d="M281 582l272 -310l-96 -86l-351 396l351 395l96 -88z" />
    <glyph glyph-name="guilsinglright" unicode="&#x203a;" horiz-adv-x="720" 
d="M440 582l-272 307l96 88l350 -395l-350 -396l-96 86z" />
    <glyph glyph-name="fraction" unicode="&#x2044;" horiz-adv-x="1316" 
d="M1174 1434l-887 -1434h-144l889 1434h142z" />
    <glyph glyph-name="Euro" unicode="&#x20ac;" horiz-adv-x="1288" 
d="M1090 465h143q0 -237 -135 -363q-134 -125 -353 -125q-211 0 -337.5 132.5t-165.5 377.5h-187v125h172q-2 23 -2 101q0 77 2 100h-172v127h187q39 239 168.5 366.5t345.5 127.5q220 0 345 -117.5t126 -349.5h-144q0 172 -87.5 255t-245.5 83q-299 0 -363 -365h496v-127
h-512q-2 -20 -2 -96q0 -19 4 -105h510v-125h-496q65 -381 373 -381q158 0 244 88t86 271z" />
    <glyph glyph-name="uni2113" unicode="&#x2113;" horiz-adv-x="884" 
d="M231 172q0 -40 20.5 -62t53.5 -22q56 0 132.5 56.5t142.5 146.5l43 -39q-87 -135 -183 -205t-190 -70q-74 0 -118 47t-44 126q0 42 14 102l121 524l-168 -88l25 107l168 84l59 262q34 152 123 233.5t197 81.5q87 0 144.5 -46.5t57.5 -133.5q0 -94 -66.5 -185t-191.5 -157
l-194 -103l-139 -606q-7 -35 -7 -53zM399 940l101 51q219 112 219 262q0 54 -27 82.5t-71 28.5q-57 0 -101 -47t-61 -127z" />
    <glyph glyph-name="uni2116" unicode="&#x2116;" horiz-adv-x="2289" 
d="M1268 1434v-1434h-156l-772 1233v-1233h-141v1434h186l743 -1201v1201h140zM1868 1468q149 0 247.5 -95.5t98.5 -246.5q0 -147 -99 -244.5t-247 -97.5q-142 0 -240 97.5t-98 244.5q0 150 97.5 246t240.5 96zM1872 1354q-94 0 -153.5 -63t-59.5 -163t59.5 -163.5
t153.5 -63.5q91 0 152 64t61 163q0 98 -61 162t-152 64z" />
    <glyph glyph-name="trademark" unicode="&#x2122;" horiz-adv-x="1515" 
d="M127 1341h539v-88h-222v-508h-96v508h-221v88zM1389 1341v-596h-95v494l-184 -494h-98l-185 494v-494h-94v596h160l170 -477l170 477h156z" />
    <glyph glyph-name="estimated" unicode="&#x212e;" horiz-adv-x="1034" 
d="M831 289h89q-20 -149 -124 -230.5t-257 -81.5q-91 0 -168.5 31t-137 90.5t-93.5 155t-34 217.5q0 123 34 221.5t92.5 160t135 94t164.5 32.5q109 0 197.5 -46t143.5 -141t55 -223q0 -64 -6 -98h-660v-248q86 -164 285 -164q241 0 284 230zM262 559h492v229
q-77 109 -222 109q-85 0 -157 -39t-113 -108v-191z" />
    <glyph glyph-name="uni2153" unicode="&#x2153;" horiz-adv-x="2174" 
d="M1632 1434l-887 -1434h-143l889 1434h141zM561 672h236v-119h-598v119h231v569q-90 -65 -219 -80v125q134 20 235 121h115v-735zM1976 231q0 -110 -85 -178.5t-220 -68.5q-148 0 -238 79.5t-90 210.5h136q0 -77 50.5 -121t137.5 -44q75 0 124.5 36t49.5 91q0 63 -53.5 98
t-151.5 35h-51v116h47q87 0 139 39t52 105q0 59 -42 91t-118 32q-83 0 -129.5 -45t-46.5 -129h-135q0 137 85.5 218t231.5 81q129 0 208 -62t79 -164q0 -88 -46 -142.5t-122 -66.5q188 -48 188 -211z" />
    <glyph glyph-name="uni2154" unicode="&#x2154;" horiz-adv-x="2209" 
d="M2011 231q0 -110 -85 -178.5t-220 -68.5q-148 0 -238 79.5t-90 210.5h135q0 -77 51 -121t138 -44q75 0 124.5 36t49.5 91q0 63 -53.5 98t-151.5 35h-51v116h47q87 0 139 39t52 105q0 59 -42 91t-118 32q-83 0 -129.5 -45t-46.5 -129h-136q0 137 86 218t232 81
q129 0 208 -62t79 -164q0 -88 -46 -142.5t-122 -66.5q188 -48 188 -211zM1681 1434l-886 -1434h-144l889 1434h141zM834 674v-119h-623v129l205 174l45 39q126 111 164 156q45 51 45 112q0 66 -43.5 105t-118.5 39q-78 0 -125.5 -46t-52.5 -126h-131q0 134 90.5 215.5
t234.5 81.5q129 0 206 -68.5t77 -179.5q0 -75 -33 -131q-29 -56 -72 -100t-131 -115l-43 -37l-151 -129h457z" />
    <glyph glyph-name="uni2155" unicode="&#x2155;" horiz-adv-x="2099" 
d="M1632 1434l-887 -1434h-143l889 1434h141zM561 672h236v-119h-598v119h231v569q-90 -65 -219 -80v125q134 20 235 121h115v-735zM1901 274q0 -125 -88.5 -207.5t-223.5 -82.5q-130 0 -214 78.5t-89 203.5h133q7 -74 54 -117t120 -43q81 0 125.5 45t44.5 121q0 78 -45 124
t-119 46q-80 0 -139 -53h-143l76 463h462v-121h-362l-39 -244q60 72 176 72q121 0 196 -80t75 -205z" />
    <glyph glyph-name="uni2156" unicode="&#x2156;" horiz-adv-x="2148" 
d="M1681 1434l-886 -1434h-144l889 1434h141zM1950 274q0 -125 -88.5 -207.5t-223.5 -82.5q-130 0 -214 78.5t-89 203.5h133q7 -74 54.5 -117t119.5 -43q81 0 125.5 45t44.5 121q0 78 -44.5 124t-118.5 46q-81 0 -140 -53h-143l76 463h463v-121h-363l-39 -244q60 72 176 72
q121 0 196 -80t75 -205zM834 674v-119h-623v129l205 174l45 39q126 111 164 156q45 51 45 112q0 66 -43.5 105t-118.5 39q-78 0 -125.5 -46t-52.5 -126h-131q0 134 90.5 215.5t234.5 81.5q129 0 206 -68.5t77 -179.5q0 -75 -33 -131q-29 -56 -72 -100t-131 -115l-43 -37
l-151 -129h457z" />
    <glyph glyph-name="uni2157" unicode="&#x2157;" horiz-adv-x="2101" 
d="M1634 1434l-886 -1434h-144l889 1434h141zM1903 274q0 -125 -88.5 -207.5t-223.5 -82.5q-130 0 -214 78.5t-89 203.5h133q7 -74 54 -117t120 -43q81 0 125.5 45t44.5 121q0 78 -44.5 124t-118.5 46q-81 0 -140 -53h-143l76 463h463v-121h-363l-39 -244q60 72 176 72
q121 0 196 -80t75 -205zM831 788q0 -110 -85 -178.5t-220 -68.5q-148 0 -237.5 79.5t-89.5 210.5h135q0 -77 50.5 -121t137.5 -44q75 0 124.5 36t49.5 91q0 63 -53 98t-151 35h-52v116h47q87 0 139 39t52 105q0 59 -42 91t-118 32q-83 0 -129.5 -45t-46.5 -129h-135
q0 137 85.5 218t231.5 81q129 0 208 -62t79 -164q0 -88 -46 -142.5t-122 -66.5q188 -48 188 -211z" />
    <glyph glyph-name="uni2158" unicode="&#x2158;" horiz-adv-x="2181" 
d="M1712 1434l-887 -1434h-143l889 1434h141zM1982 274q0 -125 -88 -207.5t-223 -82.5q-130 0 -214 78.5t-89 203.5h133q7 -74 54 -117t120 -43q81 0 125.5 45t44.5 121q0 78 -45 124t-119 46q-80 0 -139 -53h-143l76 463h462v-121h-362l-39 -244q60 72 176 72
q121 0 195.5 -80t74.5 -205zM854 727h-115v-172h-133v174h-407v111l385 569h155v-561h115v-121zM330 848h276v403z" />
    <glyph glyph-name="uni2159" unicode="&#x2159;" horiz-adv-x="2156" 
d="M1630 1434l-887 -1434h-143l889 1434h141zM561 672h236v-119h-598v119h231v569q-90 -65 -219 -80v125q134 20 235 121h115v-735zM1958 283q0 -132 -86 -215q-84 -84 -217 -84q-156 0 -244 119t-88 333q0 250 102 344q105 97 236 97q113 0 186 -65t86 -177h-135
q-7 57 -44 87t-99 30q-101 0 -156 -83t-55 -245q31 72 93 108.5t142 36.5q123 0 199 -82q80 -80 80 -204zM1821 274q0 75 -46.5 121.5t-121.5 46.5t-120.5 -47.5t-45.5 -122.5t45.5 -119t120.5 -44q78 0 123 45t45 120z" />
    <glyph glyph-name="uni215A" unicode="&#x215a;" horiz-adv-x="2142" 
d="M1614 1434l-887 -1434h-143l889 1434h141zM1944 283q0 -132 -86 -215q-84 -84 -218 -84q-156 0 -243.5 119t-87.5 333q0 250 102 344q105 97 236 97q113 0 186 -65t86 -177h-135q-7 57 -44.5 87t-99.5 30q-101 0 -155.5 -83t-54.5 -245q31 72 93 108.5t142 36.5
q123 0 199 -82q80 -80 80 -204zM1806 274q0 75 -46.5 121.5t-121.5 46.5q-74 0 -119.5 -47t-45.5 -123q0 -75 45 -119t120 -44q78 0 123 45t45 120zM813 831q0 -125 -88 -207.5t-223 -82.5q-130 0 -214 78.5t-89 203.5h133q7 -74 54 -116.5t120 -42.5q81 0 125.5 44.5
t44.5 120.5q0 78 -45 124t-119 46q-80 0 -139 -53h-144l76 463h463v-121h-362l-39 -244q60 72 176 72q121 0 195.5 -80t74.5 -205z" />
    <glyph glyph-name="oneeighth" unicode="&#x215b;" horiz-adv-x="2181" 
d="M1632 1434l-887 -1434h-143l889 1434h141zM561 672h236v-119h-598v119h231v569q-90 -65 -219 -80v125q134 20 235 121h115v-735zM1982 231q0 -111 -85.5 -179t-225.5 -68t-225.5 68t-85.5 179q0 82 47.5 142t126.5 73q-68 17 -109 73.5t-41 129.5q0 103 79 165.5
t208 62.5t208 -62.5t79 -165.5q0 -73 -41 -129.5t-109 -73.5q79 -13 126.5 -73t47.5 -142zM1671 502q70 0 112 34.5t42 96.5q0 57 -40 88t-114 31q-73 0 -113 -31t-40 -88q0 -62 41.5 -96.5t111.5 -34.5zM1845 244q0 68 -47.5 107.5t-126.5 39.5t-126.5 -39.5t-47.5 -107.5
q0 -62 47.5 -98.5t126.5 -36.5t126.5 36.5t47.5 98.5z" />
    <glyph glyph-name="threeeighths" unicode="&#x215c;" horiz-adv-x="2142" 
d="M1593 1434l-886 -1434h-144l889 1434h141zM1944 231q0 -111 -85.5 -179t-226.5 -68q-140 0 -225.5 68t-85.5 179q0 82 47.5 142t126.5 73q-68 17 -108.5 73.5t-40.5 129.5q0 103 78.5 165.5t207.5 62.5t208 -62.5t79 -165.5q0 -73 -41 -129.5t-109 -73.5q79 -13 127 -73
t48 -142zM1632 502q70 0 112 34.5t42 96.5q0 57 -40 88t-114 31q-73 0 -113 -31t-40 -88q0 -62 41.5 -96.5t111.5 -34.5zM1806 244q0 68 -47.5 107.5t-126.5 39.5t-126.5 -39.5t-47.5 -107.5q0 -62 47.5 -98.5t126.5 -36.5t126.5 36.5t47.5 98.5zM831 788q0 -110 -85 -178.5
t-220 -68.5q-148 0 -237.5 79.5t-89.5 210.5h135q0 -77 50.5 -121t137.5 -44q75 0 124.5 36t49.5 91q0 63 -53 98t-151 35h-52v116h47q87 0 139 39t52 105q0 59 -42 91t-118 32q-83 0 -129.5 -45t-46.5 -129h-135q0 137 85.5 218t231.5 81q129 0 208 -62t79 -164
q0 -88 -46 -142.5t-122 -66.5q188 -48 188 -211z" />
    <glyph glyph-name="fiveeighths" unicode="&#x215d;" horiz-adv-x="2101" 
d="M1903 231q0 -111 -85.5 -179t-226.5 -68q-140 0 -225.5 68t-85.5 179q0 82 47.5 142t126.5 73q-68 17 -108.5 73.5t-40.5 129.5q0 103 78.5 165.5t207.5 62.5t208 -62.5t79 -165.5q0 -73 -40.5 -129.5t-108.5 -73.5q79 -13 126.5 -73t47.5 -142zM1591 502q70 0 112 34.5
t42 96.5q0 57 -40 88t-114 31q-73 0 -113 -31t-40 -88q0 -62 41.5 -96.5t111.5 -34.5zM1765 244q0 68 -47.5 107.5t-126.5 39.5t-126.5 -39.5t-47.5 -107.5q0 -62 47.5 -98.5t126.5 -36.5t126.5 36.5t47.5 98.5zM1614 1434l-887 -1434h-143l889 1434h141zM813 831
q0 -125 -88 -207.5t-223 -82.5q-130 0 -214 78.5t-89 203.5h133q7 -74 54 -116.5t120 -42.5q81 0 125.5 44.5t44.5 120.5q0 78 -45 124t-119 46q-80 0 -139 -53h-144l76 463h463v-121h-362l-39 -244q60 72 176 72q121 0 195.5 -80t74.5 -205z" />
    <glyph glyph-name="seveneighths" unicode="&#x215e;" horiz-adv-x="2148" 
d="M1599 1434l-886 -1434h-144l889 1434h141zM1950 231q0 -111 -85.5 -179t-226.5 -68q-140 0 -225.5 68t-85.5 179q0 82 47.5 142t126.5 73q-68 17 -108.5 73.5t-40.5 129.5q0 103 78.5 165.5t207.5 62.5t208 -62.5t79 -165.5q0 -73 -40.5 -129.5t-108.5 -73.5
q79 -13 126.5 -73t47.5 -142zM1638 502q70 0 112 34.5t42 96.5q0 57 -40 88t-114 31q-73 0 -113 -31t-40 -88q0 -62 41.5 -96.5t111.5 -34.5zM1812 244q0 68 -47.5 107.5t-126.5 39.5t-126.5 -39.5t-47.5 -107.5q0 -62 47.5 -98.5t126.5 -36.5t126.5 36.5t47.5 98.5z
M834 1409v-139l-353 -715h-133l352 723h-501v131h635z" />
    <glyph glyph-name="arrowleft" unicode="&#x2190;" horiz-adv-x="1370" 
d="M612 82l-516 514l516 516l88 -88l-374 -362h948v-130h-948l374 -364z" />
    <glyph glyph-name="arrowup" unicode="&#x2191;" horiz-adv-x="1222" 
d="M1126 662l-86 -89l-364 375v-948h-129v948l-363 -375l-88 89l516 516z" />
    <glyph glyph-name="arrowright" unicode="&#x2192;" horiz-adv-x="1370" 
d="M758 82l-88 86l374 364h-948v130h948l-374 362l88 88l516 -516z" />
    <glyph glyph-name="arrowdown" unicode="&#x2193;" horiz-adv-x="1222" 
d="M1114 516l-514 -516l-516 516l88 88l363 -375v949h129v-949l364 375z" />
    <glyph glyph-name="partialdiff" unicode="&#x2202;" horiz-adv-x="1239" 
d="M973 653v56q0 324 -117 456q-115 133 -285 133q-121 0 -195.5 -64t-80.5 -179h-150q12 176 126 277.5t290 101.5q79 0 152.5 -19t148 -70.5t129 -130.5t88.5 -209.5t33 -297.5q0 -191 -43 -335t-118 -228.5t-168 -125.5t-201 -41q-209 0 -342.5 139t-133.5 343
q0 200 128.5 329.5t324.5 129.5q138 0 247 -67t167 -198zM911 444q0 147 -92 242q-93 96 -237 96q-143 0 -236 -96q-92 -95 -92 -240q0 -143 90 -239q91 -94 240 -94q146 0 236.5 91.5t90.5 239.5z" />
    <glyph glyph-name="product" unicode="&#x220f;" horiz-adv-x="1677" 
d="M1264 1311v-1311h-140v1311h-571v-1311h-139v1311h-215v123h1280v-123h-215z" />
    <glyph glyph-name="summation" unicode="&#x2211;" horiz-adv-x="1378" 
d="M332 131h940v-131h-1145v133l610 582l-571 590v129h1044v-129h-835l561 -590z" />
    <glyph glyph-name="minus" unicode="&#x2212;" 
d="M1026 705v-130h-823v130h823z" />
    <glyph glyph-name="radical" unicode="&#x221a;" horiz-adv-x="1210" 
d="M1145 1434l-518 -1434h-142l-440 1026h160l348 -858l446 1266h146z" />
    <glyph glyph-name="infinity" unicode="&#x221e;" horiz-adv-x="1495" 
d="M1440 571q0 -185 -94 -307q-94 -123 -269 -123q-118 0 -200.5 62.5t-128.5 175.5q-45 -113 -129.5 -175.5t-200.5 -62.5q-173 0 -268 121t-95 305q0 121 40.5 217.5t125 155.5t199.5 59q235 0 328 -239q94 239 331 239q173 0 267 -122q94 -119 94 -306zM670 571
q0 134 -67 211.5t-177 77.5q-106 0 -176 -75t-70 -216t68.5 -214.5t177.5 -73.5q110 0 177 77.5t67 212.5zM1315 571q0 142 -67.5 214.5t-176.5 72.5q-110 0 -177 -77.5t-67 -211.5t68 -211t176 -77q109 0 176.5 73.5t67.5 216.5z" />
    <glyph glyph-name="integral" unicode="&#x222b;" horiz-adv-x="530" 
d="M537 1434v-113h-70q-72 0 -103.5 -32t-31.5 -120v-1314q-2 -66 -17 -112.5t-36.5 -72.5t-57 -40.5t-66 -18t-75.5 -4.5h-86v112h61q73 0 104 31t31 121v1313q2 66 16.5 113t36 73t56.5 41t66.5 19t76.5 4h95z" />
    <glyph glyph-name="approxequal" unicode="&#x2248;" 
d="M834 793q126 0 192 55v-123q-84 -41 -199 -41q-47 0 -86 9t-112 34q-122 45 -207 45q-133 0 -219 -65v116q41 28 102.5 44t120.5 16q48 0 89.5 -10t109.5 -35q122 -45 209 -45zM834 504q127 0 192 53v-123q-84 -41 -199 -41q-47 0 -86 9t-112 34q-122 45 -207 45
q-133 0 -219 -65v116q41 28 102.5 44t120.5 16q48 0 85.5 -8.5t113.5 -34.5q122 -45 209 -45z" />
    <glyph glyph-name="notequal" unicode="&#x2260;" 
d="M1026 725h-313l-95 -170h408v-123h-475l-135 -246l-88 52l106 194h-231v123h301l92 170h-393v123h463l147 268l86 -51l-119 -217h246v-123z" />
    <glyph glyph-name="lessequal" unicode="&#x2264;" 
d="M1053 1174l-742 -353l742 -352l-58 -115l-811 389v156l811 389zM178 129h869v-129h-869v129z" />
    <glyph glyph-name="greaterequal" unicode="&#x2265;" 
d="M176 1174l57 114l811 -389v-156l-811 -389l-57 115l742 352zM1051 129v-129h-869v129h869z" />
    <glyph glyph-name="lozenge" unicode="&#x25ca;" horiz-adv-x="1105" 
d="M1071 688l-518 -711l-518 711l518 709zM913 688l-360 496l-358 -496l358 -500z" />
    <glyph glyph-name="NULL" horiz-adv-x="0" 
 />
    <glyph glyph-name="zero.osf" horiz-adv-x="1298" 
d="M1182 563q0 -271 -146.5 -428.5t-384.5 -157.5q-115 0 -213 39.5t-169.5 112.5t-111.5 184.5t-40 249.5q0 273 147 432.5t385 159.5q239 0 386 -159t147 -433zM1038 555q0 216 -111.5 340.5t-283.5 124.5q-168 0 -274.5 -118t-106.5 -329q0 -217 111.5 -340.5
t285.5 -123.5q165 0 272 118.5t107 327.5z" />
    <glyph glyph-name="one.osf" horiz-adv-x="1089" 
d="M612 125h361v-125h-856v125h358v883h-358v122h856v-122h-361v-883z" />
    <glyph glyph-name="two.osf" horiz-adv-x="1079" 
d="M963 125v-125h-830v123l326 244q180 137 256 235t76 201t-68 162t-174 59q-126 0 -207.5 -78.5t-81.5 -216.5h-143q6 202 131 314t303 112q159 0 272 -90q111 -89 111 -260q0 -128 -84 -238q-82 -107 -272 -248l-265 -194h650z" />
    <glyph glyph-name="three.osf" horiz-adv-x="1220" 
d="M1079 100q0 -174 -137.5 -288.5t-349.5 -114.5q-217 0 -356.5 122t-139.5 339h148q6 -157 99.5 -241.5t256.5 -84.5q158 0 244 75t86 193q0 124 -101 196.5t-274 72.5h-59v139h36q171 0 271 77.5t100 192.5q0 108 -84 173t-219 65q-154 0 -245 -86.5t-91 -239.5h-145
q0 143 65 249t175.5 160t250.5 54q192 0 317.5 -97t125.5 -259q0 -119 -68.5 -211t-189.5 -133q134 -35 209 -129t75 -224z" />
    <glyph glyph-name="four.osf" horiz-adv-x="1277" 
d="M905 197h236v-136h-236v-346h-137v351h-672v141l617 913h192v-923zM225 197h543v788z" />
    <glyph glyph-name="five.osf" horiz-adv-x="1218" 
d="M1071 176q0 -99 -31 -186.5t-89 -154t-149 -105.5t-204 -39q-203 0 -341.5 126.5t-150.5 334.5h148q12 -150 109 -237t237 -87q154 0 240 95t86 247q0 138 -86 233q-88 97 -240 97q-174 0 -293 -113h-139l119 735h706v-129h-598l-76 -461q132 99 310 99
q201 0 321.5 -130.5t120.5 -324.5z" />
    <glyph glyph-name="six.osf" horiz-adv-x="1239" 
d="M1102 459q0 -204 -133 -343t-342 -139q-86 0 -162.5 25t-144.5 81t-117.5 139.5t-78 207.5t-28.5 277q-1 167 33 297.5t88.5 209.5t129 130.5t148 70.5t152.5 19q176 0 290 -101.5t126 -277.5h-150q-6 115 -80.5 179t-195.5 64q-169 0 -287 -133q-114 -132 -114 -456v-56
q58 131 166.5 198t246.5 67q196 0 324.5 -129.5t128.5 -329.5zM954 446q0 145 -92 240q-93 96 -235 96q-145 0 -238 -96q-92 -95 -92 -242q0 -148 91 -239.5t237 -91.5q149 0 237 94q92 95 92 239z" />
    <glyph glyph-name="seven.osf" horiz-adv-x="1179" 
d="M1083 1122v-133l-587 -1276h-142l586 1268h-885v141h1028z" />
    <glyph glyph-name="eight.osf" horiz-adv-x="1191" 
d="M1075 369q0 -177 -132 -284.5t-347 -107.5t-347 107.5t-132 284.5q0 133 74.5 226.5t207.5 135.5q-245 99 -245 338q0 171 125 268t317 97t317 -97t125 -268q0 -239 -245 -338q133 -42 207.5 -135.5t74.5 -226.5zM596 801q137 0 216 71.5t79 186.5q0 108 -74 173.5
t-221 65.5t-221 -65.5t-74 -173.5q0 -115 79 -186.5t216 -71.5zM928 385q0 125 -88 203t-244 78t-244 -78t-88 -203q0 -124 87 -198t245 -74t245 74t87 198z" />
    <glyph glyph-name="nine.osf" horiz-adv-x="1234" 
d="M117 674q0 204 133 342.5t342 138.5q86 0 162.5 -24.5t144.5 -80.5t117 -140t77.5 -209.5t28.5 -282.5q0 -119 -16.5 -219.5t-45.5 -173t-70 -130t-86.5 -93.5t-99 -60t-105 -33.5t-105.5 -9.5q-178 0 -302 102.5t-136 276.5h149q6 -113 88.5 -178.5t208.5 -65.5
q163 0 272 133t109 457v55q-58 -131 -167 -197.5t-247 -66.5q-196 0 -324 129.5t-128 329.5zM264 686q0 -147 92 -242q91 -94 236 -94q146 0 237 94q93 96 93 244t-91 240t-237 92q-149 0 -240 -94q-90 -96 -90 -240z" />
    <glyph glyph-name="zero.tf" 
d="M1083 707q0 -351 -117.5 -540.5t-351.5 -189.5t-351.5 189.5t-117.5 540.5q0 350 117.5 538.5t351.5 188.5t351.5 -188.5t117.5 -538.5zM936 707q0 279 -81 435t-241 156t-240.5 -156t-80.5 -435q0 -186 34 -317.5t106.5 -204t180.5 -72.5q161 0 241.5 156t80.5 438z" />
    <glyph glyph-name="one.tf" 
d="M725 129h344v-129h-827v129h346v1112q-128 -105 -346 -143v123q208 41 356 188h127v-1280z" />
    <glyph glyph-name="two.tf" 
d="M1106 129v-129h-961v133l349 316l38 36q146 134 213 203q164 167 164 334q0 131 -80 203.5t-213 72.5q-146 0 -242 -85t-106 -242h-143q3 110 45.5 199.5t112.5 146t158.5 87t187.5 30.5q188 0 307 -107q121 -106 121 -291q0 -115 -47 -211q-45 -93 -126 -181.5
t-241 -229.5l-324 -285h787z" />
    <glyph glyph-name="three.tf" 
d="M1106 381q0 -174 -138 -289t-350 -115q-217 0 -356 122t-139 339h147q6 -157 100 -241t257 -84q158 0 243.5 75t85.5 193q0 124 -100.5 196t-273.5 72h-60v139h37q171 0 271 78t100 193q0 108 -84 172.5t-219 64.5q-154 0 -245 -86t-91 -239h-146q0 214 138.5 338.5
t353.5 124.5q192 0 317 -97.5t125 -259.5q0 -119 -68.5 -211t-189.5 -133q134 -35 209.5 -128.5t75.5 -223.5z" />
    <glyph glyph-name="four.tf" 
d="M901 481h236v-135h-236v-346h-137v350h-672v142l617 913h192v-924zM221 481h543v789z" />
    <glyph glyph-name="five.tf" 
d="M1098 463q0 -99 -31 -186.5t-89 -154.5t-149 -106t-204 -39q-203 0 -341.5 126.5t-150.5 334.5h148q12 -150 109 -236.5t237 -86.5q154 0 239.5 95t85.5 247q0 138 -86 233q-87 96 -239 96q-175 0 -293 -112h-139l118 735h707v-129h-598l-76 -461q132 99 309 99
q201 0 322 -130.5t121 -324.5z" />
    <glyph glyph-name="six.tf" 
d="M1118 459q0 -204 -133 -343t-342 -139q-108 0 -201 41t-168 125.5t-118 228.5t-43 335q-1 167 33 297.5t88.5 209.5t129 130.5t148 70.5t152.5 19q176 0 289.5 -101.5t125.5 -277.5h-149q-6 115 -81 179t-196 64q-168 0 -286 -133q-115 -133 -115 -456v-56
q58 131 167 198t247 67q196 0 324 -129.5t128 -329.5zM971 446q0 145 -92 240q-93 96 -236 96q-144 0 -237 -96t-93 -242q0 -148 91 -239.5t237 -91.5q150 0 238 94q92 95 92 239z" />
    <glyph glyph-name="seven.tf" 
d="M1128 1409v-133l-587 -1276h-142l586 1268h-885v141h1028z" />
    <glyph glyph-name="eight.tf" 
d="M1094 369q0 -177 -132 -284.5t-348 -107.5q-215 0 -347 107.5t-132 284.5q0 133 75 226.5t208 135.5q-246 99 -246 338q0 171 125 268t317 97t317.5 -97t125.5 -268q0 -239 -246 -338q133 -42 208 -135.5t75 -226.5zM614 801q137 0 216 71.5t79 186.5q0 108 -74 173.5
t-221 65.5t-221 -65.5t-74 -173.5q0 -115 79 -186.5t216 -71.5zM946 385q0 125 -88 203t-244 78t-243.5 -78t-87.5 -203q0 -124 86.5 -198t244.5 -74t245 74t87 198z" />
    <glyph glyph-name="nine.tf" 
d="M113 952q0 204 133 343t342 139q109 0 201.5 -41t167.5 -125.5t118 -231t43 -340.5q0 -119 -16.5 -219.5t-45.5 -173t-70 -130t-86.5 -93.5t-99 -60t-105 -33.5t-105.5 -9.5q-178 0 -302 102.5t-136 276.5h149q6 -113 88.5 -178t208.5 -65q165 0 272 131q109 133 109 458
v56q-58 -131 -167 -197.5t-247 -66.5q-196 0 -324 129t-128 329zM260 965q0 -147 92 -242q91 -94 236 -94q146 0 237 94q93 96 93 244t-91 239.5t-237 91.5q-149 0 -240 -94q-90 -96 -90 -239z" />
    <glyph glyph-name="zero.dnom" horiz-adv-x="749" 
d="M678 430q0 -221 -76.5 -333.5t-226.5 -112.5t-226.5 112.5t-76.5 333.5t77 334t226 113t226 -113t77 -334zM543 430q0 322 -168 322t-168 -322q0 -321 168 -321t168 321z" />
    <glyph glyph-name="one.dnom" horiz-adv-x="759" 
d="M444 117h236v-119h-598v119h231v569q-90 -65 -219 -80v125q136 21 236 121h114v-735z" />
    <glyph glyph-name="two.dnom" horiz-adv-x="741" 
d="M688 117v-119h-622v129l204 174l45 39q126 111 164 156q45 51 45 112q0 66 -43.5 105t-118.5 39q-78 0 -125.5 -46t-52.5 -126h-131q0 134 91 215.5t235 81.5q129 0 206 -68.5t77 -179.5q0 -75 -33 -131q-29 -56 -72 -100t-131 -115l-43 -37l-152 -129h457z" />
    <glyph glyph-name="three.dnom" horiz-adv-x="743" 
d="M688 231q0 -110 -85 -178.5t-220 -68.5q-148 0 -238 79.5t-90 210.5h135q0 -77 51 -121t138 -44q75 0 124.5 36t49.5 91q0 63 -53.5 98t-151.5 35h-51v116h47q87 0 139 39t52 105q0 59 -42 91t-118 32q-83 0 -129.5 -45t-46.5 -129h-136q0 137 86 218t232 81
q129 0 208 -62t79 -164q0 -88 -46 -142.5t-122 -66.5q188 -48 188 -211z" />
    <glyph glyph-name="four.dnom" horiz-adv-x="737" 
d="M696 170h-114v-172h-133v174h-408v111l385 569h156v-561h114v-121zM172 291h277v403z" />
    <glyph glyph-name="five.dnom" horiz-adv-x="741" 
d="M678 274q0 -125 -88 -207.5t-223 -82.5q-130 0 -214.5 78.5t-89.5 203.5h134q7 -74 54 -117t120 -43q81 0 125.5 45t44.5 121q0 78 -45 124t-119 46q-80 0 -139 -53h-144l76 463h463v-121h-363l-39 -244q60 72 177 72q121 0 195.5 -80t74.5 -205z" />
    <glyph glyph-name="six.dnom" horiz-adv-x="741" 
d="M688 283q0 -132 -86 -215q-84 -84 -217 -84q-156 0 -244 119t-88 333q0 249 103 344q105 97 235 97q113 0 186.5 -65t86.5 -177h-136q-7 57 -44 87t-99 30q-101 0 -156 -83t-55 -245q31 72 93.5 108.5t142.5 36.5q122 0 198 -82q80 -80 80 -204zM551 274
q0 75 -46.5 121.5t-121.5 46.5t-120.5 -47.5t-45.5 -122.5t45.5 -119t120.5 -44q78 0 123 45t45 120z" />
    <glyph glyph-name="seven.dnom" horiz-adv-x="737" 
d="M686 852v-139l-352 -715h-133l352 723h-502v131h635z" />
    <glyph glyph-name="eight.dnom" horiz-adv-x="745" 
d="M684 231q0 -111 -85.5 -179t-225.5 -68q-141 0 -226.5 68t-85.5 179q0 82 48 142t127 73q-68 17 -109 73.5t-41 129.5q0 103 79 165.5t208 62.5t207.5 -62.5t78.5 -165.5q0 -73 -40.5 -129.5t-108.5 -73.5q79 -13 126.5 -73t47.5 -142zM373 502q70 0 111.5 34.5
t41.5 96.5q0 57 -40 88t-113 31q-74 0 -114 -31t-40 -88q0 -62 42 -96.5t112 -34.5zM547 244q0 68 -47.5 107.5t-126.5 39.5t-126.5 -39.5t-47.5 -107.5q0 -62 47.5 -98.5t126.5 -36.5t126.5 36.5t47.5 98.5z" />
    <glyph glyph-name="nine.dnom" horiz-adv-x="737" 
d="M51 578q0 131 84 215q87 84 219 84q156 0 244 -120.5t88 -336.5q0 -246 -98 -340q-101 -96 -228 -96q-116 0 -193.5 64.5t-90.5 176.5h135q7 -56 50 -86t106 -30q198 0 198 327q-32 -72 -93.5 -109.5t-141.5 -37.5q-122 0 -201 82q-78 84 -78 207zM188 586
q0 -75 46.5 -122.5t121.5 -47.5q74 0 120 48t46 124q0 75 -45.5 119.5t-120.5 44.5t-121.5 -45.5t-46.5 -120.5z" />
    <glyph glyph-name="zero.numr" horiz-adv-x="749" 
d="M678 987q0 -221 -76.5 -333.5t-226.5 -112.5t-226.5 112.5t-76.5 333.5t77 334t226 113t226 -113t77 -334zM543 987q0 322 -168 322t-168 -322q0 -321 168 -321t168 321z" />
    <glyph glyph-name="one.numr" horiz-adv-x="759" 
d="M444 674h236v-119h-598v119h231v569q-90 -65 -219 -80v125q136 21 236 121h114v-735z" />
    <glyph glyph-name="two.numr" horiz-adv-x="741" 
d="M688 674v-119h-622v129l204 174l45 39q126 111 164 156q45 51 45 112q0 66 -43.5 105t-118.5 39q-78 0 -125.5 -46t-52.5 -126h-131q0 134 91 215.5t235 81.5q129 0 206 -68.5t77 -179.5q0 -75 -33 -131q-29 -56 -72 -100t-131 -115l-43 -37l-152 -129h457z" />
    <glyph glyph-name="three.numr" horiz-adv-x="743" 
d="M688 788q0 -110 -85 -178.5t-220 -68.5q-148 0 -238 79.5t-90 210.5h135q0 -77 51 -121t138 -44q75 0 124.5 36t49.5 91q0 63 -53.5 98t-151.5 35h-51v116h47q87 0 139 39t52 105q0 59 -42 91t-118 32q-83 0 -129.5 -45t-46.5 -129h-136q0 137 86 218t232 81
q129 0 208 -62t79 -164q0 -88 -46 -142.5t-122 -66.5q188 -48 188 -211z" />
    <glyph glyph-name="four.numr" horiz-adv-x="737" 
d="M696 727h-114v-172h-133v174h-408v111l385 569h156v-561h114v-121zM172 848h277v403z" />
    <glyph glyph-name="five.numr" horiz-adv-x="741" 
d="M678 831q0 -125 -88 -207.5t-223 -82.5q-130 0 -214.5 78.5t-89.5 203.5h134q7 -74 54 -116.5t120 -42.5q81 0 125.5 44.5t44.5 120.5q0 78 -45 124t-119 46q-80 0 -139 -53h-144l76 463h463v-121h-363l-39 -244q60 72 177 72q121 0 195.5 -80t74.5 -205z" />
    <glyph glyph-name="six.numr" horiz-adv-x="741" 
d="M688 840q0 -132 -86 -215q-84 -84 -217 -84q-156 0 -244 119t-88 333q0 249 103 344q105 97 235 97q113 0 186.5 -65t86.5 -177h-136q-7 57 -44 87t-99 30q-101 0 -156 -83t-55 -245q31 72 93.5 108.5t142.5 36.5q122 0 198 -82q80 -80 80 -204zM551 831
q0 75 -46.5 121.5t-121.5 46.5t-120.5 -47.5t-45.5 -122.5t45.5 -119t120.5 -44q78 0 123 45t45 120z" />
    <glyph glyph-name="seven.numr" horiz-adv-x="737" 
d="M686 1409v-139l-352 -715h-133l352 723h-502v131h635z" />
    <glyph glyph-name="eight.numr" horiz-adv-x="745" 
d="M684 788q0 -111 -85.5 -179t-225.5 -68q-141 0 -226.5 68t-85.5 179q0 82 48 142.5t127 73.5q-68 17 -109 73t-41 129q0 103 79 165.5t208 62.5t207.5 -62.5t78.5 -165.5q0 -73 -40.5 -129t-108.5 -73q79 -13 126.5 -73t47.5 -143zM373 1059q70 0 111.5 34.5t41.5 96.5
q0 57 -40 88t-113 31q-74 0 -114 -31t-40 -88q0 -62 42 -96.5t112 -34.5zM547 801q0 68 -47.5 107.5t-126.5 39.5t-126.5 -39.5t-47.5 -107.5q0 -62 47.5 -98.5t126.5 -36.5t126.5 36.5t47.5 98.5z" />
    <glyph glyph-name="nine.numr" horiz-adv-x="737" 
d="M51 1135q0 131 84 215q87 84 219 84q156 0 244 -120.5t88 -336.5q0 -246 -98 -340q-101 -96 -228 -96q-116 0 -193.5 64.5t-90.5 176.5h135q7 -56 50 -86t106 -30q198 0 198 327q-32 -72 -93.5 -109.5t-141.5 -37.5q-122 0 -201 82q-78 84 -78 207zM188 1143
q0 -75 46.5 -122.5t121.5 -47.5q74 0 120 48t46 124q0 75 -45.5 119.5t-120.5 44.5t-121.5 -45.5t-46.5 -120.5z" />
    <glyph glyph-name="exclamdown.cap" horiz-adv-x="593" 
d="M395 1331v-203h-196v203h196zM369 -102h-146v626l31 402h84l31 -402v-626z" />
    <glyph glyph-name="questiondown.cap" horiz-adv-x="1067" 
d="M676 1366v-203h-195v203h195zM645 958v-75q0 -109 -45 -187.5t-141 -148.5l-107 -80q-55 -41 -83.5 -89.5t-28.5 -121.5q0 -111 73.5 -166t196.5 -55q133 0 215 69t86 195h139q0 -125 -63 -214.5t-164.5 -132t-228.5 -42.5q-185 0 -291.5 92.5t-106.5 253.5
q0 106 46.5 178.5t146.5 145.5l78 57q89 65 121 124.5t32 147.5v49h125z" />
    <glyph glyph-name="periodcentered.cap" horiz-adv-x="387" 
d="M96 696v203h195v-203h-195z" />
    <glyph glyph-name="bullet.cap" horiz-adv-x="468" 
d="M96 555v281h277v-281h-277z" />
    <glyph glyph-name="hyphen.cap" horiz-adv-x="780" 
d="M684 682h-588v125h588v-125z" />
    <glyph glyph-name="endash.cap" horiz-adv-x="1146" 
d="M1051 686h-955v123h955v-123z" />
    <glyph glyph-name="emdash.cap" horiz-adv-x="2103" 
d="M2007 686h-1911v123h1911v-123z" />
    <glyph glyph-name="guillemotleft.cap" horiz-adv-x="1130" 
d="M281 715l272 -309l-96 -87l-351 396l351 395l96 -88zM690 715l273 -309l-97 -87l-350 396l350 395l97 -88z" />
    <glyph glyph-name="guillemotright.cap" horiz-adv-x="1130" 
d="M440 715l-272 307l96 88l350 -395l-350 -396l-96 87zM850 715l-272 307l96 88l350 -395l-350 -396l-96 87z" />
    <glyph glyph-name="guilsinglleft.cap" horiz-adv-x="720" 
d="M281 715l272 -309l-96 -87l-351 396l351 395l96 -88z" />
    <glyph glyph-name="guilsinglright.cap" horiz-adv-x="720" 
d="M440 715l-272 307l96 88l350 -395l-350 -396l-96 87z" />
    <glyph glyph-name="at.cap" horiz-adv-x="1843" 
d="M1716 817q0 -237 -107.5 -400t-262.5 -163q-87 0 -153 55t-83 140q-51 -92 -135.5 -143.5t-183.5 -51.5q-142 0 -230 104q-88 107 -88 273q0 93 30 181t83.5 157.5t136 112t180.5 42.5q100 0 166 -42t92 -124l33 148h135l-92 -406q-23 -108 -23 -161q0 -183 134 -183
q78 -3 138 69.5t87 175t26 208.5q1 132 -47.5 242t-132 181.5t-193 110.5t-231.5 37q-155 4 -298 -62.5t-242 -175t-156.5 -248.5t-54.5 -282q-2 -108 31 -205t92.5 -169.5t138.5 -125t171 -78.5t187 -24q139 0 254 53l33 -98q-141 -63 -309 -63q-109 -1 -214 28t-196.5 89
t-160.5 143.5t-107.5 198.5t-36.5 247q-4 176 66 339t189 280.5t283 187t341 66.5q89 1 175 -16.5t166.5 -51.5t148 -90t117.5 -127.5t77 -168.5t26 -210zM1112 774q0 113 -53.5 176.5t-149.5 63.5q-89 0 -159.5 -57t-106 -143.5t-35.5 -182.5q0 -118 56.5 -189t150.5 -71
q64 0 121 36t94.5 94t59.5 129.5t22 143.5z" />
    <glyph glyph-name="acute.cap" horiz-adv-x="348" 
d="M348 1851l-233 -262h-115l227 353z" />
    <glyph glyph-name="breve.cap" horiz-adv-x="440" 
d="M440 1792q0 -89 -56.5 -146t-164.5 -57q-106 0 -162.5 57t-56.5 146q0 42 12 76h103q-11 -33 -11 -58q0 -127 115 -127t115 127q0 27 -8 58h102q12 -35 12 -76z" />
    <glyph glyph-name="caron.cap" horiz-adv-x="585" 
d="M442 1903h144l-246 -312h-94l-246 312h143l150 -189z" />
    <glyph glyph-name="cedilla.cap" horiz-adv-x="403" 
d="M403 -262q0 -70 -54.5 -117t-145.5 -47q-115 0 -203 76l53 74q80 -62 152 -62q44 0 70 20t26 56q0 43 -46 62.5t-144 19.5v182h94v-115q92 -5 145 -44.5t53 -104.5z" />
    <glyph glyph-name="circumflex.cap" horiz-adv-x="585" 
d="M442 1589l-149 189l-150 -189h-143l246 312h94l246 -312h-144z" />
    <glyph glyph-name="dieresis.cap" horiz-adv-x="538" 
d="M168 1589h-168v183h168v-183zM539 1589h-168v183h168v-183z" />
    <glyph glyph-name="dotaccent.cap" horiz-adv-x="194" 
d="M0 1589v203h195v-203h-195z" />
    <glyph glyph-name="grave.cap" horiz-adv-x="348" 
d="M0 1851l121 91l227 -353h-115z" />
    <glyph glyph-name="hungarumlaut.cap" horiz-adv-x="458" 
d="M211 1896l-105 -307h-106l82 307h129zM459 1894l-103 -305h-108l82 305h129z" />
    <glyph glyph-name="macron.cap" horiz-adv-x="610" 
d="M610 1589h-610v109h610v-109z" />
    <glyph glyph-name="ring.cap" horiz-adv-x="376" 
d="M0 1759q0 84 52.5 135.5t133.5 51.5q83 0 137 -51.5t54 -135.5q0 -82 -54.5 -136t-136.5 -54q-80 0 -133 54t-53 136zM289 1759q0 44 -30 74.5t-73 30.5q-42 0 -70 -30t-28 -75t28 -76.5t70 -31.5q43 0 73 32t30 76z" />
    <glyph glyph-name="tilde.cap" horiz-adv-x="604" 
d="M436 1589q-34 0 -62 15t-87 57q-68 55 -101 55q-67 0 -88 -117h-98q10 114 59 179t119 65q34 0 64.5 -15.5t83.5 -55.5q40 -32 61 -44t43 -12q71 0 86 123h88q0 -115 -48 -182.5t-120 -67.5z" />
    </font>
</defs>
</svg>
